<?xml version="1.0" encoding="UTF-8"?><svg id="uuid-f93550ce-d736-4d8c-af07-aaaa2c3c1f39" xmlns="http://www.w3.org/2000/svg" viewBox="0 0 64 64"><g id="uuid-50afbfef-a0c9-41bf-be99-1a3cf69042fb"><path d="m32.12,64.36C14.48,64.36.12,50,.12,32.36S14.48.36,32.12.36s32,14.35,32,32-14.36,32-32,32Zm0-62C15.58,2.36,2.12,15.82,2.12,32.36s13.46,30,30,30,30-13.46,30-30S48.66,2.36,32.12,2.36Z"/><path d="m17.99,45.08l26.86-26.86c.39-.39,1.03-.4,1.42,0h0c.39.39.39,1.03,0,1.42l-26.86,26.86c-.39.39-1.03.4-1.42,0h0c-.39-.39-.39-1.03,0-1.42Zm26.86,1.41l-26.86-26.86c-.39-.39-.4-1.03,0-1.42h0c.39-.39,1.03-.39,1.42,0l26.86,26.86c.39.39.4,1.03,0,1.42h0c-.39.39-1.03.39-1.42,0Z"/></g></svg>