<?xml version="1.0" encoding="UTF-8"?><svg id="uuid-c75ab216-ed68-4ec7-8128-8797e583d201" xmlns="http://www.w3.org/2000/svg" viewBox="0 0 64 64"><g id="uuid-c07efca8-c978-4ed9-ba95-ab0cb5e4125e"><g id="uuid-64505f16-3fed-473e-aa08-5a57c2fdc418"><path d="m32,64C14.36,64,0,49.64,0,32S14.36,0,32,0s32,14.36,32,32-14.36,32-32,32Zm0-62C15.46,2,2,15.46,2,32s13.46,30,30,30,30-13.46,30-30S48.54,2,32,2Z" fill="#fff"/><path d="m38.27,44.26c-.55,0-1-.45-1-1v-12.29c0-1.65-1.35-3-3-3h-8.55c-1.65,0-3,1.35-3,3.01s1.35,3,3.01,3c.55,0,1,.45,1,1v12.29c0,1.65,1.35,3,3,3h8.55c1.65,0,3-1.35,3-3.01s-1.35-3-3.01-3Zm.01,4.01h-8.55c-.55,0-1-.45-1-1v-12.29c0-1.65-1.35-3-3.01-3-.55,0-1-.45-1-1.01s.45-1,1.01-1h8.54c.55,0,1,.45,1,1v12.29c0,1.65,1.35,3,3.01,3,.55,0,1,.45,1,1.01s-.45,1-1,1Z" fill="#fff"/><path d="m32,24.27c2.91,0,5.27-2.36,5.27-5.27s-2.36-5.27-5.27-5.27-5.27,2.36-5.27,5.27,2.36,5.27,5.27,5.27Zm0-8.54c1.8,0,3.27,1.47,3.27,3.27s-1.47,3.27-3.27,3.27-3.27-1.47-3.27-3.27,1.47-3.27,3.27-3.27Z" fill="#fff"/></g></g></svg>