<?xml version="1.0" encoding="UTF-8"?><svg id="uuid-42eb9a64-9dad-4d4a-9287-538e09c97856" xmlns="http://www.w3.org/2000/svg" viewBox="0 0 64 64"><g id="uuid-6a0074ec-59b8-44b8-929a-f36bfe9e8c7b"><g id="uuid-30d7e644-80cc-451b-a16f-81c91b5d99c4"><path d="m56.09,11.41L45.17.85C44.61.3,43.87,0,43.08,0H10.01C8.35,0,7,1.35,7,3v58c0,1.65,1.35,3,3.01,3h43.99c1.66,0,3.01-1.35,3.01-3V13.56c0-.81-.33-1.59-.91-2.15Zm-10.88-7.74l8.58,8.3h-7.73c-.47,0-.85-.38-.85-.85V3.67Zm8.78,58.33H10.01c-.55,0-1.01-.45-1.01-1V3c0-.55.45-1,1.01-1h33.08s.09.02.13.02v9.09c0,1.57,1.28,2.85,2.85,2.85h8.94v47.04c0,.55-.45,1-1.01,1Z" fill="#fff"/><path d="m45.79,47.73h-26.54c-.55,0-1-.45-1-1s.45-1,1-1h26.54c.55,0,1,.45,1,1s-.45,1-1,1Zm0-7.25h-26.54c-.55,0-1-.45-1-1s.45-1,1-1h26.54c.55,0,1,.45,1,1s-.45,1-1,1Zm0-7.25h-26.54c-.55,0-1-.45-1-1s.45-1,1-1h26.54c.55,0,1,.45,1,1s-.45,1-1,1Zm0-7.25h-26.54c-.55,0-1-.45-1-1s.45-1,1-1h26.54c.55,0,1,.45,1,1s-.45,1-1,1Zm-9.03-7.5h-17.51c-.55,0-1-.45-1-1s.45-1,1-1h17.51c.55,0,1,.45,1,1s-.45,1-1,1Z" fill="#fff"/></g></g></svg>