<?xml version="1.0" encoding="UTF-8"?><svg id="uuid-d4f7d1bf-b713-4548-8765-05ed039d3909" xmlns="http://www.w3.org/2000/svg" viewBox="0 0 64 64"><g id="uuid-5e9c0d2a-ae32-4c1c-b2dc-3d35f7586bb0"><g id="uuid-d82054f7-049f-4bd7-8cf3-dfef138ad221"><path d="m57,0h-30c-1.1,0-2,.9-2,2v35.37c-1.82-.87-3.85-1.37-6-1.37-7.73,0-14,6.27-14,14s6.27,14,14,14c5.58,0,10.39-3.27,12.63-8h25.37c1.1,0,2-.9,2-2V2c0-1.1-.9-2-2-2Zm-26.7,54c-.25.7-.56,1.37-.92,2-2.08,3.58-5.95,6-10.38,6-6.62,0-12-5.38-12-12s5.38-12,12-12c2.19,0,4.23.6,6,1.62.72.42,1.39.91,2,1.46,2.45,2.2,4,5.38,4,8.92,0,1.4-.26,2.75-.7,4Zm26.7,0h-24.59c.38-1.27.59-2.61.59-4,0-4.76-2.38-8.95-6-11.48V12h30v42Zm0-44h-30V2h30v8Z"/><path d="m36,49h13c1.1,0,2-.9,2-2v-17c0-1.71-.72-3.26-1.87-4.35.53-.36.87-.97.87-1.65v-5c0-1.1-.9-2-2-2h-11c-1.1,0-2,.9-2,2v5c0,.69.35,1.29.87,1.65-1.15,1.09-1.87,2.64-1.87,4.35v17c0,1.1.9,2,2,2Zm1-30h11v5h-11v-5Zm-1,11c0-2.21,1.79-4,4-4h5c2.21,0,4,1.79,4,4v17h-13v-17Z"/></g></g></svg>