<?xml version="1.0" encoding="UTF-8"?><svg id="uuid-40e1158d-8fd0-4188-8048-18010197e4d4" xmlns="http://www.w3.org/2000/svg" viewBox="0 0 64 64"><g id="uuid-8d9a6db6-84a2-4967-8d00-015558c8d5d6"><g id="uuid-3caa313c-ef42-4fdf-bac6-2a4b03f76639"><path d="m63.46,30.62c-8.75-9.46-19.79-14.62-31.46-14.62S9.29,21.16.54,30.62c-.72.78-.72,1.98,0,2.76,8.75,9.46,19.79,14.62,31.46,14.62s22.71-5.16,31.46-14.62c.72-.78.72-1.98,0-2.76Zm-31.46,15.38h0c-7.72,0-14-6.28-14-14s6.28-14,14-14h0c7.72,0,14,6.28,14,14s-6.28,14-14,14Zm-27.96-12.59c-.76-.79-.76-2.02,0-2.82,5.29-5.53,11.5-9.34,18.18-11.23-3.78,2.93-6.22,7.5-6.22,12.64s2.45,9.71,6.22,12.64c-6.68-1.89-12.89-5.7-18.18-11.23Zm55.92,0c-5.29,5.53-11.5,9.34-18.18,11.23,3.78-2.93,6.22-7.5,6.22-12.64s-2.45-9.71-6.22-12.64c6.68,1.89,12.9,5.7,18.18,11.23.76.79.76,2.02,0,2.82Z"/><path d="m32,25c-3.86,0-7,3.14-7,7s3.14,7,7,7,7-3.14,7-7-3.14-7-7-7Zm0,11.9c-2.7,0-4.9-2.2-4.9-4.9s2.2-4.9,4.9-4.9,4.9,2.2,4.9,4.9-2.2,4.9-4.9,4.9Z"/></g></g></svg>