<?xml version="1.0" encoding="UTF-8"?><svg id="uuid-2424cb4f-e0ac-410a-ac40-b52ef46c4361" xmlns="http://www.w3.org/2000/svg" viewBox="0 0 64 64"><g id="uuid-60c95d96-49c2-4677-aad6-0da9ce241430"><g id="uuid-29c8fc2b-588d-4a21-84f2-11aa8ded3632"><path d="m49,60c-8.27,0-15-6.5-15-14.5s6.73-14.5,15-14.5,15,6.5,15,14.5-6.73,14.5-15,14.5Zm0-27c-7.17,0-13,5.61-13,12.5s5.83,12.5,13,12.5,13-5.61,13-12.5-5.83-12.5-13-12.5Z" fill="#fff"/><path d="m49.12,11.71L38.29.88c-.57-.57-1.32-.88-2.12-.88H3C1.35,0,0,1.35,0,3v58c0,1.65,1.35,3,3,3h44c.55,0,1-.45,1-1s-.45-1-1-1H3c-.55,0-1-.45-1-1V3c0-.55.45-1,1-1h33v10c0,1.1.9,2,2,2h10v14c0,.55.45,1,1,1s1-.45,1-1v-14.17c0-.8-.31-1.56-.88-2.12Zm-11.12-.71V3.41l8.59,8.59h-7.59c-.55,0-1-.45-1-1Z" fill="#fff"/><rect x="9" y="17" width="26" height="2" rx="1" ry="1" fill="#fff"/><rect x="9" y="24" width="26" height="2" rx="1" ry="1" fill="#fff"/><rect x="9" y="31" width="26" height="2" rx="1" ry="1" fill="#fff"/><rect x="9" y="38" width="21" height="2" rx="1" ry="1" fill="#fff"/><rect x="9" y="45" width="21" height="2" rx="1" ry="1" fill="#fff"/><path d="m55.67,41.26l-5.32-4.87c-.77-.71-1.93-.7-2.7,0l-5.33,4.87c-.41.37-.44,1.01-.06,1.41.37.41,1,.43,1.41.06l4.33-3.95v15.22c0,.55.45,1,1,1s1-.45,1-1v-15.22l4.33,3.95c.19.17.43.26.67.26.27,0,.54-.11.74-.33.37-.41.34-1.04-.06-1.41Z" fill="#fff"/></g></g></svg>