<?xml version="1.0" encoding="UTF-8"?><svg id="uuid-f0a84ead-1c2e-41d5-bf74-c429c4696bba" xmlns="http://www.w3.org/2000/svg" viewBox="0 0 64 64"><g id="uuid-2000ab88-1db1-4962-b1d2-4bbb1101b752"><g id="uuid-98b60add-cbc5-4c20-bfe6-8b97ee88c43c"><path d="m23.38,57c-.12,0-.25-.02-.37-.07-.44-.18-.7-.64-.61-1.11l3.32-18.56-10.58,1.52c-.39.05-.78-.12-.99-.45-.21-.33-.21-.76,0-1.09L33.78,7.45c.26-.4.77-.55,1.21-.38.44.18.7.64.61,1.1l-3.32,18.56,10.57-1.52c.39-.06.78.12.99.45.21.33.21.76,0,1.09l-19.62,29.79c-.19.29-.51.45-.83.45Zm3.57-21.92c.27,0,.53.11.72.31.22.23.32.55.26.87l-2.71,15.13,15.72-23.87-9.74,1.4c-.33.04-.64-.06-.86-.29-.22-.23-.32-.55-.27-.87l2.7-15.14-15.72,23.87,9.75-1.4s.1,0,.14,0Z"/><path d="m20,49H3C1.35,49,0,47.65,0,46v-28C0,16.35,1.35,15,3,15h20c.55,0,1,.45,1,1s-.45,1-1,1H3c-.55,0-1,.45-1,1v28c0,.55.45,1,1,1h17c.55,0,1,.45,1,1s-.45,1-1,1Z"/><path d="m62,24h-4v-6c0-1.65-1.35-3-3-3h-17c-.55,0-1,.45-1,1s.45,1,1,1h17c.55,0,1,.45,1,1v28c0,.55-.45,1-1,1h-21c-.55,0-1,.45-1,1s.45,1,1,1h21c1.65,0,3-1.35,3-3v-6h4c1.1,0,2-.9,2-2v-12c0-1.1-.9-2-2-2Zm0,13c0,.55-.45,1-1,1h-3v-12h3c.55,0,1,.45,1,1v10Z"/></g></g></svg>