<?xml version="1.0" encoding="UTF-8"?><svg id="uuid-fdc83bc3-5bac-4783-988b-38ee8d557f70" xmlns="http://www.w3.org/2000/svg" viewBox="0 0 64 64"><g id="uuid-bdcebea7-4bad-41e7-9ca0-c5e211871090"><g id="uuid-a1eadad3-b673-4f67-a718-cf7014515e62"><path d="m51.59,62h-2.5s0,0,0,0v-17.05c0-.47-.18-.91-.51-1.24-.33-.33-.77-.51-1.24-.51h-30.5c-.47,0-.91.18-1.24.52-.33.33-.51.77-.51,1.24v17.05s0,0,0,0h-2.5c-.55,0-1,.45-1,1s.45,1,1,1h39c.55,0,1-.45,1-1s-.45-1-1-1Zm-34.5-16.8h30v16.55h-30v-16.55Z"/><path d="m31.64,50.47c-1.65,0-3,1.35-3,3s1.35,3.01,3,3.01,3-1.35,3-3.01-1.35-3-3-3Zm0,4.01c-.55,0-1-.45-1-1.01s.45-1,1-1,1,.45,1,1-.45,1.01-1,1.01Z"/><path d="m63.38,52.33c-6.17-11.35-18.23-18.39-31.45-18.39S6.84,40.87.63,52.04c-.27.48-.09,1.09.39,1.36.48.27,1.09.09,1.36-.39,5.86-10.54,17.19-17.08,29.55-17.08s23.88,6.65,29.7,17.35c.18.33.52.52.88.52.16,0,.33-.04.48-.12.48-.26.66-.87.4-1.36Z"/><path d="m32.09,31.62c8.7,0,15.77-7.09,15.77-15.81S40.79,0,32.09,0s-15.77,7.09-15.77,15.81,7.08,15.81,15.77,15.81Zm0-29.62c7.59,0,13.77,6.2,13.77,13.81s-6.18,13.81-13.77,13.81-13.77-6.2-13.77-13.81,6.18-13.81,13.77-13.81Z"/></g></g></svg>