<?xml version="1.0" encoding="UTF-8"?><svg id="uuid-dc888604-ba77-4c92-a0b8-c5f82cd702d0" xmlns="http://www.w3.org/2000/svg" viewBox="0 0 64 64"><g id="uuid-dd7e2c55-b897-4604-84a0-8232e2d3307f"><g id="uuid-2224f3f1-ed44-4f4d-b866-3ba20fc82157"><path d="m39.31,34.72c-2.27-.42-4.6-.63-6.93-.63-13.49,0-25.85,7.11-32.25,18.55-.27.48-.1,1.09.38,1.36.15.09.32.13.49.13.35,0,.69-.18.87-.51,6.05-10.81,17.75-17.53,30.51-17.53,2.21,0,4.42.2,6.56.6.54.1,1.06-.26,1.17-.8s-.26-1.06-.8-1.17Z"/><path d="m31.85,0c-8.74,0-15.85,7.09-15.85,15.8s7.11,15.8,15.85,15.8,15.85-7.09,15.85-15.8S40.59,0,31.85,0Zm0,29.59c-7.64,0-13.85-6.19-13.85-13.8S24.22,2,31.85,2s13.85,6.19,13.85,13.8-6.21,13.8-13.85,13.8Z"/><path d="m49.68,35.45c-7.9,0-14.32,6.4-14.32,14.27s6.42,14.27,14.32,14.27,14.32-6.4,14.32-14.27-6.42-14.27-14.32-14.27Zm0,26.55c-6.79,0-12.32-5.51-12.32-12.27s5.53-12.27,12.32-12.27,12.32,5.51,12.32,12.27-5.53,12.27-12.32,12.27Z"/><path d="m57.72,42.73l-.62-.14c-.88-.19-1.82-.19-2.7.01-1.12.26-2.15.83-2.97,1.64-.73.73-1.25,1.63-1.54,2.61-.29-.98-.81-1.88-1.54-2.61-.82-.82-1.85-1.38-2.97-1.64-.89-.2-1.82-.21-2.7-.01l-.62.14-.14.62c-.19.88-.19,1.82.01,2.7.26,1.12.83,2.15,1.65,2.97.83.83,1.87,1.38,2.98,1.6.36.07.72.1,1.08.1.41,0,.83-.06,1.26-.15v4.37h-3.42c-.55,0-1,.45-1,1s.45,1,1,1h8.85c.55,0,1-.45,1-1s-.45-1-1-1h-3.42v-4.21c.32.05.64.08.97.08.46,0,.93-.05,1.38-.16,1.13-.26,2.16-.82,2.98-1.64s1.39-1.84,1.65-2.97c.2-.88.21-1.81.01-2.7l-.14-.62Zm-10.8,5.92c-.72-.14-1.4-.5-1.95-1.05-.55-.55-.94-1.24-1.11-2-.09-.38-.12-.76-.1-1.15.39-.02.78.01,1.16.1.76.17,1.45.56,2.01,1.11.53.53.91,1.2,1.09,1.92.09.36.13.73.12,1.1-.42.05-.83.04-1.22-.03Zm8.98-3.05c-.17.76-.56,1.45-1.11,2-.55.55-1.25.94-2.01,1.11-.38.09-.77.12-1.16.1-.02-.38.01-.77.1-1.15.17-.75.56-1.45,1.11-2,.55-.55,1.25-.94,2.01-1.11.38-.08.77-.12,1.16-.1.02.39-.01.77-.1,1.15Z"/></g></g></svg>