<?xml version="1.0" encoding="UTF-8"?><svg id="uuid-5213fe7a-291e-4ca1-82fa-9089675f62b8" xmlns="http://www.w3.org/2000/svg" viewBox="0 0 64 64"><g id="uuid-9b40be28-e072-4277-8098-dd081587d3bb"><g id="uuid-551e2d66-d560-4024-a2a2-5a38f19f03d4"><path d="m56.09,11.41L45.17.84C44.61.3,43.87,0,43.08,0H10.01C8.35,0,7,1.35,7,3v58c0,1.65,1.35,3,3.01,3h43.99c1.66,0,3.01-1.35,3.01-3V13.56c0-.81-.33-1.59-.91-2.15Zm-10.88-7.74l8.58,8.3h-7.73c-.47,0-.85-.38-.85-.85V3.67Zm8.78,58.34H10.01c-.55,0-1.01-.45-1.01-1V3c0-.55.45-1,1.01-1h33.08s.09.02.13.02v9.09c0,1.57,1.28,2.85,2.85,2.85h8.94v47.04c0,.55-.45,1-1.01,1Z"/><path d="m46.31,44.35h-18.51c-.55,0-1,.45-1,1s.45,1,1,1h18.51c.55,0,1-.45,1-1s-.45-1-1-1Z"/><path d="m27.79,21.1h18.51c.55,0,1-.45,1-1s-.45-1-1-1h-18.51c-.55,0-1,.45-1,1s.45,1,1,1Z"/><path d="m46.31,31.85h-18.51c-.55,0-1,.45-1,1s.45,1,1,1h18.51c.55,0,1-.45,1-1s-.45-1-1-1Z"/><path d="m22.52,17.09l-2.87,2.86-1.25-1.24c-.39-.39-1.02-.39-1.41,0-.39.39-.39,1.02,0,1.41l1.66,1.65c.28.28.64.41,1,.41s.73-.14,1-.41l3.28-3.27c.39-.39.39-1.02,0-1.41-.39-.39-1.02-.39-1.41,0Z"/><path d="m22.52,29.59l-2.87,2.86-1.25-1.24c-.39-.39-1.02-.39-1.41,0-.39.39-.39,1.02,0,1.41l1.66,1.65c.28.28.64.41,1,.41s.73-.14,1-.41l3.28-3.27c.39-.39.39-1.02,0-1.41-.39-.39-1.02-.39-1.41,0Z"/><path d="m22.52,42.09l-2.87,2.86-1.25-1.24c-.39-.39-1.02-.39-1.41,0-.39.39-.39,1.02,0,1.41l1.66,1.65c.28.28.64.41,1,.41s.73-.14,1-.41l3.28-3.27c.39-.39.39-1.02,0-1.41-.39-.39-1.02-.39-1.41,0Z"/></g></g></svg>