<?xml version="1.0" encoding="UTF-8"?><svg id="uuid-974e701c-a406-4bb7-9e1a-2ed8c777f203" xmlns="http://www.w3.org/2000/svg" viewBox="0 0 64 64"><g id="uuid-252e114f-dfac-445b-b89f-c018ecf3e1d4"><g id="uuid-eb8cac09-aa08-4827-906f-edf5b77706e5"><path d="m40.11,35.88c.1-.54-.26-1.06-.8-1.16-2.27-.42-4.6-.63-6.93-.63-13.49,0-25.85,7.11-32.25,18.55-.27.48-.1,1.09.38,1.36.15.09.32.13.49.13.35,0,.69-.18.87-.51,6.05-10.81,17.74-17.53,30.51-17.53,2.21,0,4.42.2,6.57.6.54.11,1.06-.26,1.16-.8Z"/><path d="m31.85,31.59c8.74,0,15.85-7.09,15.85-15.8S40.59,0,31.85,0s-15.85,7.09-15.85,15.8,7.11,15.8,15.85,15.8Zm0-29.59c7.64,0,13.85,6.19,13.85,13.8s-6.21,13.8-13.85,13.8-13.85-6.19-13.85-13.8S24.22,2,31.85,2Z"/><path d="m49.68,35.45c-7.9,0-14.32,6.4-14.32,14.27s6.42,14.27,14.32,14.27,14.32-6.4,14.32-14.27-6.42-14.27-14.32-14.27Zm-12.32,14.27c0-6.77,5.53-12.27,12.32-12.27,3.18,0,6.07,1.22,8.26,3.19l-5.17,5.17,1.59-3.49c.28-.62.23-1.34-.14-1.91-.37-.57-1-.92-1.68-.92h-4.72c-.83,0-1.59.53-1.88,1.31l-3.25,8.86c-.22.61-.14,1.3.24,1.83.37.54.99.85,1.64.85h1.66l-5.64,5.64c-2-2.18-3.24-5.08-3.24-8.26Zm11.68.63h-4.46s3.25-8.86,3.25-8.86h4.72l-3,6.58h5.25l-6.36,9.88,1.89-7.6h-1.28Zm.64,11.65c-2.88,0-5.52-1-7.62-2.65l5.26-5.26-.84,3.38c-.24.97.23,1.92,1.15,2.32.27.12.54.17.81.17.66,0,1.28-.33,1.66-.92l6.36-9.88c.4-.62.42-1.4.07-2.04-.27-.5-.74-.84-1.27-.98l4.04-4.04c1.68,2.1,2.68,4.75,2.68,7.63,0,6.77-5.53,12.27-12.32,12.27Z"/></g></g></svg>