<?xml version="1.0" encoding="UTF-8"?><svg id="uuid-1b6272ac-e33f-4adb-99ac-8318515a8e73" xmlns="http://www.w3.org/2000/svg" viewBox="0 0 64 64"><g id="uuid-4a287970-4aea-4263-bd7f-ff2702b1286b"><g id="uuid-2e6206a2-1812-4362-b0f9-d2b626328789"><path d="m25.33,45.57H8.41c-.55,0-1,.45-1,1s.45,1,1,1h16.92c.55,0,1-.45,1-1s-.45-1-1-1Z" fill="#fff"/><path d="m20.74,51.57h-12.33c-.55,0-1,.45-1,1s.45,1,1,1h12.33c.55,0,1-.45,1-1s-.45-1-1-1Z" fill="#fff"/><path d="m56.32,45.57h-16.92c-.55,0-1,.45-1,1s.45,1,1,1h16.92c.55,0,1-.45,1-1s-.45-1-1-1Z" fill="#fff"/><path d="m51.72,51.57h-12.33c-.55,0-1,.45-1,1s.45,1,1,1h12.33c.55,0,1-.45,1-1s-.45-1-1-1Z" fill="#fff"/><path d="m23.54,22.68h16.92c.55,0,1-.45,1-1s-.45-1-1-1h-16.92c-.55,0-1,.45-1,1s.45,1,1,1Z" fill="#fff"/><path d="m35.86,26.68h-12.33c-.55,0-1,.45-1,1s.45,1,1,1h12.33c.55,0,1-.45,1-1s-.45-1-1-1Z" fill="#fff"/><path d="m64,36.63l-5.07-9.87c-.1-.27-.35-.6-.93-.76-.26-.07-.57-.11-.9-.11h-8.6v-13.03c0-.3-.09-.58-.23-.83,0-.01,0-.03,0-.04v-.24l-5.07-9.87c-.1-.27-.34-.6-.92-.76-.26-.07-.57-.11-.91-.11h-18.75c-.34,0-.65.04-.91.11-.58.16-.83.49-.93.76l-5.07,9.87v.24s0,.02,0,.04c-.14.25-.23.53-.23.83v13.03H6.9c-.33,0-.64.04-.91.11-.58.16-.83.49-.93.76L0,36.63v.24c0,.08.01.23.08.41C.03,37.42,0,37.58,0,37.73v23.66c0,.5.25.95.7,1.26.33.23.76.35,1.2.35h60.19c.44,0,.87-.13,1.2-.35.45-.3.7-.76.7-1.26v-23.66c0-.16-.03-.31-.08-.46.07-.17.08-.33.08-.41v-.24Zm-6.9-8.75c.06,0,.12,0,.16,0l4.23,8.24h-13v-8.25h8.6Zm-39.6,8.25V13.24h29v22.89h-29ZM41.54,3l4.23,8.25h-12.77V2.99h8.37c.06,0,.12,0,.16,0Zm-19.08,0s.1,0,.17,0h8.37v8.25h-12.77l4.23-8.25ZM6.74,27.88s.1,0,.16,0h8.6v8.25H2.5l4.23-8.24Zm-4.74,10.24h29v22.89H2v-22.89Zm60,22.89h-29v-22.89h29v22.89Z" fill="#fff"/></g></g></svg>