<?xml version="1.0" encoding="UTF-8"?><svg id="uuid-38d744b0-6284-4742-a154-e6646ff5cd49" xmlns="http://www.w3.org/2000/svg" viewBox="0 0 64 64"><g id="uuid-5c15aa0c-d607-4155-aacc-b4196d4945bc"><g id="uuid-386b9f73-b2b8-476d-9fed-a6014b435844"><path d="m15.68,28.39c-.67,0-1.21.54-1.21,1.21v6.03c0,.67.54,1.21,1.21,1.21s1.21-.54,1.21-1.21v-6.03c0-.67-.54-1.21-1.21-1.21Z" fill="#fff"/><path d="m24.85,12.7c-.67,0-1.21.54-1.21,1.21v21.72c0,.67.54,1.21,1.21,1.21s1.21-.54,1.21-1.21V13.9c0-.67-.54-1.21-1.21-1.21Z" fill="#fff"/><path d="m34.01,21.14c-.67,0-1.21.54-1.21,1.21v13.28c0,.67.54,1.21,1.21,1.21s1.21-.54,1.21-1.21v-13.28c0-.67-.54-1.21-1.21-1.21Z" fill="#fff"/><path d="m62.28,54.11l-16.41-16.2c2.41-3.81,3.82-8.31,3.82-13.14C49.69,11.11,38.55,0,24.85,0S0,11.11,0,24.77s11.15,24.77,24.85,24.77c4.79,0,9.24-1.38,13.04-3.72l-.29.29,16.42,16.21c1.14,1.12,2.64,1.69,4.13,1.69s2.99-.56,4.13-1.69c1.11-1.1,1.72-2.55,1.72-4.1s-.61-3.01-1.72-4.1ZM2.42,24.77C2.42,12.44,12.48,2.42,24.85,2.42s22.43,10.03,22.43,22.35-10.06,22.35-22.43,22.35S2.42,37.09,2.42,24.77Zm58.17,35.83c-1.34,1.33-3.53,1.33-4.87,0l-16.13-15.93c1.84-1.36,3.48-2.95,4.88-4.75l16.12,15.92c.65.64,1,1.48,1,2.38s-.36,1.75-1,2.38Z" fill="#fff"/></g></g></svg>