<?xml version="1.0" encoding="UTF-8"?><svg id="uuid-35884c85-1c80-4198-9491-6db6d8658c0b" xmlns="http://www.w3.org/2000/svg" viewBox="0 0 64 64"><g id="uuid-1c73a226-aa59-4877-b5be-7d2c89cc8d23"><g id="uuid-9ff39cc7-32e9-4184-a296-ed11379b6cd3"><path d="m13.31,15.48h-6.82c-.54,0-.97-.43-.97-.97s.43-.97.97-.97h6.82c.09,0,.17-.08.17-.17v-6.85c0-.54.43-.97.97-.97s.97.43.97.97v6.85c0,1.16-.94,2.11-2.11,2.11Z" fill="#fff"/><path d="m51.78,64c-.79,0-1.52-.31-2.08-.86L14.21,27.47l13.43-13.5,35.5,35.68c1.14,1.15,1.14,3.01,0,4.16l-9.29,9.33c-.55.56-1.29.86-2.08.86ZM16.95,27.47l34.13,34.3c.38.38,1.03.38,1.4,0l9.29-9.33c.39-.39.39-1.03,0-1.42L27.65,16.71l-10.7,10.75Z" fill="#fff"/><path d="m58.57,63.24c-.79,0-1.52-.31-2.08-.86l-1.55-1.56,5.89-5.92,1.56,1.57c1.14,1.15,1.14,3.02,0,4.16l-1.75,1.76c-.55.56-1.29.86-2.08.86Zm-.89-2.43l.19.19c.38.38,1.03.38,1.4,0l1.75-1.76c.39-.39.39-1.03,0-1.43l-.19-.19-3.16,3.17Z" fill="#fff"/><path d="m29.91,14.58l-15.08,15.16c-.42.42-1.1.42-1.52,0h0c-.42-.42-.42-1.09,0-1.51l15.08-15.16c.42-.42,1.1-.42,1.52,0h0c.42.42.42,1.09,0,1.51Z" fill="#fff"/><polygon points="60.07 47.93 48.01 60.06 46.5 58.54 58.57 46.42 60.07 47.93" fill="#fff"/><polygon points="56.3 44.14 44.24 56.27 42.73 54.75 54.8 42.63 56.3 44.14" fill="#fff"/><path d="m23.12,13.82l-9.05,9.1c-.42.42-1.1.42-1.52,0h0c-.42-.42-.42-1.09,0-1.51l9.05-9.1c.42-.42,1.1-.42,1.52,0h0c.42.42.42,1.09,0,1.51Z" fill="#fff"/><polygon points="21.61 19.89 20.1 21.4 17.84 19.13 19.35 17.61 21.61 19.89" fill="#fff"/><path d="m14.17,15.2c-.25,0-.5-.1-.69-.29L.28,1.65c-.38-.38-.38-.99,0-1.37.38-.38.99-.38,1.37,0l13.2,13.26c.38.38.38.99,0,1.37-.19.19-.44.28-.68.28Z" fill="#fff"/></g></g></svg>