<?xml version="1.0" encoding="UTF-8"?><svg id="uuid-ae076ff2-4cce-46ae-ab53-0f67ef1da1e3" xmlns="http://www.w3.org/2000/svg" viewBox="0 0 64 64"><g id="uuid-421766cb-3fde-408e-94c7-64b5e482cbdd"><g id="uuid-da8a784e-9bae-4442-a85c-24a899f3f22c"><path d="m36.27,22.8v-2.25c0-.62-.5-1.12-1.12-1.12s-1.12.5-1.12,1.12v2.25c0,.62-.5,1.12-1.12,1.12h-2.25c-.62,0-1.12-.5-1.12-1.12v-2.25c0-.62-.5-1.12-1.12-1.12s-1.12.5-1.12,1.12v2.25c0,1.86,1.51,3.38,3.38,3.38h2.25c1.86,0,3.38-1.51,3.38-3.38Zm4.5-4.5v-2.25c0-1.86-1.51-3.38-3.38-3.38h-2.25c-.62,0-1.12.5-1.12,1.12s.5,1.12,1.12,1.12h2.25c.62,0,1.12.5,1.12,1.12v2.25c0,.62-.5,1.12-1.12,1.12h-2.25c-.62,0-1.12.5-1.12,1.12s.5,1.12,1.12,1.12h2.25c1.86,0,3.38-1.51,3.38-3.38Zm-4.5-4.5v-2.25c0-1.86-1.51-3.38-3.38-3.38h-2.25c-1.86,0-3.38,1.51-3.38,3.38v2.25c0,.62.5,1.12,1.12,1.12s1.12-.5,1.12-1.12v-2.25c0-.62.5-1.12,1.12-1.12h2.25c.62,0,1.12.5,1.12,1.12v2.25c0,.62.5,1.12,1.12,1.12s1.12-.5,1.12-1.12Zm-6.75,6.75c0-.62-.5-1.12-1.12-1.12h-2.25c-.62,0-1.12-.5-1.12-1.12v-2.25c0-.62.5-1.12,1.12-1.12h2.25c.62,0,1.12-.5,1.12-1.12s-.5-1.12-1.12-1.12h-2.25c-1.86,0-3.38,1.51-3.38,3.38v2.25c0,1.86,1.51,3.38,3.38,3.38h2.25c.62,0,1.12-.5,1.12-1.12Z"/><path d="m60.77,26.31h-14v-6h14c1.65,0,3,1.35,3,3s-1.35,3-3,3Zm-12-2h12c.55,0,1-.45,1-1s-.45-1-1-1h-12v2Zm-32,2H2.77c-1.65,0-3-1.35-3-3s1.35-3,3-3h14v6Zm-14-4c-.55,0-1,.45-1,1s.45,1,1,1h12v-2H2.77Zm35,42h-12v-17c0-1.65,1.35-3,3-3h6c1.65,0,3,1.35,3,3v17Zm-10-2h8v-15c0-.55-.45-1-1-1h-6c-.55,0-1,.45-1,1v15Zm30,2h-11V24.31h14v37c0,1.65-1.35,3-3,3Zm-9-2h9c.55,0,1-.45,1-1V26.31h-10v36Zm-32,2H5.77c-1.65,0-3-1.35-3-3V24.31h14v40ZM4.77,26.31v35c0,.55.45,1,1,1h9V26.31H4.77Zm44,38H14.77V3.31c0-1.65,1.35-3,3-3h28c1.65,0,3,1.35,3,3v61Zm-32-2h30V3.31c0-.55-.45-1-1-1h-28c-.55,0-1,.45-1,1v59Z"/></g></g></svg>