<?xml version="1.0" encoding="UTF-8"?><svg id="uuid-70c06ed8-0aa7-4762-bcbe-241bd05ef8b6" xmlns="http://www.w3.org/2000/svg" viewBox="0 0 64 64"><g id="uuid-f2d21d59-945a-43f6-ae0a-0357ece8ab4a"><g id="uuid-302a8c30-c270-416b-8d01-e823bac8b293"><path d="m32.83,58h-11.67c-.64,0-1.17.45-1.17,1s.52,1,1.17,1h11.67c.64,0,1.17-.45,1.17-1s-.52-1-1.17-1Z"/><path d="m45,58h-7c-.55,0-1,.45-1,1s.45,1,1,1h7c.55,0,1-.45,1-1s-.45-1-1-1Z"/><path d="m52,58h-2c-.55,0-1,.45-1,1s.45,1,1,1h2c.55,0,1-.45,1-1s-.45-1-1-1Z"/><path d="m63.71,62.31l-23.57-23.57,23.32-25.03c.75-.8.72-2.05-.05-2.82l-6.3-6.3c-.4-.4-.91-.59-1.43-.59s-1.05.2-1.44.61l-23.87,24.35L1.69.29C1.3-.1.68-.1.29.29H.29C-.1.68-.1,1.3.29,1.69l62.02,62.02c.39.39,1.01.39,1.4,0,.39-.39.39-1.01,0-1.4ZM55.67,6.03s0,0,0,0l6.3,6.3-7.35,7.89-6.49-6.49,7.54-7.69Zm-8.94,9.12l6.53,6.53-6.35,6.82-6.69-6.69,6.52-6.65Zm-14.94,15.24l7.02-7.16,6.73,6.73-6.84,7.34-6.91-6.91Z"/><path d="m36.4,39.78h0s-.51-.51-.51-.51l-.63-.63c-.76-.76-1.78-1.18-2.86-1.18s-2.1.42-2.86,1.19l-4.64,4.65-1.43,1.43,1.43,1.43,3.58,3.6c-8.13,7.24-16.69,8.2-23.47,8.21l24.43-25.16-1.43-1.43L0,60h4.66c6.34,0,16.32-.85,25.16-8.72.87-.78.91-2.14.09-2.96l-3.58-3.59,4.64-4.65c.4-.4.91-.59,1.43-.59s1.04.2,1.43.59l1.14,1.14c.4.4.91.59,1.43.59s1.04-.2,1.43-.6l-1.43-1.43Z"/></g></g></svg>