<?xml version="1.0" encoding="UTF-8"?><svg id="uuid-e6c718ad-5960-45a9-9472-7b740118ee32" xmlns="http://www.w3.org/2000/svg" viewBox="0 0 64 64"><g id="uuid-618dffca-4188-449b-a3bb-8637377df711"><path id="uuid-c0f2bc2c-e832-488e-8c8d-c9e733cae2da" d="m32,5c-14.89,0-27,12.11-27,27s12.11,27,27,27,27-12.11,27-27S46.89,5,32,5Zm0,52c-13.79,0-25-11.21-25-25S18.21,7,32,7s25,11.21,25,25-11.21,25-25,25Zm20-25c0,4.58-1.51,8.89-4.38,12.47-.2.25-.49.38-.78.38-.22,0-.44-.07-.62-.22-.43-.34-.5-.97-.16-1.41,2.58-3.22,3.94-7.1,3.94-11.22s-1.39-8.08-4.01-11.31c-.35-.43-.28-1.06.15-1.41.43-.35,1.06-.28,1.41.15,2.87,3.54,4.46,8.01,4.46,12.57Zm-33.99,11.31c.35.43.28,1.06-.15,1.41-.19.15-.41.22-.63.22-.29,0-.58-.13-.78-.37-2.87-3.55-4.45-8.01-4.45-12.57s1.51-8.88,4.38-12.47c.34-.43.97-.5,1.41-.16.43.34.5.97.16,1.41-2.58,3.23-3.94,7.1-3.94,11.22s1.39,8.07,4.01,11.31Zm14.99-20.31c0,.55-.45,1-1,1s-1-.45-1-1,.45-1,1-1,1,.45,1,1Zm1.4.66c0-.55.45-1,1-1s1,.45,1,1-.45,1-1,1-1-.45-1-1Zm-1.4-10.66c0,.55-.45,1-1,1s-1-.45-1-1,.45-1,1-1,1,.45,1,1Zm0,5c0,.55-.45,1-1,1s-1-.45-1-1,.45-1,1-1,1,.45,1,1Zm9.47,21.68c1.66-2.25,2.53-4.91,2.53-7.68s-.9-5.5-2.6-7.77c-.33-.44-.24-1.07.2-1.4.44-.33,1.07-.24,1.4.2,1.96,2.62,3,5.72,3,8.97s-1.01,6.27-2.92,8.87c-.2.27-.5.41-.81.41-.21,0-.41-.06-.59-.19-.44-.33-.54-.95-.21-1.4Zm-20.93-15.35c-1.66,2.25-2.54,4.91-2.54,7.67s.9,5.49,2.61,7.76c.33.44.24,1.07-.2,1.4-.18.13-.39.2-.6.2-.3,0-.6-.14-.8-.4-1.97-2.62-3.01-5.72-3.01-8.96s1.01-6.25,2.93-8.86c.33-.44.95-.54,1.4-.21.44.33.54.95.21,1.4Zm18.92,2.35c1.01,1.6,1.54,3.44,1.54,5.32s-.51,3.62-1.47,5.2c-.19.31-.52.48-.85.48-.18,0-.36-.05-.52-.15-.47-.29-.62-.9-.33-1.38.77-1.26,1.18-2.7,1.18-4.16s-.43-2.97-1.23-4.25c-.29-.47-.15-1.08.31-1.38.47-.29,1.09-.15,1.38.31Zm-16.91,10.63c-1.01-1.61-1.55-3.44-1.55-5.31s.51-3.62,1.47-5.2c.29-.47.91-.62,1.38-.33.47.29.62.9.33,1.38-.77,1.26-1.18,2.69-1.18,4.15s.43,2.96,1.24,4.24c.29.47.16,1.08-.31,1.38-.17.1-.35.15-.53.15-.33,0-.66-.17-.85-.47Zm6.05-13.65c0,.55-.45,1-1,1s-1-.45-1-1,.45-1,1-1,1,.45,1,1Zm-3.61-3.78c0,.55-.45,1-1,1s-1-.45-1-1,.45-1,1-1,1,.45,1,1Zm2.5-2.44c.55,0,1,.45,1,1s-.45,1-1,1-1-.45-1-1,.45-1,1-1Zm6,1c0-.55.45-1,1-1s1,.45,1,1-.45,1-1,1-1-.45-1-1Zm-11.24-3.81c0-.55.45-1,1-1s1,.45,1,1-.45,1-1,1-1-.45-1-1Zm14.74,5.24c0-.55.45-1,1-1s1,.45,1,1-.45,1-1,1-1-.45-1-1Zm.73-5.24c0-.55.45-1,1-1s1,.45,1,1-.45,1-1,1-1-.45-1-1Zm-1.78-1.23c0,.55-.45,1-1,1s-1-.45-1-1,.45-1,1-1,1,.45,1,1Zm-9.91,0c0-.55.45-1,1-1s1,.45,1,1-.45,1-1,1-1-.45-1-1Zm5.95,37.59c0,.55-.45,1-1,1s-1-.45-1-1,.45-1,1-1,1,.45,1,1Zm-3.95-.41c0,.55-.45,1-1,1s-1-.45-1-1,.45-1,1-1,1,.45,1,1Zm-7.22-33.97c0,.55-.45,1-1,1s-1-.45-1-1,.45-1,1-1,1,.45,1,1Zm20.35,0c0-.55.45-1,1-1s1,.45,1,1-.45,1-1,1-1-.45-1-1Zm-9.18,24.38c0,.55-.45,1-1,1s-1-.45-1-1,.45-1,1-1,1,.45,1,1Zm1.4-.66c0-.55.45-1,1-1s1,.45,1,1-.45,1-1,1-1-.45-1-1Zm-1.4,5.66c0,.55-.45,1-1,1s-1-.45-1-1,.45-1,1-1,1,.45,1,1Zm-3.4-5.66c0,.55-.45,1-1,1s-1-.45-1-1,.45-1,1-1,1,.45,1,1Zm-3.61,3.78c0,.55-.45,1-1,1s-1-.45-1-1,.45-1,1-1,1,.45,1,1Zm3.5,1.44c0,.55-.45,1-1,1s-1-.45-1-1,.45-1,1-1,1,.45,1,1Zm6,1c-.55,0-1-.45-1-1s.45-1,1-1,1,.45,1,1-.45,1-1,1Zm-10.24,2.81c0,.55-.45,1-1,1s-1-.45-1-1,.45-1,1-1,1,.45,1,1Zm13.74-4.24c-.55,0-1-.45-1-1s.45-1,1-1,1,.45,1,1-.45,1-1,1Zm1.73,4.24c0,.55-.45,1-1,1s-1-.45-1-1,.45-1,1-1,1,.45,1,1Zm-3.78,1.23c0,.55-.45,1-1,1s-1-.45-1-1,.45-1,1-1,1,.45,1,1Zm-15.13-3.22c0,.55-.45,1-1,1s-1-.45-1-1,.45-1,1-1,1,.45,1,1Zm22.35,0c0,.55-.45,1-1,1s-1-.45-1-1,.45-1,1-1,1,.45,1,1Z" fill="#fff"/></g></svg>