<?xml version="1.0" encoding="UTF-8"?><svg id="uuid-c92df729-fd23-4700-9774-f27a33314d48" xmlns="http://www.w3.org/2000/svg" viewBox="0 0 64 64"><g id="uuid-35a91753-debc-4ef7-b561-7315210f9335"><path id="uuid-f3c944f2-8254-468d-8b21-24321cc1c6d0" d="m62.3,22.54l-28.08-4.87c-1.25-.22-3.2-.22-4.45,0L1.7,22.54C1.28,22.61,0,22.83,0,23.89c0,.54.33.86.72,1.06v15.5c0,.56.46,1.02,1.04,1.02s1.04-.45,1.04-1.02v-15.02l7.73,1.32v12.78c0,1.6,1.26,3.11,2.86,3.44l16.38,3.34c.63.13,1.44.19,2.24.19s1.61-.06,2.24-.19l16.38-3.34c1.6-.33,2.86-1.84,2.86-3.44v-12.71l8.83-1.56c.42-.07,1.7-.3,1.7-1.36,0-1.06-1.28-1.28-1.7-1.35Zm-10.9,16.99c0,.63-.57,1.32-1.21,1.45l-16.38,3.34c-.97.2-2.67.2-3.64,0l-16.38-3.34c-.63-.13-1.21-.82-1.21-1.45v-12.42l17.72,3.03c.61.1,1.39.16,2.17.16s1.64-.06,2.27-.17l16.64-2.94v12.35Zm-17.01-11.41c-1.01.18-2.71.18-3.72.01l-24.84-4.24,24.31-4.22c1.01-.17,2.72-.17,3.72,0l24.41,4.24-23.88,4.21Z" fill="#fff"/></g></svg>