<?xml version="1.0" encoding="UTF-8"?><svg id="uuid-ae521697-00ac-4085-9455-80c1da274c24" xmlns="http://www.w3.org/2000/svg" viewBox="0 0 64 64"><g id="uuid-3c459f7e-f3fc-4138-973f-d9be2fbbed82"><g id="uuid-52d9a4eb-ff2a-468f-bad9-d9c8f792564d"><path d="m63.45,8.57c-.36-.37-.84-.57-1.35-.57H1.9c-.51,0-.99.2-1.35.58C.2,8.94,0,9.43,0,9.94v35.88C0,46.33.2,46.81.55,47.18c.36.37.84.57,1.35.57h21.06v6.23h-4.87c-.55,0-1,.45-1,1.01s.45,1.01,1,1.01h27.83c.55,0,1-.45,1-1.01s-.45-1.01-1-1.01h-4.87v-6.23h21.06c.51,0,.99-.2,1.35-.57.36-.37.55-.85.55-1.36V9.94c0-.51-.2-1-.55-1.36Zm-1.45,1.45v27.82H2V10.02h60Zm-22.96,43.96h-14.08v-6.23h14.08v6.23ZM2,45.73v-5.87h60v5.87H2Z"/><path d="m28.87,31.02c.07,0,.14.01.2.01.35,0,.68-.11.96-.32l7.84-4.95s.06-.04.09-.06c.11-.08.2-.18.28-.29.55-.72.43-1.78-.28-2.35-.03-.02-.06-.05-.09-.07l-7.84-4.95c-.28-.21-.62-.32-.97-.32-.91,0-1.65.75-1.65,1.68v9.95c0,.37.12.74.35,1.03.27.36.66.58,1.1.64Zm.55-10.98l6.87,4.34-6.87,4.34v-8.68Z"/></g></g></svg>