<?xml version="1.0" encoding="UTF-8"?><svg id="uuid-7eacaea8-6638-47a0-b318-056d5abe5e01" xmlns="http://www.w3.org/2000/svg" viewBox="0 0 64 64"><g id="uuid-22f297f4-8a3c-43ac-8f86-d6e44f883fc2"><g id="uuid-7253f7c1-5481-4b53-afb9-05eda817bf47"><path d="m11.03,20.06h17.95c.57,0,1.03-.45,1.03-1s-.46-1-1.03-1H11.03c-.57,0-1.03.45-1.03,1s.46,1,1.03,1Z" fill="#fff"/><path d="m11,27.05h14c.24,0,.47-.09.65-.25,0,0,.02-.01.02-.02.67-.61.26-1.72-.65-1.72h-14.02c-.55,0-1,.45-1,1s.45,1,1,1Z" fill="#fff"/><path d="m19.87,39.03h-8.74c-.62,0-1.13.45-1.13,1s.5,1,1.13,1h8.74c.62,0,1.13-.45,1.13-1s-.51-1-1.13-1Z" fill="#fff"/><path d="m20.91,46.63c-.15-.37-.5-.61-.88-.61h-9.06c-.53,0-.97.45-.97,1s.43,1,.97,1h9.07c.68,0,1.15-.72.88-1.37,0,0,0-.01,0-.02Z" fill="#fff"/><path d="m10.99,34.04h9.02c.41,0,.76-.26.91-.64,0,0,0-.01,0-.02.25-.64-.22-1.34-.91-1.34h-9.02c-.55,0-.99.45-.99,1s.44,1,.99,1Z" fill="#fff"/><path d="m62.69,56.35l-9.65-9.64c1.25-2.28,1.97-4.89,1.97-7.68,0-4.56-1.93-8.67-5-11.58v-13.91c0-.81-.33-1.59-.91-2.15L38.17.84c-.56-.54-1.31-.84-2.09-.84H3.01C1.35,0,0,1.34,0,3v57.92c0,1.65,1.35,3,3.01,3h43.99c1.66,0,3.01-1.34,3.01-3v-4.57l6.34,6.33c.88.87,2.02,1.31,3.17,1.31s2.3-.44,3.17-1.31c1.75-1.75,1.75-4.59,0-6.33Zm-9.69-17.32c0,7.71-6.28,13.98-14,13.98s-14-6.27-14-13.98,6.28-13.98,14-13.98,14,6.27,14,13.98ZM38.21,3.66l8.58,8.29h-7.73c-.47,0-.85-.38-.85-.84V3.66Zm9.79,57.26c0,.55-.45,1-1.01,1H3.01c-.55,0-1.01-.45-1.01-1V3c0-.55.45-1,1.01-1h33.08s.09.02.13.02v9.08c0,1.57,1.28,2.84,2.85,2.84h8.94v11.88c-2.56-1.75-5.66-2.77-9-2.77-8.84,0-16,7.15-16,15.98s7.16,15.98,16,15.98c2.79,0,5.41-.71,7.69-1.97l1.31,1.31v6.56Zm13.27.36c-.47.47-1.09.73-1.76.73s-1.29-.26-1.76-.73l-9.35-9.34c1.35-.98,2.53-2.16,3.51-3.51l9.35,9.34c.47.47.73,1.09.73,1.76s-.26,1.29-.73,1.76Z" fill="#fff"/></g></g></svg>