<?xml version="1.0" encoding="UTF-8"?><svg id="uuid-93cb8338-20a8-4c87-a2c3-0e93a63a90c7" xmlns="http://www.w3.org/2000/svg" viewBox="0 0 64 64"><g id="uuid-2e368c87-4b80-44f9-a1ed-795e8ee11229"><g id="uuid-80fa4b56-2345-4497-bbec-187477cc2221"><path d="m63.71,31.29l-8-8c-.39-.39-1.02-.39-1.41,0s-.39,1.02,0,1.41l6.29,6.29h-21.59c-.55,0-1,.45-1,1s.45,1,1,1h21.59l-6.29,6.29c-.39.39-.39,1.02,0,1.41.2.2.45.29.71.29s.51-.1.71-.29l8-8c.39-.39.39-1.02,0-1.41Z" fill="#fff"/><path d="m25,31H3.41l6.29-6.29c.39-.39.39-1.02,0-1.41s-1.02-.39-1.41,0L.29,31.29c-.39.39-.39,1.02,0,1.41l8,8c.2.2.45.29.71.29s.51-.1.71-.29c.39-.39.39-1.02,0-1.41l-6.29-6.29h21.59c.55,0,1-.45,1-1s-.45-1-1-1Z" fill="#fff"/><path d="m32,64c-.55,0-1-.45-1-1V1c0-.55.45-1,1-1s1,.45,1,1v62c0,.55-.45,1-1,1Z" fill="#fff"/></g></g></svg>