<?xml version="1.0" encoding="UTF-8"?><svg id="uuid-90e5c972-51f6-4a2f-b90d-90a8454f630b" xmlns="http://www.w3.org/2000/svg" viewBox="0 0 64 64"><g id="uuid-695aee91-6df9-4c86-bb61-77ad62f8c99f"><g id="uuid-0a0cc52b-c9cd-4670-8f5f-c33376e346e2"><path d="m1.79,60s-.09,0-.14,0c-.47-.04-.9-.25-1.21-.61C.15,59.06,0,58.65,0,58.22V5.78C0,5.3.19,4.85.53,4.52c.33-.33.78-.52,1.26-.52h60.43c.48,0,.92.18,1.26.52.34.33.52.78.52,1.26v40.38c0,.48-.19.92-.53,1.26-.33.33-.78.52-1.26.52H17.57c-.57,0-1.12.2-1.56.57l-13.07,11.08c-.32.27-.73.42-1.15.42Zm.21-54v51.75l12.72-10.78c.79-.67,1.81-1.04,2.85-1.04h44.43V6H2Z"/><path d="m18.83,21.28c-2.39,0-4.33,1.93-4.33,4.3s1.94,4.3,4.33,4.3,4.33-1.93,4.33-4.3-1.94-4.3-4.33-4.3Zm0,6.61c-1.29,0-2.33-1.03-2.33-2.3s1.05-2.3,2.33-2.3,2.33,1.03,2.33,2.3-1.05,2.3-2.33,2.3Z"/><path d="m32,21.28c-2.39,0-4.33,1.93-4.33,4.3s1.94,4.3,4.33,4.3,4.33-1.93,4.33-4.3-1.94-4.3-4.33-4.3Zm0,6.61c-1.29,0-2.33-1.03-2.33-2.3s1.05-2.3,2.33-2.3,2.33,1.03,2.33,2.3-1.05,2.3-2.33,2.3Z"/><path d="m45.17,21.28c-2.39,0-4.33,1.93-4.33,4.3s1.94,4.3,4.33,4.3,4.33-1.93,4.33-4.3-1.94-4.3-4.33-4.3Zm0,6.61c-1.29,0-2.33-1.03-2.33-2.3s1.05-2.3,2.33-2.3,2.33,1.03,2.33,2.3-1.05,2.3-2.33,2.3Z"/></g></g></svg>