<?xml version="1.0" encoding="UTF-8"?><svg id="uuid-3282b497-678f-4ab4-b60f-57f0d8cd8b7a" xmlns="http://www.w3.org/2000/svg" viewBox="0 0 64 64"><g id="uuid-069d441c-b21a-41f5-8e23-9a7b0ba41540"><path id="uuid-7ac38edc-52d5-4d44-838f-dd93af1c96b2" d="m61.06,18.87h-13.5v-6.87c0-1.65-1.35-3-3-3h-25.13c-1.65,0-3,1.35-3,3v6.87H2.94C1.32,18.87,0,20.13,0,21.68v30.5C0,53.74,1.32,55,2.94,55h58.12c1.62,0,2.94-1.26,2.94-2.81v-30.5c0-1.55-1.32-2.81-2.94-2.81Zm-42.63-6.87c0-.55.45-1,1-1h25.13c.55,0,1,.45,1,1v6.87h-27.13v-6.87Zm43.57,40.19c0,.45-.42.81-.94.81H2.94c-.52,0-.94-.37-.94-.81v-30.5c0-.45.42-.81.94-.81h58.12c.52,0,.94.36.94.81v30.5Z" fill="#fff"/></g></svg>