<?xml version="1.0" encoding="UTF-8"?><svg id="uuid-4609eee5-b48a-40c0-a399-4fd84af3980f" xmlns="http://www.w3.org/2000/svg" viewBox="0 0 64 64"><g id="uuid-84066d75-a657-492f-9a78-466c49916317"><g id="uuid-1b0bff1c-b1a6-4fd0-aa8a-a230d4efc885"><path d="m49.74,49c-2.51,0-4.7-.97-6.46-2.84-1.76,1.87-3.95,2.84-6.46,2.84s-4.7-.97-6.46-2.84c-1.75,1.86-3.94,2.83-6.44,2.84h0s-.02,0-.03,0c-2.5,0-4.68-.98-6.44-2.84-1.76,1.87-3.95,2.84-6.46,2.84-.55,0-1-.45-1-1s.45-1,1-1c2.05,0,3.79-.82,5.21-2.43-.16-.25-.32-.5-.47-.77-4.37-7.65-3.55-22.27-.73-27.05.69-1.16,1.5-1.75,2.42-1.75.02,0,.04,0,.06,0,.94,0,1.75.59,2.44,1.75,2.82,4.78,3.64,19.4-.73,27.05-.15.27-.31.52-.47.77,1.42,1.61,3.16,2.42,5.2,2.43,2.04,0,3.78-.82,5.2-2.43-.16-.25-.32-.5-.47-.77-4.37-7.65-3.55-22.27-.73-27.05.69-1.17,1.5-1.75,2.42-1.75.02,0,.04,0,.06,0,.94,0,1.75.59,2.44,1.75,2.82,4.78,3.64,19.4-.73,27.05-.15.27-.31.52-.47.77,1.42,1.61,3.16,2.43,5.21,2.43s3.79-.82,5.21-2.43c-.16-.25-.32-.5-.47-.77-4.37-7.65-3.55-22.27-.73-27.05.69-1.18,1.52-1.74,2.45-1.75.93,0,1.77.58,2.47,1.75,2.82,4.78,3.64,19.4-.73,27.05-.15.27-.31.52-.47.77,1.42,1.61,3.16,2.43,5.21,2.43,6.39,0,8.34-7.85,8.93-12.51.09-.74.73-1.3,1.48-1.3h2.84c.55,0,1,.45,1,1s-.45,1-1,1h-1.97c-.25,0-.45.18-.49.43-1.29,8.52-5.2,13.38-10.79,13.38Zm-6.43-32c-.12,0-.39.14-.77.77-2.33,3.95-3.43,17.71.73,25.02,4.16-7.31,3.06-21.07.73-25.02-.37-.63-.65-.77-.7-.77h0Zm-25.82,0c-.12,0-.39.14-.77.77-2.32,3.95-3.43,17.71.73,25.02,4.16-7.31,3.06-21.07.73-25.02-.37-.63-.65-.77-.7-.77h0Zm12.9,0c-.12,0-.39.14-.77.77-2.33,3.95-3.43,17.71.73,25.02,4.16-7.31,3.06-21.07.73-25.02-.37-.63-.65-.77-.7-.77h0Z"/><path d="m20.95,64c-.13,0-.26-.03-.39-.08C8.07,58.65,0,46.64,0,33.31,0,14.94,15.25,0,33.99,0c4.65,0,9.16.91,13.4,2.69.51.21.75.8.53,1.31-.21.51-.8.75-1.31.53-4-1.68-8.25-2.54-12.63-2.54C16.35,2,2,16.05,2,33.31c0,12.52,7.59,23.81,19.34,28.77.51.21.75.8.53,1.31-.16.38-.53.61-.92.61Z"/></g></g></svg>