<?xml version="1.0" encoding="UTF-8"?><svg id="a" xmlns="http://www.w3.org/2000/svg" viewBox="0 0 18 18"><g id="b"><path d="M16.81,10.29l-.96-.89c0-.13,.01-.26,.01-.39s0-.26-.01-.39l.97-.9c.51-.48,.68-1.2,.44-1.84-.15-.41-.33-.81-.55-1.22l-.15-.26c-.22-.37-.47-.74-.76-1.1-.44-.54-1.16-.75-1.83-.53l-1.22,.4c-.2-.13-.41-.26-.64-.37l-.28-1.31c-.15-.69-.69-1.21-1.37-1.33C9.5-.02,8.5-.02,7.54,.15c-.68,.12-1.21,.64-1.37,1.33l-.28,1.3c-.22,.11-.44,.24-.64,.38l-1.22-.4c-.67-.22-1.39-.01-1.84,.54-.28,.35-.53,.71-.77,1.11l-.15,.27c-.21,.38-.39,.79-.54,1.21-.23,.64-.06,1.36,.45,1.84l.96,.89c0,.13-.01,.26-.01,.39s0,.26,.01,.39l-.96,.9c-.51,.48-.69,1.2-.45,1.84,.15,.42,.34,.82,.55,1.22l.15,.26c.22,.37,.47,.74,.76,1.1,.44,.54,1.16,.75,1.83,.53l1.22-.4c.21,.14,.42,.26,.64,.38l.28,1.3c.14,.63,.63,1.13,1.37,1.33,.48,.08,.96,.12,1.44,.12,.51,0,1-.04,1.58-.14,.65-.17,1.13-.67,1.27-1.31l.28-1.3c.22-.12,.44-.24,.64-.37l1.22,.4c.67,.21,1.38,0,1.83-.54,.28-.35,.54-.72,.76-1.11l.16-.27c.21-.39,.39-.8,.53-1.19,.24-.64,.07-1.36-.45-1.85Zm-2.99-1.95c.03,.22,.04,.44,.04,.66s-.01,.44-.04,.66l-.07,.51,1.56,1.45c-.1,.25-.22,.5-.34,.73l-.14,.24c-.13,.23-.29,.46-.45,.68l-2-.65-.42,.33c-.31,.24-.7,.47-1.14,.67l-.46,.21-.45,2.08c-.59,.08-1.29,.08-1.83,0l-.45-2.1-.48-.2c-.4-.17-.78-.39-1.12-.66l-.42-.33-2,.65c-.17-.22-.32-.45-.45-.66l-.13-.24c-.13-.24-.25-.49-.35-.75l1.56-1.45-.07-.51c-.03-.22-.04-.44-.04-.66s.01-.45,.04-.66l.07-.51-1.56-1.45c.1-.26,.22-.51,.34-.74l.13-.24c.14-.23,.29-.46,.45-.68l2.01,.65,.42-.33c.34-.27,.71-.49,1.11-.66l.48-.2,.45-2.1c.6-.08,1.23-.08,1.83,0l.45,2.09,.46,.21c.43,.19,.82,.42,1.13,.67l.42,.33,2-.65c.17,.22,.32,.44,.45,.66l.13,.23c.13,.25,.25,.5,.35,.75l-1.56,1.45,.07,.51Z"/><circle cx="9" cy="9" r="1.97"/></g></svg>