<?xml version="1.0" encoding="UTF-8"?><svg id="uuid-1e0e4606-bddb-42c1-9f37-972354f14324" xmlns="http://www.w3.org/2000/svg" width="18" height="18" viewBox="0 0 18 18"><path d="m15,18H3c-1.65,0-3-1.35-3-3V3C0,1.35,1.35,0,3,0h12c1.65,0,3,1.35,3,3v12c0,1.65-1.35,3-3,3ZM3,2c-.55,0-1,.45-1,1v12c0,.55.45,1,1,1h12c.55,0,1-.45,1-1V3c0-.55-.45-1-1-1H3Z"/><path d="m9,13c-2.21,0-4-1.79-4-4s1.79-4,4-4,4,1.79,4,4-1.79,4-4,4Zm0-6c-1.1,0-2,.9-2,2s.9,2,2,2,2-.9,2-2-.9-2-2-2Z"/><circle cx="13" cy="4" r="1"/></svg>