<?xml version="1.0" encoding="UTF-8"?><svg id="a" xmlns="http://www.w3.org/2000/svg" viewBox="0 0 18 18"><g id="b"><path d="M16.07,5.03c-.49-.26-1.1-.08-1.36,.41-.26,.49-.08,1.1,.41,1.36,.42,.23,.87,1.08,.87,2.2s-.45,1.97-.87,2.2c-.49,.26-.67,.87-.41,1.36,.18,.34,.53,.53,.88,.53,.16,0,.32-.04,.48-.12,1.17-.63,1.93-2.19,1.93-3.97s-.76-3.33-1.93-3.97Z"/><path d="M13.67,6.27c-.48-.26-1.07-.08-1.34,.4-.27,.48-.09,1.09,.39,1.37,.08,.05,.31,.37,.31,.97s-.23,.92-.31,.97c-.48,.27-.65,.89-.39,1.37,.18,.33,.52,.52,.87,.52,.16,0,.32-.04,.47-.12,.83-.45,1.37-1.52,1.37-2.73s-.54-2.28-1.37-2.73Z"/><circle cx="5.7" cy="14.28" r="1.25"/><path d="M6.76,2.82h-2.12c-.55,0-1,.45-1,1s.45,1,1,1h2.12c.55,0,1-.45,1-1s-.45-1-1-1Z"/><path d="M8.95,0H2.45C1.1,0,0,1.1,0,2.45V15.55c0,1.35,1.1,2.45,2.45,2.45h6.5c1.35,0,2.45-1.1,2.45-2.45V2.45c0-1.35-1.1-2.45-2.45-2.45Zm.44,15.55c0,.24-.2,.44-.44,.44H2.45c-.24,0-.44-.2-.44-.44V2.45c0-.24,.2-.44,.44-.44h6.5c.24,0,.44,.2,.44,.44V15.55Z"/></g></svg>