<?xml version="1.0" encoding="UTF-8"?><svg id="uuid-54238dca-9168-4de8-bdaa-e36ba3ab9d83" xmlns="http://www.w3.org/2000/svg" viewBox="0 0 64 64"><g id="uuid-ca3059c2-a639-4451-b051-ff540e0d6f69"><g id="uuid-5e6a909c-573c-4785-9ab3-6dadc948dcef"><path d="m49.68,35.45c-7.9,0-14.32,6.4-14.32,14.27s6.42,14.27,14.32,14.27,14.32-6.4,14.32-14.27-6.42-14.27-14.32-14.27Zm0,26.55c-6.79,0-12.32-5.51-12.32-12.27s5.53-12.27,12.32-12.27,12.32,5.51,12.32,12.27-5.53,12.27-12.32,12.27Z"/><path d="m56.21,48.73h-.85c-.15-.84-.48-1.62-.96-2.3l.6-.6c.39-.39.39-1.02,0-1.41-.39-.39-1.02-.39-1.41,0l-.6.6c-.68-.48-1.46-.81-2.31-.96v-.85c0-.55-.45-1-1-1s-1,.45-1,1v.85c-.85.15-1.63.48-2.31.96l-.6-.6c-.39-.39-1.02-.39-1.41,0-.39.39-.39,1.02,0,1.41l.6.6c-.48.67-.81,1.46-.96,2.3h-.85c-.55,0-1,.45-1,1s.45,1,1,1h.85c.15.84.48,1.62.96,2.3l-.6.6c-.39.39-.39,1.02,0,1.41.2.2.45.29.71.29s.51-.1.71-.29l.6-.6c.68.48,1.46.81,2.31.96v.85c0,.55.45,1,1,1s1-.45,1-1v-.85c.85-.15,1.63-.48,2.31-.96l.6.6c.2.19.45.29.71.29s.51-.1.71-.29c.39-.39.39-1.02,0-1.41l-.6-.6c.47-.67.81-1.45.96-2.3h.85c.55,0,1-.45,1-1s-.45-1-1-1Zm-6.53-2.76c2.08,0,3.77,1.69,3.77,3.76s-1.69,3.76-3.77,3.76-3.77-1.69-3.77-3.76,1.69-3.76,3.77-3.76Z"/><path d="m39.31,34.72c-2.27-.42-4.6-.63-6.93-.63-13.49,0-25.85,7.11-32.25,18.55-.27.48-.1,1.09.38,1.36.15.09.32.13.49.13.35,0,.69-.18.87-.51,6.05-10.81,17.74-17.53,30.51-17.53,2.21,0,4.42.2,6.57.6.54.1,1.06-.26,1.16-.8s-.26-1.06-.8-1.16Z"/><path d="m31.85,0C23.12,0,16.01,7.09,16.01,15.8s7.11,15.8,15.85,15.8,15.85-7.09,15.85-15.8S40.59,0,31.85,0Zm0,29.59c-7.64,0-13.85-6.19-13.85-13.8S24.22,2,31.85,2s13.85,6.19,13.85,13.8-6.21,13.8-13.85,13.8Z"/></g></g></svg>