<?xml version="1.0" encoding="UTF-8"?><svg id="uuid-0c496c39-ec14-4608-9c02-662353d44624" xmlns="http://www.w3.org/2000/svg" xmlns:xlink="http://www.w3.org/1999/xlink" viewBox="0 0 64 64"><defs><linearGradient id="uuid-fdbd1c92-8919-44d8-9e46-8862bff71652" x1="18.38" y1="20.64" x2="46.6" y2="40.4" gradientUnits="userSpaceOnUse"><stop offset="0" stop-color="#3485fe"/><stop offset="1" stop-color="#b3f"/></linearGradient></defs><g id="uuid-b3ee5a62-1d14-43b4-b1fc-b6cba30801a4"><g id="uuid-a951419d-b5fb-49ff-9cb0-b514dd9bb44a"><path d="m56.09,11.41L45.17.84c-.56-.54-1.3-.84-2.09-.84H10.01c-1.66,0-3.01,1.35-3.01,3v58c0,1.65,1.35,3,3.01,3h43.99c1.66,0,3.01-1.35,3.01-3V13.56c0-.81-.33-1.59-.91-2.15Zm-10.88-7.74l8.58,8.3h-7.73c-.47,0-.85-.38-.85-.85V3.67Zm8.78,58.33H10.01c-.55,0-1.01-.45-1.01-1V3c0-.55.45-1,1.01-1h33.08s.09.02.13.02v9.09c0,1.57,1.28,2.85,2.85,2.85h8.94v47.04c0,.55-.45,1-1.01,1Z" fill="#fff"/><path d="m32.05,50.23s-.08,0-.13,0c-.64-.06-.96-.54-.96-1.41v-17.49l-1.06,2.05c-.42.82-1.43,1.43-2.35,1.43h-2.34c-.16,0-.45.18-.51.33l-2.41,5.19c-.45.96-1.08.98-1.42.9-.34-.07-.91-.36-.91-1.42v-11.92l-1.07,5.14c-.21,1-1.17,1.77-2.18,1.77h-2.71c-.55,0-1-.45-1-1s.45-1,1-1h2.71c.08,0,.21-.11.23-.18l2.85-13.65c.22-1.06.79-1.23,1.23-1.19.44.04.96.33.96,1.41v17.08l.93-1.99c.39-.85,1.39-1.49,2.33-1.49h2.34c.17,0,.49-.19.57-.35l2.49-4.83c.49-.96,1.17-.91,1.45-.85.27.07.9.33.9,1.42v11.68l1.08-5.29c.2-1,1.16-1.78,2.18-1.78h2.34c.08,0,.22-.11.24-.19l2.98-13.65c.23-1.06.8-1.22,1.23-1.18.44.05.96.33.96,1.41v17.27l1.07-2.2c.41-.83,1.41-1.46,2.34-1.46h2.63c.55,0,1,.45,1,1s-.45,1-1,1h-2.63c-.17,0-.46.19-.54.34l-2.53,5.21c-.48.98-1.16.94-1.43.88s-.9-.33-.9-1.42v-12.34l-1.22,5.57c-.21.99-1.18,1.76-2.19,1.76h-2.34c-.08,0-.2.11-.22.18l-2.86,14.04c-.16.8-.53,1.2-1.09,1.2Z" fill="url(#uuid-fdbd1c92-8919-44d8-9e46-8862bff71652)"/></g></g></svg>