<?xml version="1.0" encoding="UTF-8"?><svg id="uuid-2869f5a7-2de8-45c7-9f9f-530cae542f80" xmlns="http://www.w3.org/2000/svg" xmlns:xlink="http://www.w3.org/1999/xlink" viewBox="0 0 64 64"><defs><linearGradient id="uuid-838488ea-e6e8-469a-b326-cbb408cf7273" x1="17.67" y1="27" x2="22.33" y2="27" gradientUnits="userSpaceOnUse"><stop offset="0" stop-color="#3485fe"/><stop offset="1" stop-color="#b3f"/></linearGradient><linearGradient id="uuid-d35d9d48-ad4b-4e15-89a4-a0a51f1897d5" x1="11.83" y1="27" x2="28.17" y2="27" xlink:href="#uuid-838488ea-e6e8-469a-b326-cbb408cf7273"/><linearGradient id="uuid-48fdad4b-9d60-4b2b-aa27-56023ee82630" x1="6" y1="27" x2="34" y2="27" xlink:href="#uuid-838488ea-e6e8-469a-b326-cbb408cf7273"/></defs><g id="uuid-675f1083-4ef8-42f3-b91a-305f472a61f4"><g id="uuid-a5380015-b6b8-4eb2-a6ea-82c20d7a85c2"><path d="m58.68,8.13c-3.07,0-5.16,2.14-12.51,2.14s-19.94-2.27-25.88-2.27C8.69,8,0,15.38,0,29.53,0,40.41,6.78,56,12.69,56c5.14,0,6.63-2.91,10.39-7.13,4.27-4.8,7.34-7.13,11.54-8.15,4.2-1.02,8.25-3.86,10.49-7.13,2.1-3.06,5.25-4.69,6.3-5.09,5.25-2.04,11.54-5.09,12.55-14.51.41-3.83-2.35-5.86-5.28-5.86Zm3.29,5.65c-.87,8.16-6.05,10.82-11.28,12.85-1.63.63-4.99,2.57-7.22,5.82-2.03,2.96-5.69,5.44-9.32,6.32-5.06,1.23-8.56,4.26-12.56,8.76-.61.69-1.16,1.34-1.68,1.95-2.62,3.1-3.82,4.51-7.22,4.51-1.52,0-4.19-2.47-6.75-8-2.43-5.26-3.94-11.57-3.94-16.48,0-12.23,6.84-19.53,18.29-19.53,2.7,0,6.93.5,11.41,1.03,5.15.61,10.48,1.24,14.46,1.24,4.77,0,7.54-.87,9.57-1.5,1.19-.37,2.04-.64,2.94-.64,1.06,0,2.01.38,2.61,1.04.57.64.8,1.51.69,2.61Z"/><path d="m20.09,24.67c-1.29,0-2.42.97-2.42,2.29s1.04,2.38,2.33,2.38,2.33-1.07,2.33-2.38-.95-2.29-2.24-2.29Z" fill="url(#uuid-838488ea-e6e8-469a-b326-cbb408cf7273)"/><path d="m20.31,18.83c-4.51,0-8.48,3.41-8.48,8.01s3.66,8.33,8.17,8.33,8.17-3.73,8.17-8.33-3.34-8.01-7.85-8.01Zm-.31,14.33c-3.4,0-6.17-2.84-6.17-6.33s2.91-6.01,6.48-6.01,5.85,2.53,5.85,6.01-2.77,6.33-6.17,6.33Z" fill="url(#uuid-d35d9d48-ad4b-4e15-89a4-a0a51f1897d5)"/><path d="m20.54,13c-7.73,0-14.54,5.84-14.54,13.73s6.27,14.27,14,14.27,14-6.39,14-14.27-5.73-13.73-13.46-13.73Zm-.54,26c-6.62,0-12-5.51-12-12.27s5.62-11.73,12.54-11.73,11.46,4.93,11.46,11.73-5.38,12.27-12,12.27Z" fill="url(#uuid-48fdad4b-9d60-4b2b-aa27-56023ee82630)"/></g></g></svg>