<?xml version="1.0" encoding="UTF-8"?><svg id="uuid-abb3ee3e-adc5-4cc2-9b79-08119f5b0a32" xmlns="http://www.w3.org/2000/svg" xmlns:xlink="http://www.w3.org/1999/xlink" viewBox="0 0 64 64"><defs><linearGradient id="uuid-b414db00-9d3b-44be-b5fa-2cd0c0a8a19e" x1="17.54" y1="30.45" x2="43.49" y2="48.61" gradientUnits="userSpaceOnUse"><stop offset="0" stop-color="#3485fe"/><stop offset="1" stop-color="#b3f"/></linearGradient><linearGradient id="uuid-f9ea1491-2c7a-435c-bf11-21e431258599" x1="16.61" y1="28.61" x2="45.59" y2="48.91" xlink:href="#uuid-b414db00-9d3b-44be-b5fa-2cd0c0a8a19e"/></defs><g id="uuid-8661d153-ce00-4c09-a8fc-db16ac6e04af"><g id="uuid-0d7d7854-07ea-4f42-a4c3-7676992efda9"><path d="m61.06,8.51h-11.2v-3.22c0-.55-.45-1-1-1s-1,.45-1,1v3.22h-30.88v-3.51c0-.55-.45-1-1-1s-1,.45-1,1v3.51H2.94c-1.62,0-2.94,1.51-2.94,3.36v44.78c0,1.85,1.32,3.36,2.94,3.36h58.12c1.62,0,2.94-1.51,2.94-3.36V11.87c0-1.85-1.32-3.36-2.94-3.36ZM2.94,10.51h12.05v3.51c0,.55.45,1,1,1s1-.45,1-1v-3.51h30.88v3.7c0,.55.45,1,1,1s1-.45,1-1v-3.7h11.2c.51,0,.94.62.94,1.36v8.5H2v-8.5c0-.74.43-1.36.94-1.36Zm58.12,47.49H2.94c-.51,0-.94-.62-.94-1.36V22.37h60v34.28c0,.72-.44,1.36-.94,1.36Z"/><path d="m32,27.25c-7.36,0-13.35,5.98-13.35,13.32s5.99,13.32,13.35,13.32,13.35-5.98,13.35-13.32-5.99-13.32-13.35-13.32Zm0,24.64c-6.26,0-11.35-5.08-11.35-11.32s5.09-11.32,11.35-11.32,11.35,5.08,11.35,11.32-5.09,11.32-11.35,11.32Z" fill="url(#uuid-b414db00-9d3b-44be-b5fa-2cd0c0a8a19e)"/><path d="m38.13,36.25l-7.92,7.89-3.99-3.98c-.39-.39-1.02-.39-1.41,0-.39.39-.39,1.02,0,1.41l3.99,3.98c.39.39.91.59,1.42.59s1.03-.2,1.42-.59l7.91-7.89c.39-.39.39-1.02,0-1.41-.39-.39-1.02-.39-1.41,0Z" fill="url(#uuid-f9ea1491-2c7a-435c-bf11-21e431258599)"/></g></g></svg>