<?xml version="1.0" encoding="UTF-8"?><svg id="uuid-f12c41f7-b44d-45d4-8b3f-99495f875941" xmlns="http://www.w3.org/2000/svg" xmlns:xlink="http://www.w3.org/1999/xlink" viewBox="0 0 64 64"><defs><linearGradient id="uuid-d20683fd-136c-4b1f-96bc-e50f4c0c6bb1" x1="26" y1="32" x2="60" y2="32" gradientUnits="userSpaceOnUse"><stop offset="0" stop-color="#3485fe"/><stop offset="1" stop-color="#b3f"/></linearGradient></defs><g id="uuid-56795a35-7936-4565-ae4b-39b40319d2b5"><g id="uuid-987603d3-994a-4411-83a5-cacd615ababc"><path d="m29,26H5c-.55,0-1-.45-1-1s.45-1,1-1h24c.55,0,1,.45,1,1s-.45,1-1,1Z" fill="#fff"/><path d="m37,40H13c-.55,0-1-.45-1-1s.45-1,1-1h24c.55,0,1,.45,1,1s-.45,1-1,1Z" fill="#fff"/><path d="m59.92,32.38c.1-.24.1-.52,0-.76-.05-.12-.12-.23-.22-.33l-8-8c-.39-.39-1.02-.39-1.41,0s-.39,1.02,0,1.41l6.29,6.29h-29.59c-.55,0-1,.45-1,1s.45,1,1,1h29.59l-6.29,6.29c-.39.39-.39,1.02,0,1.41.2.2.45.29.71.29s.51-.1.71-.29l8-8c.09-.09.17-.2.22-.33Z" fill="url(#uuid-d20683fd-136c-4b1f-96bc-e50f4c0c6bb1)"/><path d="m63,48H1c-.55,0-1-.45-1-1s.45-1,1-1h62c.55,0,1,.45,1,1s-.45,1-1,1Z" fill="#fff"/><path d="m63,18H1c-.55,0-1-.45-1-1s.45-1,1-1h62c.55,0,1,.45,1,1s-.45,1-1,1Z" fill="#fff"/></g></g></svg>