<?xml version="1.0" encoding="UTF-8"?><svg id="uuid-ce2a518a-ab39-4464-9cbd-c97f3ec856e6" xmlns="http://www.w3.org/2000/svg" xmlns:xlink="http://www.w3.org/1999/xlink" viewBox="0 0 64 64"><defs><linearGradient id="uuid-bd41eb36-d713-42a3-bed9-80b28b62db44" x1="-.14" y1="24.22" x2="14.8" y2="34.67" gradientUnits="userSpaceOnUse"><stop offset="0" stop-color="#3485fe"/><stop offset="1" stop-color="#b3f"/></linearGradient><linearGradient id="uuid-bc155ab1-bba1-488d-ac22-799de7557f1f" x1="-3.06" y1="25.68" x2="11.61" y2="35.95" xlink:href="#uuid-bd41eb36-d713-42a3-bed9-80b28b62db44"/><linearGradient id="uuid-1bc74715-299f-43a6-a27d-810e70c8563b" x1="44.43" y1="25.98" x2="62.54" y2="38.67" xlink:href="#uuid-bd41eb36-d713-42a3-bed9-80b28b62db44"/><linearGradient id="uuid-4d58f803-452a-4381-81bc-26cbcdb65b56" x1="47.2" y1="24.41" x2="65.08" y2="36.94" xlink:href="#uuid-bd41eb36-d713-42a3-bed9-80b28b62db44"/></defs><g id="uuid-0ecaec5b-27e1-470d-8709-fcd7389d2dd1"><g id="uuid-c12a83c2-5344-4288-91c6-c8458416308c"><path d="m11.48,26.28c.49-.26.67-.87.41-1.35-.26-.49-.87-.67-1.35-.41-2.14,1.16-3.53,4.09-3.53,7.48s1.38,6.32,3.52,7.48c.15.08.31.12.47.12.36,0,.7-.19.88-.52.26-.49.08-1.09-.4-1.35-1.46-.79-2.48-3.14-2.48-5.72s1.02-4.93,2.48-5.72Z" fill="url(#uuid-bd41eb36-d713-42a3-bed9-80b28b62db44)"/><path d="m6.48,21.88c.49-.26.67-.87.41-1.35-.26-.49-.87-.67-1.35-.41-3.31,1.78-5.53,6.56-5.53,11.88s2.22,10.1,5.52,11.88c.15.08.31.12.47.12.36,0,.7-.19.88-.52.26-.49.08-1.09-.4-1.35-2.68-1.44-4.48-5.51-4.48-10.12s1.8-8.68,4.48-10.12Z" fill="url(#uuid-bc155ab1-bba1-488d-ac22-799de7557f1f)"/><path d="m53.47,24.52c-.49-.26-1.09-.08-1.35.4-.26.49-.08,1.09.4,1.35,1.46.79,2.48,3.14,2.48,5.72s-1.02,4.93-2.48,5.72c-.49.26-.67.87-.41,1.35.18.34.52.53.88.53.16,0,.32-.04.47-.12,2.14-1.16,3.53-4.09,3.53-7.48s-1.38-6.32-3.52-7.48Z" fill="url(#uuid-1bc74715-299f-43a6-a27d-810e70c8563b)"/><path d="m58.48,20.12c-.49-.26-1.09-.08-1.35.4-.26.49-.08,1.09.4,1.35,2.68,1.44,4.48,5.51,4.48,10.12s-1.8,8.68-4.48,10.12c-.49.26-.67.87-.41,1.35.18.33.53.53.88.53.16,0,.32-.04.47-.12,3.31-1.78,5.53-6.56,5.53-11.88s-2.22-10.1-5.52-11.88Z" fill="url(#uuid-4d58f803-452a-4381-81bc-26cbcdb65b56)"/><path d="m44.53,2.5h-25.06c-1.57,0-2.86,1.35-2.86,3v53c0,1.65,1.28,3,2.86,3h25.06c1.57,0,2.86-1.35,2.86-3V5.5c0-1.65-1.28-3-2.86-3Zm-25.06,2h25.06c.47,0,.86.45.86,1v4.5h-26.77v-4.5c0-.55.38-1,.86-1Zm25.91,7.5v36.5h-26.77V12h26.77Zm-.86,47.5h-25.06c-.47,0-.86-.45-.86-1v-8h26.77v8c0,.55-.38,1-.86,1Z" fill="#fff" fill-rule="evenodd"/><circle cx="32" cy="54.97" r="2" fill="#fff"/></g></g></svg>