<?xml version="1.0" encoding="UTF-8"?><svg id="uuid-202fb858-4395-4362-bdb3-96921d3e014c" xmlns="http://www.w3.org/2000/svg" viewBox="0 0 64 64"><g id="uuid-a1b0902c-3cad-479f-92b7-f0d04584a2c6"><g id="uuid-05efe738-5b4d-4b7b-a9a6-85c83ad014f0"><path d="m57.55,22.39c-.68-.68-1.58-1.06-2.53-1.06h-.25C54.31,9.5,44.28,0,32.02,0S9.74,9.5,9.29,21.34h-.15c-.96,0-1.86.38-2.53,1.06-.67.68-1.05,1.58-1.05,2.54v3.35c0,.96.37,1.86,1.05,2.54.68.68,1.58,1.06,2.53,1.06h1.81c.48,0,.92-.19,1.25-.52.33-.33.52-.78.52-1.26v-6.98c0-.47-.18-.92-.52-1.25-.25-.25-.56-.42-.9-.49.44-10.75,9.55-19.37,20.72-19.37s20.3,8.64,20.72,19.41c-.29.08-.57.23-.79.45-.33.34-.52.78-.52,1.25v6.98c0,.47.18.92.52,1.25.25.25.56.42.9.49-.12,5.48-4.58,9.9-10.05,9.9h-11.04c-.55,0-1,.45-1,1s.45,1,1,1h11.04c6.56,0,11.91-5.3,12.05-11.87h.16c.96,0,1.86-.38,2.53-1.06.67-.68,1.05-1.58,1.05-2.54v-3.35c0-.96-.37-1.86-1.05-2.54Zm-46.83,7.48h-1.58c-.42,0-.82-.17-1.12-.47-.3-.3-.46-.7-.46-1.13v-3.35c0-.43.17-.83.46-1.13.3-.3.69-.47,1.12-.47h1.58v6.54Zm45.87-1.6c0,.43-.17.83-.46,1.13-.3.3-.69.47-1.12.47h-1.58v-6.54h1.58c.42,0,.82.17,1.12.47.3.3.46.7.46,1.13v3.35Z" fill="#fff"/><path d="m61.87,62.48c-5.94-10.68-17.38-17.31-29.86-17.31s-23.95,6.65-29.88,17.35c-.27.48-.09,1.09.39,1.36.15.09.32.13.48.13.35,0,.69-.19.87-.52,5.58-10.07,16.37-16.32,28.14-16.32s22.53,6.24,28.12,16.29c.27.48.87.66,1.36.39.48-.27.66-.88.39-1.36Z" fill="#fff"/><path d="m32.08,40.53c9.94,0,18.02-8.13,18.02-18.13S42.01,4.28,32.08,4.28,14.06,12.41,14.06,22.41s8.08,18.13,18.02,18.13Zm0-34.25c8.83,0,16.02,7.23,16.02,16.13s-7.19,16.13-16.02,16.13-16.02-7.23-16.02-16.13S23.24,6.28,32.08,6.28Z" fill="#fff"/></g></g></svg>