<?xml version="1.0" encoding="UTF-8"?><svg id="uuid-c3b985d9-d9c0-4b3f-b40a-1dc35c66774b" xmlns="http://www.w3.org/2000/svg" xmlns:xlink="http://www.w3.org/1999/xlink" viewBox="0 0 64 64"><defs><linearGradient id="uuid-5d8edceb-ef73-4280-a9c9-2d31480d47ff" x1="12.31" y1="21.02" x2="44.11" y2="43.28" gradientUnits="userSpaceOnUse"><stop offset="0" stop-color="#3485fe"/><stop offset="1" stop-color="#b3f"/></linearGradient><linearGradient id="uuid-7910428c-5ff3-4013-90ef-58b71d60af48" x1="15.08" y1="13.74" x2="46.88" y2="36" xlink:href="#uuid-5d8edceb-ef73-4280-a9c9-2d31480d47ff"/><linearGradient id="uuid-9a937f3f-fbad-4323-be2b-cc0a6db00ef7" x1="17.85" y1="6.46" x2="49.65" y2="28.72" xlink:href="#uuid-5d8edceb-ef73-4280-a9c9-2d31480d47ff"/></defs><g id="uuid-9cbf3ffc-f751-49c9-878b-6ed404675ee1"><g id="uuid-2f925faf-f043-4ab9-989f-3fce7776f241"><path d="m1.79,60s-.09,0-.14,0c-.47-.04-.9-.25-1.21-.61-.28-.32-.43-.73-.43-1.16V5.78c0-.48.19-.92.53-1.26.33-.33.78-.52,1.26-.52h60.43c.48,0,.92.18,1.26.52.34.33.52.78.52,1.26v40.38c0,.48-.19.92-.53,1.26-.33.33-.78.52-1.26.52H17.57c-.57,0-1.12.2-1.56.57l-13.07,11.08c-.32.27-.73.42-1.15.42Zm.21-54v51.75l12.72-10.78c.79-.67,1.81-1.04,2.85-1.04h44.43V6H2Z" fill="#fff"/><path d="m18.83,21.28c-2.39,0-4.33,1.93-4.33,4.3s1.94,4.3,4.33,4.3,4.33-1.93,4.33-4.3-1.94-4.3-4.33-4.3Zm0,6.61c-1.29,0-2.33-1.03-2.33-2.3s1.05-2.3,2.33-2.3,2.33,1.03,2.33,2.3-1.05,2.3-2.33,2.3Z" fill="url(#uuid-5d8edceb-ef73-4280-a9c9-2d31480d47ff)"/><path d="m32,21.28c-2.39,0-4.33,1.93-4.33,4.3s1.94,4.3,4.33,4.3,4.33-1.93,4.33-4.3-1.94-4.3-4.33-4.3Zm0,6.61c-1.29,0-2.33-1.03-2.33-2.3s1.05-2.3,2.33-2.3,2.33,1.03,2.33,2.3-1.05,2.3-2.33,2.3Z" fill="url(#uuid-7910428c-5ff3-4013-90ef-58b71d60af48)"/><path d="m45.17,21.28c-2.39,0-4.33,1.93-4.33,4.3s1.94,4.3,4.33,4.3,4.33-1.93,4.33-4.3-1.94-4.3-4.33-4.3Zm0,6.61c-1.29,0-2.33-1.03-2.33-2.3s1.05-2.3,2.33-2.3,2.33,1.03,2.33,2.3-1.05,2.3-2.33,2.3Z" fill="url(#uuid-9a937f3f-fbad-4323-be2b-cc0a6db00ef7)"/></g></g></svg>