<?xml version="1.0" encoding="UTF-8"?><svg id="uuid-b117514a-0409-41ac-8d96-1cbff353a6a3" xmlns="http://www.w3.org/2000/svg" viewBox="0 0 64 64"><g id="uuid-8ffc7efb-8a09-4b37-a91f-476d201c80d9"><g id="uuid-763cdcf4-81e6-4859-b670-48da84f6d5e3"><path d="m36.5,22.77v-2.25c0-.62-.5-1.12-1.12-1.12s-1.12.5-1.12,1.12v2.25c0,.62-.5,1.12-1.12,1.12h-2.25c-.62,0-1.12-.5-1.12-1.12v-2.25c0-.62-.5-1.12-1.12-1.12s-1.12.5-1.12,1.12v2.25c0,1.86,1.51,3.38,3.38,3.38h2.25c1.86,0,3.38-1.51,3.38-3.38Zm4.5-4.5v-2.25c0-1.86-1.51-3.38-3.38-3.38h-2.25c-.62,0-1.12.5-1.12,1.12s.5,1.12,1.12,1.12h2.25c.62,0,1.12.5,1.12,1.12v2.25c0,.62-.5,1.12-1.12,1.12h-2.25c-.62,0-1.12.5-1.12,1.12s.5,1.12,1.12,1.12h2.25c1.86,0,3.38-1.51,3.38-3.38Zm-4.5-4.5v-2.25c0-1.86-1.51-3.38-3.38-3.38h-2.25c-1.86,0-3.38,1.51-3.38,3.38v2.25c0,.62.5,1.12,1.12,1.12s1.12-.5,1.12-1.12v-2.25c0-.62.5-1.12,1.12-1.12h2.25c.62,0,1.12.5,1.12,1.12v2.25c0,.62.5,1.12,1.12,1.12s1.12-.5,1.12-1.12Zm-6.75,6.75c0-.62-.5-1.12-1.12-1.12h-2.25c-.62,0-1.12-.5-1.12-1.12v-2.25c0-.62.5-1.12,1.12-1.12h2.25c.62,0,1.12-.5,1.12-1.12s-.5-1.12-1.12-1.12h-2.25c-1.86,0-3.38,1.51-3.38,3.38v2.25c0,1.86,1.51,3.38,3.38,3.38h2.25c.62,0,1.12-.5,1.12-1.12Z" fill="#fff"/><path d="m61,26.31h-14v-6h14c1.65,0,3,1.35,3,3s-1.35,3-3,3Zm-12-2h12c.55,0,1-.45,1-1s-.45-1-1-1h-12v2Zm-32,2H3c-1.65,0-3-1.35-3-3s1.35-3,3-3h14v6Zm-14-4c-.55,0-1,.45-1,1s.45,1,1,1h12v-2H3Zm35,42h-12v-17c0-1.65,1.35-3,3-3h6c1.65,0,3,1.35,3,3v17Zm-10-2h8v-15c0-.55-.45-1-1-1h-6c-.55,0-1,.45-1,1v15Zm30,2h-11V24.31h14v37c0,1.65-1.35,3-3,3Zm-9-2h9c.55,0,1-.45,1-1V26.31h-10v36Zm-32,2H6c-1.65,0-3-1.35-3-3V24.31h14v40ZM5,26.31v35c0,.55.45,1,1,1h9V26.31H5Zm44,38H15V3.31c0-1.65,1.35-3,3-3h28c1.65,0,3,1.35,3,3v61Zm-32-2h30V3.31c0-.55-.45-1-1-1h-28c-.55,0-1,.45-1,1v59Z" fill="#fff"/></g></g></svg>