<?xml version="1.0" encoding="UTF-8"?><svg id="uuid-c9866ced-b1af-4132-bb0e-7e1c90d1c8fb" xmlns="http://www.w3.org/2000/svg" viewBox="0 0 64 64"><g id="uuid-00973158-6df1-4834-8d74-c2318092337b"><g id="uuid-b5874fed-4e1d-42ed-bfd3-a5e58eaa9cd3"><path d="m56,33.52c-2.22,0-4,1.78-4,4s1.78,4,4,4,4.09-1.78,4-4c0-2.22-1.78-4-4-4Zm1.5,5.37c-.38.4-.93.63-1.5.63-1.12,0-2-.88-2-2s.88-2,2-2,2,.88,2,2v.08c.03.61-.26,1.04-.5,1.29Z"/><path d="m56,29.52c-4.44,0-8,3.56-8,8,0,3.95,2.81,7.19,6.55,7.86v.06c-.5,8.94-8.18,16.22-17.09,16.22s-16.33-7.49-16.73-16.53c3.61-1.42,18.53-7.72,18.53-17.57V9.78c-.29-3.68-3.08-6.57-6.58-7.17C32.29,1.11,30.94,0,29.31,0,27.37,0,25.81,1.56,25.81,3.5s1.55,3.5,3.5,3.5c1.47,0,2.76-.89,3.27-2.16,2.54.56,4.48,2.86,4.48,5.65v16.46c-6.41,5.79-28.34,5.79-34.85,0V10.49c0-2.79,1.93-5.08,4.55-5.55.55,1.21,1.76,2.06,3.18,2.06,1.94,0,3.58-1.56,3.5-3.5C13.44,1.56,11.88,0,9.94,0,8.26,0,6.88,1.16,6.53,2.73,3.01,3.3.29,6.26,0,9.88v17.78c0,9.85,15.02,16.25,18.53,17.57.4,10.26,8.71,18.76,18.93,18.76s18.79-8.3,19.29-18.52c4.1-.38,7.41-3.77,7.24-7.96,0-4.44-3.55-8-8-8ZM30.44,4.53c-.29.3-.7.47-1.13.47-.84,0-1.5-.66-1.5-1.5s.66-1.5,1.5-1.5,1.5.66,1.5,1.5v.08c.02.45-.19.76-.37.95ZM9.94,2c.84,0,1.5.66,1.5,1.5v.08c.02.45-.19.76-.37.95-.29.3-.7.47-1.13.47-.84,0-1.5-.66-1.5-1.5s.66-1.5,1.5-1.5ZM2.6,30c4.11,2.44,10.52,3.66,17.03,3.66s13.02-1.22,17.03-3.66c-2.4,7.31-14.72,12.29-17.03,13.21-2.3-.91-14.62-5.89-17.03-13.21Zm57.83,11.64c-1.14,1.19-2.76,1.87-4.44,1.87-3.36,0-6-2.64-6-6s2.63-6,6-6,6,2.64,6,6v.08c.06,1.5-.49,2.94-1.56,4.05Z"/></g></g></svg>