<?xml version="1.0" encoding="UTF-8"?><svg id="uuid-c28c50bd-1909-4ae9-9115-2694358c1cec" xmlns="http://www.w3.org/2000/svg" viewBox="0 0 64 64"><g id="uuid-531b3b31-9749-45e9-a128-ba253509708e"><g id="uuid-9a7cacb1-7e90-4b88-9d0a-89e9dd6832c1"><path d="m52.45,64h0c-.75,0-1.46-.3-2-.83L17.23,29.71l12.73-12.69,33.22,33.46c1.1,1.1,1.09,2.9,0,4h0l-8.72,8.7c-.53.53-1.24.82-1.99.82ZM20.01,29.71l31.83,32.07c.16.16.38.25.6.25h0c.23,0,.44-.09.6-.25l8.72-8.7c.34-.34.34-.88,0-1.22L29.95,19.8l-9.94,9.91Z"/><path d="m58.91,63.21h0c-.75,0-1.46-.3-2-.83l-1.51-1.52,5.64-5.63,1.51,1.52c1.1,1.11,1.09,2.9-.01,4l-1.64,1.64c-.53.53-1.24.82-1.99.82Zm-.73-2.35l.12.12c.16.16.38.25.6.25h0c.23,0,.44-.09.6-.25l1.64-1.64c.34-.33.34-.88,0-1.22l-.12-.12-2.85,2.85Z"/><path d="m32,17.79l-14.17,14.13c-.39.39-1.03.39-1.42,0h0c-.39-.39-.39-1.02,0-1.41l14.17-14.13c.39-.39,1.03-.39,1.42,0h0c.39.39.39,1.02,0,1.41Z"/><polygon points="60.32 48.86 48.99 60.16 47.58 58.74 58.91 47.44 60.32 48.86"/><polygon points="56.78 45.33 45.45 56.63 44.04 55.21 55.37 43.91 56.78 45.33"/><path d="m10.21,1.71L1.71,10.18c-.39.39-1.03.39-1.42,0h0c-.39-.39-.39-1.02,0-1.41L8.79.29c.39-.39,1.03-.39,1.42,0h0c.39.39.39,1.02,0,1.41Z"/><polygon points="24.16 22.73 22.77 24.17 5.02 6.37 6.41 4.93 24.16 22.73"/><path d="m44.57,50.33c-.78,0-1.58-.31-2.19-.91l-17.65-17.6c-.59-.59-.92-1.37-.92-2.18,0-.77.29-1.49.83-2.02l3.06-3.05c1.13-1.13,3.02-1.09,4.21.09l17.65,17.6c.59.59.92,1.37.92,2.18,0,.77-.29,1.49-.83,2.02l-3.06,3.05c-.55.55-1.28.82-2.02.82Zm-14.85-24.62c-.24,0-.46.08-.63.25l-3.06,3.05c-.16.16-.25.38-.25.62,0,.29.12.57.34.79l17.65,17.6c.42.42,1.06.46,1.43.09l3.06-3.05c.16-.16.25-.38.25-.62,0-.29-.12-.57-.34-.79l-17.65-17.6c-.23-.23-.52-.34-.8-.34Z"/></g></g></svg>