<?xml version="1.0" encoding="UTF-8"?><svg id="uuid-fce66ec8-840e-45d6-8f82-70cf27121860" xmlns="http://www.w3.org/2000/svg" xmlns:xlink="http://www.w3.org/1999/xlink" viewBox="0 0 64 64"><defs><linearGradient id="uuid-5fcad45c-2604-4de5-9af6-5828fdba76df" x1="5.52" y1="10.52" x2="15.41" y2="10.52" gradientUnits="userSpaceOnUse"><stop offset="0" stop-color="#3780f8"/><stop offset="1" stop-color="#b434f9"/></linearGradient><linearGradient id="uuid-a2ca1772-c924-4fce-82bc-940f876a2d34" x1="0" y1="7.6" x2="15.14" y2="7.6" xlink:href="#uuid-5fcad45c-2604-4de5-9af6-5828fdba76df"/></defs><g id="uuid-2c5f44c1-2596-4f14-b829-67bd100e881f"><g id="uuid-043eaf55-d5df-46d4-b78f-ea26c5a63701"><path d="m51.78,64c-.79,0-1.52-.31-2.08-.86L14.21,27.47l13.43-13.5,35.5,35.68c1.14,1.15,1.14,3.01,0,4.16l-9.29,9.33c-.55.56-1.29.86-2.08.86ZM16.95,27.47l34.13,34.3c.38.38,1.03.38,1.4,0l9.29-9.33c.39-.39.39-1.03,0-1.42L27.65,16.71l-10.7,10.75Z"/><path d="m58.57,63.24c-.79,0-1.52-.31-2.08-.86l-1.55-1.56,5.89-5.92,1.56,1.57c1.14,1.15,1.14,3.02,0,4.16l-1.75,1.76c-.55.56-1.29.86-2.08.86Zm-.89-2.43l.19.19c.38.38,1.03.38,1.4,0l1.75-1.76c.39-.39.39-1.03,0-1.43l-.19-.19-3.16,3.17Z"/><path d="m29.91,14.58l-15.08,15.16c-.42.42-1.1.42-1.52,0h0c-.42-.42-.42-1.09,0-1.51l15.08-15.16c.42-.42,1.1-.42,1.52,0h0c.42.42.42,1.09,0,1.51Z"/><polygon points="60.07 47.93 48.01 60.06 46.5 58.54 58.57 46.42 60.07 47.93"/><polygon points="56.3 44.14 44.24 56.27 42.73 54.75 54.8 42.63 56.3 44.14"/><path d="m23.12,13.82l-9.05,9.1c-.42.42-1.1.42-1.52,0h0c-.42-.42-.42-1.09,0-1.51l9.05-9.1c.42-.42,1.1-.42,1.52,0h0c.42.42.42,1.09,0,1.51Z"/><polygon points="21.61 19.89 20.1 21.4 17.84 19.13 19.35 17.61 21.61 19.89"/><path d="m13.31,15.48h-6.82c-.54,0-.97-.43-.97-.97s.43-.97.97-.97h6.82c.09,0,.17-.08.17-.17v-6.85c0-.54.43-.97.97-.97s.97.43.97.97v6.85c0,1.16-.94,2.11-2.11,2.11Z" fill="url(#uuid-5fcad45c-2604-4de5-9af6-5828fdba76df)"/><path d="m14.17,15.2c-.25,0-.5-.1-.69-.29L.28,1.65c-.38-.38-.38-.99,0-1.37.38-.38.99-.38,1.37,0l13.2,13.26c.38.38.38.99,0,1.37-.19.19-.44.28-.68.28Z" fill="url(#uuid-a2ca1772-c924-4fce-82bc-940f876a2d34)"/></g></g></svg>