<?xml version="1.0" encoding="UTF-8"?><svg id="uuid-4959ceec-72b7-4bbd-a6b8-ebcb4153f5c7" xmlns="http://www.w3.org/2000/svg" viewBox="0 0 64 64"><g id="uuid-99fcc187-c9df-48ef-84af-c16e44e3bfbf"><g id="uuid-9c3a9409-4126-4090-a5d3-71d6ef146d17"><path d="m61,2H5c-.55,0-1-.45-1-1S4.45,0,5,0h56C61.55,0,62,.45,62,1s-.45,1-1,1Z"/><path d="m53.71,42.29c-.39-.39-1.02-.39-1.41,0l-18.29,18.29V11c0-.55-.45-1-1-1s-1,.45-1,1v49.59l-18.29-18.29c-.39-.39-1.02-.39-1.41,0s-.39,1.02,0,1.41l20,20c.09.09.2.17.33.22.12.05.25.08.38.08s.26-.03.38-.08c.12-.05.23-.12.33-.22l20-20c.39-.39.39-1.02,0-1.41Z"/></g></g></svg>