<?xml version="1.0" encoding="UTF-8"?><svg id="uuid-963872d2-2835-4b1a-9238-0f7fe4460401" xmlns="http://www.w3.org/2000/svg" viewBox="0 0 64 64"><g id="uuid-aebd8af1-9739-4a69-aea4-65439b4fb2f4"><g id="uuid-46dedb10-c544-41a0-b2d4-bed4f48821a5"><path d="m63.46,30.62c-8.75-9.46-19.79-14.62-31.46-14.62S9.29,21.16.54,30.62c-.72.78-.72,1.98,0,2.76,8.75,9.46,19.79,14.62,31.46,14.62s22.71-5.16,31.46-14.62c.72-.78.72-1.98,0-2.76Zm-31.46,15.38h0c-7.72,0-14-6.28-14-14s6.28-14,14-14h0c7.72,0,14,6.28,14,14s-6.28,14-14,14Zm-27.96-12.59c-.76-.79-.76-2.02,0-2.82,5.29-5.53,11.5-9.34,18.18-11.23-3.78,2.93-6.22,7.5-6.22,12.64s2.45,9.71,6.22,12.64c-6.68-1.89-12.89-5.7-18.18-11.23Zm55.92,0c-5.29,5.53-11.5,9.34-18.18,11.23,3.78-2.93,6.22-7.5,6.22-12.64s-2.45-9.71-6.22-12.64c6.68,1.89,12.9,5.7,18.18,11.23.76.79.76,2.02,0,2.82Z" fill="#fff"/><path d="m32,25c-3.86,0-7,3.14-7,7s3.14,7,7,7,7-3.14,7-7-3.14-7-7-7Zm0,11.9c-2.7,0-4.9-2.2-4.9-4.9s2.2-4.9,4.9-4.9,4.9,2.2,4.9,4.9-2.2,4.9-4.9,4.9Z" fill="#fff"/></g></g></svg>