<?xml version="1.0" encoding="UTF-8"?><svg id="uuid-6fb847bb-05d2-4f72-9eb1-57508be3ab95" xmlns="http://www.w3.org/2000/svg" viewBox="0 0 64 64"><path d="m32,64C14.35,64,0,49.64,0,32S14.35,0,32,0s32,14.35,32,32-14.36,32-32,32Zm0-62C15.46,2,2,15.46,2,32s13.46,30,30,30,30-13.46,30-30S48.54,2,32,2Z"/><path d="m26.38,43.89c-.81,0-1.63-.32-2.26-.94l-9.81-9.8c-.39-.39-.39-1.02,0-1.41s1.02-.39,1.41,0l9.81,9.81c.44.44,1.12.48,1.51.09l21.21-21.21c.39-.39,1.02-.39,1.41,0s.39,1.02,0,1.41l-21.21,21.21c-.57.57-1.32.85-2.08.85Z"/></svg>