<?xml version="1.0" encoding="UTF-8"?><svg id="uuid-bc7884f5-cfb0-46ea-a6f8-3806ea975bff" xmlns="http://www.w3.org/2000/svg" viewBox="0 0 64 64"><g id="uuid-879acaa5-1af3-4822-ba95-be9388345175"><g id="uuid-a6e6d238-e53a-45c0-bfbf-851d7d33aab8"><path d="m47.76,40.43h-22.14c-.55,0-1-.45-1-1s.45-1,1-1h22.14c.55,0,1,.45,1,1s-.45,1-1,1Zm0-7.43h-22.14c-.55,0-1-.45-1-1s.45-1,1-1h22.14c.55,0,1,.45,1,1s-.45,1-1,1Zm0-7.43h-22.14c-.55,0-1-.45-1-1s.45-1,1-1h22.14c.55,0,1,.45,1,1s-.45,1-1,1Zm-7.53-7.69h-14.61c-.55,0-1-.45-1-1s.45-1,1-1h14.61c.55,0,1,.45,1,1s-.45,1-1,1Z"/><path d="m57.7,10.35l-3.2-3.11-6.56-6.38s0,0,0,0l-.6-.58c-.19-.18-.44-.28-.7-.28h-28.66c-1.68,0-3.05,1.37-3.05,3.05v11.81h-6.11c-1.55,0-2.82,1.26-2.82,2.81v43.51c0,1.55,1.26,2.81,2.82,2.81h32.7c1.55,0,2.82-1.26,2.82-2.81v-5.9h10.61c1.68,0,3.05-1.37,3.05-3.05V11.07c0-.27-.11-.53-.3-.72Zm-2.98-.1h-6.37c-.34,0-.62-.28-.62-.62V3.45l4.86,4.72,2.13,2.07Zm-12.39,50.94c0,.45-.37.81-.82.81H8.82c-.45,0-.82-.36-.82-.81V17.67c0-.45.37-.81.82-.81h6.11v35.38c0,1.68,1.37,3.05,3.05,3.05h24.36v5.9Zm12.61-7.9H17.98c-.58,0-1.05-.47-1.05-1.05V3.05c0-.58.47-1.05,1.05-1.05h27.75v7.63c0,1.44,1.18,2.62,2.62,2.62h7.65v39.99c0,.58-.47,1.05-1.05,1.05Z"/></g></g></svg>