<?xml version="1.0" encoding="UTF-8"?><svg id="uuid-7195b039-e86c-48ea-a963-48307597e3e3" xmlns="http://www.w3.org/2000/svg" viewBox="0 0 64 64"><g id="uuid-bb82db63-dceb-4947-bb05-77b347282ca1"><g id="uuid-884c42cd-4940-44c9-ba4d-4f8f9993eec2"><path d="m32,15c-9.37,0-17,7.63-17,17s7.63,17,17,17,17-7.63,17-17-7.63-17-17-17Zm0,32c-8.27,0-15-6.73-15-15s6.73-15,15-15,15,6.73,15,15-6.73,15-15,15Z" fill="#fff"/><path d="m63,31h-4.03c-.52-14.09-11.88-25.46-25.97-25.97V1c0-.55-.45-1-1-1s-1,.45-1,1v4.03c-14.09.52-25.46,11.88-25.97,25.97H1c-.55,0-1,.45-1,1s.45,1,1,1h4.03c.52,14.09,11.88,25.46,25.97,25.97v4.03c0,.55.45,1,1,1s1-.45,1-1v-4.03c14.09-.52,25.46-11.88,25.97-25.97h4.03c.55,0,1-.45,1-1s-.45-1-1-1Zm-30,25.97v-3.97c0-.55-.45-1-1-1s-1,.45-1,1v3.97c-12.99-.51-23.46-10.98-23.97-23.97h3.97c.55,0,1-.45,1-1s-.45-1-1-1h-3.97c.51-12.99,10.98-23.46,23.97-23.97v3.97c0,.55.45,1,1,1s1-.45,1-1v-3.97c12.99.51,23.46,10.98,23.97,23.97h-3.97c-.55,0-1,.45-1,1s.45,1,1,1h3.97c-.51,12.99-10.98,23.46-23.97,23.97Z" fill="#fff"/></g></g></svg>