<?xml version="1.0" encoding="UTF-8"?><svg id="uuid-71ea0f98-d641-4661-ad7f-982c0ae5ee6d" xmlns="http://www.w3.org/2000/svg" viewBox="0 0 64 64"><g id="uuid-ef3a15ad-6135-4901-99ed-952f966cbab0"><g id="uuid-644f62e3-c6e3-4757-8fe4-d4a5cae5b48f"><path d="m60,2H4c-.55,0-1-.45-1-1s.45-1,1-1h56c.55,0,1,.45,1,1s-.45,1-1,1Z" fill="#fff"/><path d="m52.71,42.29c-.39-.39-1.02-.39-1.41,0l-18.29,18.29V11c0-.55-.45-1-1-1s-1,.45-1,1v49.59l-18.29-18.29c-.39-.39-1.02-.39-1.41,0s-.39,1.02,0,1.41l20,20c.09.09.2.17.33.22.12.05.25.08.38.08s.26-.03.38-.08c.12-.05.23-.12.33-.22l20-20c.39-.39.39-1.02,0-1.41Z" fill="#fff"/></g></g></svg>