<?xml version="1.0" encoding="UTF-8"?><svg id="uuid-305f0093-4d6f-412c-958c-30debe2cdae2" xmlns="http://www.w3.org/2000/svg" xmlns:xlink="http://www.w3.org/1999/xlink" viewBox="0 0 64 64"><defs><linearGradient id="uuid-a07afb81-df99-4424-839e-c9e919715f9f" x1="7" y1="18.5" x2="57" y2="18.5" gradientUnits="userSpaceOnUse"><stop offset="0" stop-color="#3485fe"/><stop offset="1" stop-color="#b3f"/></linearGradient></defs><g id="uuid-edcceee3-e5af-4fc2-aa8d-8b5124734c60"><g id="uuid-3bf9b1a4-c106-41e2-be0f-f4aeb5fa1112"><path d="m63,59h-5V22c0-1.1-.9-2-2-2h-6c-1.1,0-2,.9-2,2v37h-4v-22c0-1.1-.9-2-2-2h-6c-1.1,0-2,.9-2,2v22h-4v-29c0-1.1-.9-2-2-2h-6c-1.1,0-2,.9-2,2v29h-4v-16c0-1.1-.9-2-2-2h-6c-1.1,0-2,.9-2,2v16H1c-.55,0-1,.45-1,1s.45,1,1,1h62c.55,0,1-.45,1-1s-.45-1-1-1Zm-55,0v-16h6v16h-6Zm14,0v-29h6v29h-6Zm14,0v-22h6v22h-6Zm14,0V22h6v37h-6Z" fill="#fff"/><path d="m53,3c-2.21,0-4,1.79-4,4,0,.74.21,1.43.57,2.02l-8.55,8.55c-.59-.35-1.28-.57-2.02-.57-1.38,0-2.59.7-3.31,1.76l-6.72-2.4c.01-.12.04-.23.04-.35,0-2.21-1.79-4-4-4s-4,1.79-4,4c0,.74.21,1.43.57,2.02l-8.55,8.55c-.59-.35-1.28-.57-2.02-.57-2.21,0-4,1.79-4,4s1.79,4,4,4,4-1.79,4-4c0-.74-.21-1.43-.57-2.02l8.55-8.55c.59.35,1.28.57,2.02.57,1.38,0,2.59-.7,3.31-1.76l6.72,2.4c-.01.12-.04.23-.04.35,0,2.21,1.79,4,4,4s4-1.79,4-4c0-.74-.21-1.43-.57-2.02l8.55-8.55c.59.35,1.28.57,2.02.57,2.21,0,4-1.79,4-4s-1.79-4-4-4ZM11,32c-1.1,0-2-.9-2-2s.9-2,2-2,2,.9,2,2-.9,2-2,2Zm14-14c-1.1,0-2-.9-2-2s.9-2,2-2,2,.9,2,2-.9,2-2,2Zm14,5c-1.1,0-2-.9-2-2s.9-2,2-2,2,.9,2,2-.9,2-2,2Zm14-14c-1.1,0-2-.9-2-2s.9-2,2-2,2,.9,2,2-.9,2-2,2Z" fill="url(#uuid-a07afb81-df99-4424-839e-c9e919715f9f)"/></g></g></svg>