<?xml version="1.0" encoding="UTF-8"?><svg id="uuid-6a319dd5-5e47-41c5-9ea7-e2a5121b4109" xmlns="http://www.w3.org/2000/svg" xmlns:xlink="http://www.w3.org/1999/xlink" viewBox="0 0 64 64"><defs><linearGradient id="uuid-18a7e31d-66cd-49ef-9c46-4c5477096b4c" x1="6.41" y1="26.12" x2="29.37" y2="42.19" gradientUnits="userSpaceOnUse"><stop offset="0" stop-color="#3485fe"/><stop offset="1" stop-color="#b3f"/></linearGradient><linearGradient id="uuid-bf63f437-c5c4-4d4b-ac95-59ea2cfd229d" x1="14.67" y1="17.64" x2="36.85" y2="33.17" xlink:href="#uuid-18a7e31d-66cd-49ef-9c46-4c5477096b4c"/><linearGradient id="uuid-77711021-686d-44d4-b28b-9495d239084d" x1="16.63" y1="16.82" x2="39.05" y2="32.52" xlink:href="#uuid-18a7e31d-66cd-49ef-9c46-4c5477096b4c"/></defs><g id="uuid-7b3db30c-8f8c-4c78-9545-c6dd28e37001"><g id="uuid-afff9adf-ea6d-4db3-bb92-55924d78a248"><path d="m15.68,28.39c-.67,0-1.21.54-1.21,1.21v6.03c0,.67.54,1.21,1.21,1.21s1.21-.54,1.21-1.21v-6.03c0-.67-.54-1.21-1.21-1.21Z" fill="url(#uuid-18a7e31d-66cd-49ef-9c46-4c5477096b4c)"/><path d="m24.85,12.7c-.67,0-1.21.54-1.21,1.21v21.72c0,.67.54,1.21,1.21,1.21s1.21-.54,1.21-1.21V13.9c0-.67-.54-1.21-1.21-1.21Z" fill="url(#uuid-bf63f437-c5c4-4d4b-ac95-59ea2cfd229d)"/><path d="m34.01,21.14c-.67,0-1.21.54-1.21,1.21v13.28c0,.67.54,1.21,1.21,1.21s1.21-.54,1.21-1.21v-13.28c0-.67-.54-1.21-1.21-1.21Z" fill="url(#uuid-77711021-686d-44d4-b28b-9495d239084d)"/><path d="m62.28,54.11l-16.41-16.2c2.41-3.81,3.82-8.31,3.82-13.14C49.69,11.11,38.55,0,24.85,0S0,11.11,0,24.77s11.15,24.77,24.85,24.77c4.79,0,9.24-1.38,13.04-3.72l-.29.29,16.42,16.21c1.14,1.12,2.64,1.69,4.13,1.69s2.99-.56,4.13-1.69c1.11-1.1,1.72-2.55,1.72-4.1s-.61-3.01-1.72-4.1ZM2.42,24.77C2.42,12.44,12.48,2.42,24.85,2.42s22.43,10.03,22.43,22.35-10.06,22.35-22.43,22.35S2.42,37.09,2.42,24.77Zm58.17,35.83c-1.34,1.33-3.53,1.33-4.87,0l-16.13-15.93c1.84-1.36,3.48-2.95,4.88-4.75l16.12,15.92c.65.64,1,1.48,1,2.38s-.36,1.75-1,2.38Z"/></g></g></svg>