<?xml version="1.0" encoding="UTF-8"?><svg id="uuid-7ff8dffe-46e6-45a6-b807-1206b0c6ba5d" xmlns="http://www.w3.org/2000/svg" xmlns:xlink="http://www.w3.org/1999/xlink" viewBox="0 0 64 64"><defs><linearGradient id="uuid-82be1fb6-2e2a-433e-8bd5-02a11c3ee4fd" x1="36" y1="24.32" x2="52" y2="24.32" gradientUnits="userSpaceOnUse"><stop offset="0" stop-color="#0084ff"/><stop offset="1" stop-color="#cb0eff"/></linearGradient></defs><g id="uuid-4e43b8fd-a0e9-46bf-a38b-cac3f3b4f7ce"><g id="uuid-d5f97fa4-ead3-4e8f-8a4a-da2b920af296"><path d="m39,64.32c-4.41,0-8-3.59-8-8V8.32c0-4.41,3.59-8,8-8,4.08,0,7.45,3.07,7.94,7.01,3.92.23,7.04,3.48,7.06,7.45,4.1,1.29,7,5.18,7,9.54,0,1.92-.53,3.75-1.55,5.35,2.87,2.17,4.55,5.52,4.55,9.15,0,5.03-3.34,9.49-8.07,10.97.05.34.07.69.07,1.03,0,4.14-3.36,7.5-7.5,7.5-.58,0-1.15-.07-1.71-.2-.82,3.56-4.03,6.2-7.79,6.2Zm0-62c-3.31,0-6,2.69-6,6v48c0,3.31,2.69,6,6,6,3.13,0,5.76-2.45,5.98-5.58l.1-1.4,1.29.54c.68.29,1.4.43,2.14.43,3.03,0,5.5-2.47,5.5-5.5,0-.49-.07-.98-.21-1.48l-.28-1.02,1.03-.23c4.32-.95,7.46-4.85,7.46-9.27,0-3.29-1.68-6.31-4.49-8.06l-.95-.59.7-.88c1.14-1.43,1.74-3.15,1.74-4.97,0-3.72-2.63-7-6.26-7.8l-.88-.19.1-.89c.02-.2.04-.4.04-.61,0-3.03-2.47-5.5-5.5-5.5-.14,0-.28.01-.42.02l-1.08.08v-1.08c0-3.33-2.69-6.03-6-6.03Zm-14,62c-3.75,0-6.96-2.64-7.79-6.2-.56.13-1.13.2-1.71.2-4.14,0-7.5-3.36-7.5-7.5,0-.34.02-.68.07-1.03-4.73-1.48-8.07-5.95-8.07-10.97,0-3.63,1.68-6.98,4.55-9.15-1.02-1.6-1.55-3.43-1.55-5.35,0-4.36,2.9-8.24,7-9.54.02-3.97,3.14-7.23,7.06-7.45.5-3.96,3.87-7.01,7.94-7.01,4.41,0,8,3.59,8,8v48c0,4.41-3.59,8-8,8Zm-6.07-8.97l.1,1.4c.22,3.13,2.84,5.58,5.98,5.58,3.31,0,6-2.69,6-6V8.32c0-3.31-2.69-6-6-6s-6,2.69-6,6v1.08l-1.08-.06c-.14-.01-.28-.02-.42-.02-3.03,0-5.5,2.47-5.5,5.5,0,.21.01.41.04.61l.1.89-.88.19c-3.63.81-6.26,4.09-6.26,7.8,0,1.82.6,3.54,1.74,4.97l.7.88-.95.59c-2.81,1.75-4.49,4.76-4.49,8.06,0,4.43,3.14,8.33,7.46,9.27l1.03.23-.29,1.02c-.14.5-.21.99-.21,1.48,0,3.03,2.47,5.5,5.5,5.5.74,0,1.46-.14,2.14-.43l1.29-.54Z"/><path d="m42.15,32.32c-.68,0-1.23-.55-1.23-1.23v-2.46c0-.68-.55-1.23-1.23-1.23h-2.46c-.68,0-1.23-.55-1.23-1.23s.55-1.23,1.23-1.23h2.46c2.04,0,3.69,1.66,3.69,3.69v2.46c0,.68-.55,1.23-1.23,1.23Zm4.92-1.23v-2.46c0-.68.55-1.23,1.23-1.23h2.46c.68,0,1.23-.55,1.23-1.23s-.55-1.23-1.23-1.23h-2.46c-2.04,0-3.69,1.66-3.69,3.69v2.46c0,.68.55,1.23,1.23,1.23s1.23-.55,1.23-1.23Zm4.92-8.62c0-.68-.55-1.23-1.23-1.23h-2.46c-.68,0-1.23-.55-1.23-1.23v-2.46c0-.68-.55-1.23-1.23-1.23s-1.23.55-1.23,1.23v2.46c0,2.04,1.66,3.69,3.69,3.69h2.46c.68,0,1.23-.55,1.23-1.23Zm-8.62-2.46v-2.46c0-.68-.55-1.23-1.23-1.23s-1.23.55-1.23,1.23v2.46c0,.68-.55,1.23-1.23,1.23h-2.46c-.68,0-1.23.55-1.23,1.23s.55,1.23,1.23,1.23h2.46c2.04,0,3.69-1.66,3.69-3.69Z" fill="url(#uuid-82be1fb6-2e2a-433e-8bd5-02a11c3ee4fd)"/></g></g></svg>