<?xml version="1.0" encoding="UTF-8"?><svg id="uuid-0f110ac8-696b-4944-85bb-479296f0f130" xmlns="http://www.w3.org/2000/svg" xmlns:xlink="http://www.w3.org/1999/xlink" viewBox="0 0 64 64"><defs><linearGradient id="uuid-b920b65a-0f4f-476f-ac04-c6b58981edde" x1="0" y1="32" x2="64" y2="32" gradientUnits="userSpaceOnUse"><stop offset="0" stop-color="#3485fe"/><stop offset="1" stop-color="#b3f"/></linearGradient></defs><g id="uuid-8dd73156-91a3-4546-980b-fef6d2665e08"><g id="uuid-d776507f-54e8-49f7-be60-b400b178e797"><path d="m32,2c16.54,0,30,13.46,30,30s-13.46,30-30,30S2,48.54,2,32,15.46,2,32,2m0-2C14.33,0,0,14.33,0,32s14.33,32,32,32,32-14.33,32-32S49.67,0,32,0h0Z" fill="url(#uuid-b920b65a-0f4f-476f-ac04-c6b58981edde)"/><path d="m42.19,46h-20.37v-5.36c2.41-1.93,4.44-3.59,6.07-4.99,1.63-1.4,2.94-2.62,3.91-3.66.97-1.04,1.67-1.98,2.1-2.82.42-.84.64-1.63.64-2.37,0-1.11-.38-1.95-1.13-2.55-.75-.59-1.69-.89-2.82-.89-.85,0-1.83.14-2.92.42-1.1.28-2.35.78-3.74,1.5l-2.1-4.82c1.37-.8,2.89-1.41,4.57-1.83,1.67-.42,3.31-.64,4.9-.64,3.24,0,5.79.75,7.65,2.26,1.87,1.5,2.8,3.63,2.8,6.38,0,1.18-.22,2.31-.66,3.39-.44,1.08-1.11,2.17-2.02,3.26-.91,1.09-2.04,2.24-3.4,3.43-1.36,1.2-2.96,2.5-4.79,3.91h11.32v5.36Z" fill="#fff"/></g></g></svg>