<?xml version="1.0" encoding="UTF-8"?><svg id="uuid-7eb64c90-2c47-4216-8eeb-e0c338110b8d" xmlns="http://www.w3.org/2000/svg" xmlns:xlink="http://www.w3.org/1999/xlink" viewBox="0 0 64 64"><defs><linearGradient id="uuid-22574e66-3a58-443c-acd8-bbfb5f9dc424" x1="52" y1="37.52" x2="60" y2="37.52" gradientUnits="userSpaceOnUse"><stop offset="0" stop-color="#3485fe"/><stop offset="1" stop-color="#b3f"/></linearGradient><linearGradient id="uuid-011bab46-52ff-48c5-9a60-72083486edd8" x1="25.81" y1="3.5" x2="32.81" y2="3.5" xlink:href="#uuid-22574e66-3a58-443c-acd8-bbfb5f9dc424"/><linearGradient id="uuid-d96d96e1-57e5-4610-b556-3a99bd485048" x1="6.44" y1="3.5" x2="13.44" y2="3.5" xlink:href="#uuid-22574e66-3a58-443c-acd8-bbfb5f9dc424"/></defs><g id="uuid-7a2c5042-5028-4a66-a928-aacb4ea9da61"><g id="uuid-403daf5a-d2a8-4ed9-b0f9-a82a6ed7acae"><path id="uuid-4f968391-abc3-4f53-bd71-e9e2643b2978" d="m56,35.52c1.12,0,2,.88,2,2v.08c.03.61-.26,1.04-.5,1.29-.38.4-.93.63-1.5.63-1.12,0-2-.88-2-2s.88-2,2-2m0-2c-2.22,0-4,1.78-4,4s1.78,4,4,4,4.09-1.78,4-4c0-2.22-1.78-4-4-4h0Z" fill="url(#uuid-22574e66-3a58-443c-acd8-bbfb5f9dc424)"/><path d="m63.99,37.52c0-4.44-3.55-8-8-8s-8,3.56-8,8c0,3.95,2.81,7.19,6.55,7.86v.06c-.5,8.94-8.18,16.22-17.09,16.22s-16.33-7.49-16.73-16.53c3.61-1.42,18.53-7.72,18.53-17.57V9.78c-.3-3.76-3.2-6.7-6.81-7.21v2.23c2.6.51,4.61,2.84,4.61,5.69v16.46c-6.41,5.79-28.34,5.79-34.85,0V10.49c0-2.84,2-5.18,4.71-5.59v-2.23C3.2,3.08.3,6.13,0,9.88v17.78c0,9.85,15.02,16.25,18.53,17.57.4,10.26,8.71,18.76,18.93,18.76s18.79-8.3,19.29-18.52c4.1-.38,7.41-3.77,7.24-7.96ZM2.6,30c4.11,2.44,10.52,3.66,17.03,3.66s13.02-1.22,17.03-3.66c-2.4,7.31-14.72,12.29-17.03,13.21-2.3-.91-14.62-5.89-17.03-13.21Zm53.39,13.52c-3.36,0-6-2.64-6-6s2.63-6,6-6,6,2.64,6,6v.08c.06,1.5-.49,2.94-1.56,4.05-1.14,1.19-2.76,1.87-4.44,1.87Z" fill="#fff"/><path id="uuid-3de4209f-cb58-4f7f-860d-32193457b6a9" d="m29.31,2c.84,0,1.5.66,1.5,1.5v.08c.02.45-.19.76-.37.95-.29.3-.7.47-1.13.47-.84,0-1.5-.66-1.5-1.5s.66-1.5,1.5-1.5M29.31,0C27.37,0,25.81,1.56,25.81,3.5s1.55,3.5,3.5,3.5,3.58-1.56,3.5-3.5C32.81,1.56,31.25,0,29.31,0h0Z" fill="url(#uuid-011bab46-52ff-48c5-9a60-72083486edd8)"/><path id="uuid-fef81e8e-5354-442f-8399-5415f35efd1d" d="m9.94,2c.84,0,1.5.66,1.5,1.5v.08c.02.45-.19.76-.37.95-.29.3-.7.47-1.13.47-.84,0-1.5-.66-1.5-1.5s.66-1.5,1.5-1.5M9.94,0C8,0,6.44,1.56,6.44,3.5s1.55,3.5,3.5,3.5,3.58-1.56,3.5-3.5C13.44,1.56,11.88,0,9.94,0h0Z" fill="url(#uuid-d96d96e1-57e5-4610-b556-3a99bd485048)"/></g></g></svg>