<?xml version="1.0" encoding="UTF-8"?><svg id="uuid-b49f5ed1-bb15-407c-9a99-b85dd20cc887" xmlns="http://www.w3.org/2000/svg" xmlns:xlink="http://www.w3.org/1999/xlink" viewBox="0 0 64 64"><defs><linearGradient id="uuid-69a34a86-8ba0-49d3-b96b-beac9680f182" x1="32" y1="52" x2="32" y2="64" gradientUnits="userSpaceOnUse"><stop offset="0" stop-color="#b3f"/><stop offset="1" stop-color="#3485fe"/></linearGradient><linearGradient id="uuid-5a11d243-52e5-402e-a25f-a75b74e1e76a" x1="32" y1="-432" x2="32" y2="-444" gradientTransform="translate(64 -432) rotate(-180)" gradientUnits="userSpaceOnUse"><stop offset="0" stop-color="#3485fe"/><stop offset="1" stop-color="#b3f"/></linearGradient><linearGradient id="uuid-ba53b461-6158-4e17-945d-e2cfff4cf379" x1="0" y1="32" x2="12" y2="32" gradientTransform="matrix(1,0,0,1,0,0)" xlink:href="#uuid-5a11d243-52e5-402e-a25f-a75b74e1e76a"/><linearGradient id="uuid-47d3ea2b-b023-4133-993e-1346ca51809d" x1="52" y1="32" x2="64" y2="32" gradientUnits="userSpaceOnUse"><stop offset="0" stop-color="#b3f"/><stop offset="1" stop-color="#3485fe"/></linearGradient></defs><g id="uuid-dc6385cb-02c4-4868-b6db-5096069eb1f0"><g id="uuid-e90bb9e2-708a-4f54-b6ac-d23d8af32adf"><g id="uuid-4e5afdf3-6a94-45a3-b9b7-703c367e38c7"><path d="m32,15c-9.37,0-17,7.63-17,17s7.63,17,17,17,17-7.63,17-17-7.63-17-17-17Zm0,32c-8.27,0-15-6.73-15-15s6.73-15,15-15,15,6.73,15,15-6.73,15-15,15Z"/><path d="m32,5c-14.89,0-27,12.11-27,27s12.11,27,27,27,27-12.11,27-27S46.89,5,32,5Zm0,52c-13.79,0-25-11.21-25-25S18.21,7,32,7s25,11.21,25,25-11.21,25-25,25Z"/></g><path d="m32,52c-.55,0-1,.45-1,1v10c0,.55.45,1,1,1s1-.45,1-1v-10c0-.55-.45-1-1-1Z" fill="url(#uuid-69a34a86-8ba0-49d3-b96b-beac9680f182)"/><path d="m32,12c.55,0,1-.45,1-1V1c0-.55-.45-1-1-1s-1,.45-1,1v10c0,.55.45,1,1,1Z" fill="url(#uuid-5a11d243-52e5-402e-a25f-a75b74e1e76a)"/><path d="m11,31H1c-.55,0-1,.45-1,1s.45,1,1,1h10c.55,0,1-.45,1-1s-.45-1-1-1Z" fill="url(#uuid-ba53b461-6158-4e17-945d-e2cfff4cf379)"/><path d="m63,31h-10c-.55,0-1,.45-1,1s.45,1,1,1h10c.55,0,1-.45,1-1s-.45-1-1-1Z" fill="url(#uuid-47d3ea2b-b023-4133-993e-1346ca51809d)"/></g></g></svg>