<?xml version="1.0" encoding="UTF-8"?><svg id="uuid-8ff6cb64-e6e2-498f-bcfa-58d167cdf399" xmlns="http://www.w3.org/2000/svg" viewBox="0 0 64 64"><g id="uuid-0195d1a3-d512-49e6-8c79-f3910654d281"><g id="uuid-d682c3ce-260c-4b26-ad98-eca873f2b26c"><path d="m63.71,31.29l-8-8c-.39-.39-1.02-.39-1.41,0s-.39,1.02,0,1.41l6.29,6.29h-21.59c-.55,0-1,.45-1,1s.45,1,1,1h21.59l-6.29,6.29c-.39.39-.39,1.02,0,1.41.2.2.45.29.71.29s.51-.1.71-.29l8-8c.39-.39.39-1.02,0-1.41Z"/><path d="m25,31H3.41l6.29-6.29c.39-.39.39-1.02,0-1.41s-1.02-.39-1.41,0L.29,31.29c-.39.39-.39,1.02,0,1.41l8,8c.2.2.45.29.71.29s.51-.1.71-.29c.39-.39.39-1.02,0-1.41l-6.29-6.29h21.59c.55,0,1-.45,1-1s-.45-1-1-1Z"/><path d="m32,64c-.55,0-1-.45-1-1V1C31,.45,31.45,0,32,0s1,.45,1,1v62c0,.55-.45,1-1,1Z"/></g></g></svg>