<?xml version="1.0" encoding="UTF-8"?><svg id="uuid-5f84ea9e-836b-4a46-b351-11e1d99534c0" xmlns="http://www.w3.org/2000/svg" xmlns:xlink="http://www.w3.org/1999/xlink" viewBox="0 0 64 64"><defs><linearGradient id="uuid-25bf031e-58dc-449c-9455-6e9a36851248" x1="11.3" y1="24.63" x2="42.22" y2="46.28" gradientUnits="userSpaceOnUse"><stop offset="0" stop-color="#3485fe"/><stop offset="1" stop-color="#b3f"/></linearGradient><linearGradient id="uuid-91df2312-6717-4fd4-95f9-d9f7ecbd9ce8" x1="23.25" y1="12.87" x2="55.3" y2="35.31" xlink:href="#uuid-25bf031e-58dc-449c-9455-6e9a36851248"/></defs><g id="uuid-9ead08c0-b22a-4680-ad41-0125208dbb6e"><g id="uuid-c808ba48-ce30-4a66-98a9-67de78bde73f"><path d="m32,64C14.36,64,0,49.64,0,32S14.36,0,32,0s32,14.36,32,32-14.36,32-32,32Zm0-62C15.46,2,2,15.46,2,32s13.46,30,30,30,30-13.46,30-30S48.54,2,32,2Z" fill="#fff"/><path d="m38.27,44.26c-.55,0-1-.45-1-1v-12.29c0-1.65-1.35-3-3-3h-8.55c-1.65,0-3,1.35-3,3.01s1.35,3,3.01,3c.55,0,1,.45,1,1v12.29c0,1.65,1.35,3,3,3h8.55c1.65,0,3-1.35,3-3.01s-1.35-3-3.01-3Zm.01,4.01h-8.55c-.55,0-1-.45-1-1v-12.29c0-1.65-1.35-3-3.01-3-.55,0-1-.45-1-1.01s.45-1,1.01-1h8.54c.55,0,1,.45,1,1v12.29c0,1.65,1.35,3,3.01,3,.55,0,1,.45,1,1.01s-.45,1-1,1Z" fill="url(#uuid-25bf031e-58dc-449c-9455-6e9a36851248)"/><path d="m32,24.27c2.91,0,5.27-2.36,5.27-5.27s-2.36-5.27-5.27-5.27-5.27,2.36-5.27,5.27,2.36,5.27,5.27,5.27Zm0-8.54c1.8,0,3.27,1.47,3.27,3.27s-1.47,3.27-3.27,3.27-3.27-1.47-3.27-3.27,1.47-3.27,3.27-3.27Z" fill="url(#uuid-91df2312-6717-4fd4-95f9-d9f7ecbd9ce8)"/></g></g></svg>