<?xml version="1.0" encoding="UTF-8"?><svg id="uuid-52586504-d74c-4311-a209-b3deeed43e05" xmlns="http://www.w3.org/2000/svg" viewBox="0 0 64 64"><g id="uuid-cf4c0671-38c5-419d-a99d-19cb41d2b948"><g id="uuid-37849b6b-d38c-4227-9c47-bd97a7d8159b"><path d="m1.79,60s-.09,0-.14,0c-.47-.04-.9-.25-1.21-.61-.28-.32-.43-.73-.43-1.16V5.78c0-.48.19-.92.53-1.26.33-.33.78-.52,1.26-.52h60.43c.48,0,.92.18,1.26.52.34.33.52.78.52,1.26v40.38c0,.48-.19.92-.53,1.26-.33.33-.78.52-1.26.52H17.57c-.57,0-1.12.2-1.56.57l-13.07,11.08c-.32.27-.73.42-1.15.42Zm.21-54v51.75l12.72-10.78c.79-.67,1.81-1.04,2.85-1.04h44.43V6H2Z" fill="#fff"/><path d="m18.83,21.28c-2.39,0-4.33,1.93-4.33,4.3s1.94,4.3,4.33,4.3,4.33-1.93,4.33-4.3-1.94-4.3-4.33-4.3Zm0,6.61c-1.29,0-2.33-1.03-2.33-2.3s1.05-2.3,2.33-2.3,2.33,1.03,2.33,2.3-1.05,2.3-2.33,2.3Z" fill="#fff"/><path d="m32,21.28c-2.39,0-4.33,1.93-4.33,4.3s1.94,4.3,4.33,4.3,4.33-1.93,4.33-4.3-1.94-4.3-4.33-4.3Zm0,6.61c-1.29,0-2.33-1.03-2.33-2.3s1.05-2.3,2.33-2.3,2.33,1.03,2.33,2.3-1.05,2.3-2.33,2.3Z" fill="#fff"/><path d="m45.17,21.28c-2.39,0-4.33,1.93-4.33,4.3s1.94,4.3,4.33,4.3,4.33-1.93,4.33-4.3-1.94-4.3-4.33-4.3Zm0,6.61c-1.29,0-2.33-1.03-2.33-2.3s1.05-2.3,2.33-2.3,2.33,1.03,2.33,2.3-1.05,2.3-2.33,2.3Z" fill="#fff"/></g></g></svg>