<?xml version="1.0" encoding="UTF-8"?><svg id="uuid-b16189fb-b58f-4f2d-82e2-a12539315a70" xmlns="http://www.w3.org/2000/svg" xmlns:xlink="http://www.w3.org/1999/xlink" viewBox="0 0 64 64"><defs><linearGradient id="uuid-e357a303-1301-405d-8450-482320e2042c" x1="34" y1="45.5" x2="64" y2="45.5" gradientUnits="userSpaceOnUse"><stop offset="0" stop-color="#3485fe"/><stop offset="1" stop-color="#b3f"/></linearGradient><linearGradient id="uuid-6b15fb46-04c1-4340-8b0b-46164b64bc21" x1="42" y1="45.43" x2="56" y2="45.43" xlink:href="#uuid-e357a303-1301-405d-8450-482320e2042c"/></defs><g id="uuid-fd4be955-264f-477e-9f33-1eb311ac5d22"><g id="uuid-d7c98e3f-457a-49f5-8a22-5a9b1b1a4f3d"><path d="m49.12,11.71L38.29.88c-.57-.57-1.32-.88-2.12-.88H3C1.35,0,0,1.35,0,3v58c0,1.65,1.35,3,3,3h44c.55,0,1-.45,1-1s-.45-1-1-1H3c-.55,0-1-.45-1-1V3c0-.55.45-1,1-1h33v10c0,1.1.9,2,2,2h10v14c0,.55.45,1,1,1s1-.45,1-1v-14.17c0-.8-.31-1.56-.88-2.12Zm-11.12-.71V3.41l8.59,8.59h-7.59c-.55,0-1-.45-1-1Z" fill="#fff"/><rect x="9" y="17" width="26" height="2" rx="1" ry="1" fill="#fff"/><rect x="9" y="24" width="26" height="2" rx="1" ry="1" fill="#fff"/><rect x="9" y="31" width="26" height="2" rx="1" ry="1" fill="#fff"/><rect x="9" y="38" width="21" height="2" rx="1" ry="1" fill="#fff"/><rect x="9" y="45" width="21" height="2" rx="1" ry="1" fill="#fff"/><path d="m49,60c-8.27,0-15-6.5-15-14.5s6.73-14.5,15-14.5,15,6.5,15,14.5-6.73,14.5-15,14.5Zm0-27c-7.17,0-13,5.61-13,12.5s5.83,12.5,13,12.5,13-5.61,13-12.5-5.83-12.5-13-12.5Z" fill="url(#uuid-e357a303-1301-405d-8450-482320e2042c)"/><path d="m55.67,41.26l-5.32-4.87c-.77-.71-1.93-.7-2.7,0l-5.33,4.87c-.41.37-.44,1.01-.06,1.41.37.41,1,.43,1.41.06l4.33-3.95v15.22c0,.55.45,1,1,1s1-.45,1-1v-15.22l4.33,3.95c.19.17.43.26.67.26.27,0,.54-.11.74-.33.37-.41.34-1.04-.06-1.41Z" fill="url(#uuid-6b15fb46-04c1-4340-8b0b-46164b64bc21)"/></g></g></svg>