<?xml version="1.0" encoding="UTF-8"?><svg id="uuid-916d1ac3-c723-4c64-b316-2ae72967b9f5" xmlns="http://www.w3.org/2000/svg" xmlns:xlink="http://www.w3.org/1999/xlink" viewBox="0 0 64 64"><defs><linearGradient id="uuid-db128281-1d20-46c6-92a4-49c3a816cefb" x1="34.26" y1="38.93" x2="60.81" y2="57.52" gradientUnits="userSpaceOnUse"><stop offset="0" stop-color="#3485fe"/><stop offset="1" stop-color="#b3f"/></linearGradient><linearGradient id="uuid-4e38d425-e37d-47b3-8bfd-7ca2cdef33c9" x1="34.5" y1="37.8" x2="62.05" y2="57.08" xlink:href="#uuid-db128281-1d20-46c6-92a4-49c3a816cefb"/></defs><g id="uuid-68204590-4c89-4a5f-a90c-af4d2cf15ac4"><g id="uuid-923641af-2856-440c-8b74-b0543383e809"><path d="m39.31,34.72c-2.27-.42-4.6-.63-6.93-.63-13.49,0-25.85,7.11-32.25,18.55-.27.48-.1,1.09.38,1.36.15.09.32.13.49.13.35,0,.69-.18.87-.51,6.05-10.81,17.75-17.53,30.51-17.53,2.21,0,4.42.2,6.57.6.54.1,1.06-.26,1.16-.8.1-.54-.26-1.06-.8-1.16Z" fill="#fff"/><path d="m31.85,0c-8.74,0-15.85,7.09-15.85,15.8s7.11,15.8,15.85,15.8,15.85-7.09,15.85-15.8S40.59,0,31.85,0Zm0,29.59c-7.64,0-13.85-6.19-13.85-13.8S24.22,2,31.85,2s13.85,6.19,13.85,13.8-6.21,13.8-13.85,13.8Z" fill="#fff"/><path d="m49.68,35.45c-7.9,0-14.32,6.4-14.32,14.27s6.42,14.27,14.32,14.27,14.32-6.4,14.32-14.27-6.42-14.27-14.32-14.27Zm0,26.55c-6.79,0-12.32-5.51-12.32-12.27s5.53-12.27,12.32-12.27,12.32,5.51,12.32,12.27-5.53,12.27-12.32,12.27Z" fill="url(#uuid-db128281-1d20-46c6-92a4-49c3a816cefb)"/><path d="m49.91,44.25l-.15.15-.15-.15c-1.89-1.89-4.97-1.89-6.86,0-.92.92-1.42,2.13-1.42,3.42s.51,2.51,1.42,3.43l5.6,5.58c.34.34.8.55,1.35.58h.18c.49-.03.95-.24,1.29-.58l5.6-5.58c.92-.92,1.42-2.13,1.42-3.43s-.5-2.51-1.42-3.42c-1.89-1.89-4.97-1.88-6.86,0Zm-.85,11.73l.71-.71h0s-.71.71-.71.71Zm6.3-6.29l-5.54,5.58h-.06s-5.6-5.58-5.6-5.58c-.54-.54-.84-1.25-.84-2.01s.3-1.47.84-2.01c.56-.55,1.29-.83,2.02-.83s1.46.28,2.02.83l.85.85c.39.39,1.02.39,1.41,0l.85-.85c1.11-1.11,2.93-1.11,4.04,0,.54.54.83,1.25.83,2.01s-.3,1.47-.83,2.01Z" fill="url(#uuid-4e38d425-e37d-47b3-8bfd-7ca2cdef33c9)"/></g></g></svg>