<?xml version="1.0" encoding="UTF-8"?><svg id="uuid-cf6b59ac-70f5-401a-9de3-629253390811" xmlns="http://www.w3.org/2000/svg" viewBox="0 0 64 64"><g id="uuid-4faa96e4-c8aa-4703-819f-14fe88c30e17"><g id="uuid-4e9d0fe9-3218-4c69-ac05-75ea7138031b"><path d="m62.64,22.37l-7.49-5.01v-4.45c0-1.69-1.38-3.07-3.07-3.07h-8.17l-10.2-6.82c-1.04-.69-2.37-.69-3.41,0l-10.2,6.82h-8.17c-1.69,0-3.07,1.38-3.07,3.07v4.45l-7.49,5.01C.51,22.94,0,23.9,0,24.92v33.51C0,60.12,1.38,61.5,3.07,61.5h57.87c1.69,0,3.07-1.38,3.07-3.07V24.92c0-1.03-.51-1.98-1.36-2.55Zm-1.19,1.61l-6.3,4.21v-8.43l6.3,4.22ZM31.41,4.68c.36-.24.83-.24,1.18,0l7.71,5.16h-16.61l7.71-5.16Zm-19.48,7.16h40.15c.59,0,1.07.48,1.07,1.07v16.62l-20.55,13.75c-.36.24-.82.24-1.18,0l-20.55-13.75V12.91c0-.59.48-1.07,1.07-1.07Zm-3.07,16.35l-6.3-4.21,6.3-4.22v8.43Zm52.08,31.31H3.07c-.59,0-1.07-.48-1.07-1.07V26.01l28.3,18.93c.52.35,1.11.52,1.7.52s1.19-.17,1.7-.52l28.3-18.93v32.42c0,.59-.48,1.07-1.07,1.07Z" fill="#fff"/><path d="m38.28,32.46h-13.51c-.55,0-1-.45-1-1s.45-1,1-1h13.51c.55,0,1,.45,1,1s-.45,1-1,1Zm5.64-6.21h-23.85c-.55,0-1-.45-1-1s.45-1,1-1h23.85c.55,0,1,.45,1,1s-.45,1-1,1Zm0-6.21h-23.85c-.55,0-1-.45-1-1s.45-1,1-1h23.85c.55,0,1,.45,1,1s-.45,1-1,1Z" fill="#fff"/></g></g></svg>