<?xml version="1.0" encoding="UTF-8"?><svg id="uuid-4b8b6b4e-9dab-4ddd-adc3-16f36474a9f2" xmlns="http://www.w3.org/2000/svg" xmlns:xlink="http://www.w3.org/1999/xlink" viewBox="0 0 64 64"><defs><linearGradient id="uuid-383d4036-750b-4e03-be79-ae8c3da12d24" x1="10.5" y1="32" x2="53.5" y2="32" gradientUnits="userSpaceOnUse"><stop offset="0" stop-color="#3485fe"/><stop offset="1" stop-color="#b3f"/></linearGradient></defs><g id="uuid-6e09fb1b-fdf7-481d-93e6-73605bbbd731"><g id="uuid-f028eaf0-bee2-46ff-93e2-2e78594bf78e"><path id="uuid-014baf1d-3494-4cf8-87fa-2f832d3fa129" d="m32,59c-14.89,0-27-12.11-27-27S17.11,5,32,5s27,12.11,27,27-12.11,27-27,27Zm0-52c-13.79,0-25,11.21-25,25s11.21,25,25,25,25-11.21,25-25S45.79,7,32,7Z"/><path id="uuid-9769b872-573c-4b7d-aeac-134f1046298d" d="m33.5,12c0,.83-.67,1.5-1.5,1.5s-1.5-.67-1.5-1.5.67-1.5,1.5-1.5,1.5.67,1.5,1.5Zm-7.69-.54c-.83,0-1.5.67-1.5,1.5s.67,1.5,1.5,1.5,1.5-.67,1.5-1.5-.67-1.5-1.5-1.5Zm-5.57,2.86c-.83,0-1.5.67-1.5,1.5s.67,1.5,1.5,1.5,1.5-.67,1.5-1.5-.67-1.5-1.5-1.5Zm-4.43,4.42c-.83,0-1.5.67-1.5,1.5s.67,1.5,1.5,1.5,1.5-.67,1.5-1.5-.67-1.5-1.5-1.5Zm-2.83,5.58c-.83,0-1.5.67-1.5,1.5s.67,1.5,1.5,1.5,1.5-.67,1.5-1.5-.67-1.5-1.5-1.5Zm-.97,6.18c-.83,0-1.5.67-1.5,1.5s.67,1.5,1.5,1.5,1.5-.67,1.5-1.5-.67-1.5-1.5-1.5ZM29.34,14.21c-.55,0-1,.45-1,1s.45,1,1,1,1-.45,1-1-.45-1-1-1Zm-5.07,1.63c-.55,0-1,.45-1,1s.45,1,1,1,1-.45,1-1-.45-1-1-1Zm-4.31,3.13c-.55,0-1,.45-1,1s.45,1,1,1,1-.45,1-1-.45-1-1-1Zm-3.13,4.31c-.55,0-1,.45-1,1s.45,1,1,1,1-.45,1-1-.45-1-1-1Zm-1.64,5.06c-.55,0-1,.45-1,1s.45,1,1,1,1-.45,1-1-.45-1-1-1Zm16.8-11.34c-.55,0-1,.45-1,1s.45,1,1,1,1-.45,1-1-.45-1-1-1Zm-4.33.67c-.55,0-1,.45-1,1s.45,1,1,1,1-.45,1-1-.45-1-1-1Zm-3.9,2c-.55,0-1,.45-1,1s.45,1,1,1,1-.45,1-1-.45-1-1-1Zm-3.09,3.1c-.55,0-1,.45-1,1s.45,1,1,1,1-.45,1-1-.45-1-1-1Zm-1.99,3.9c-.55,0-1,.45-1,1s.45,1,1,1,1-.45,1-1-.45-1-1-1Zm-.69,4.32c-.55,0-1,.45-1,1s.45,1,1,1,1-.45,1-1-.45-1-1-1Zm18.69-18.04c0,.83.67,1.5,1.5,1.5s1.5-.67,1.5-1.5-.67-1.5-1.5-1.5-1.5.67-1.5,1.5Zm5.57,2.86c0,.83.67,1.5,1.5,1.5s1.5-.67,1.5-1.5-.67-1.5-1.5-1.5-1.5.67-1.5,1.5Zm4.43,4.42c0,.83.67,1.5,1.5,1.5s1.5-.67,1.5-1.5-.67-1.5-1.5-1.5-1.5.67-1.5,1.5Zm2.83,5.58c0,.83.67,1.5,1.5,1.5s1.5-.67,1.5-1.5-.67-1.5-1.5-1.5-1.5.67-1.5,1.5Zm.97,6.18c0,.83.67,1.5,1.5,1.5s1.5-.67,1.5-1.5-.67-1.5-1.5-1.5-1.5.67-1.5,1.5Zm-16.84-16.79c0,.55.45,1,1,1s1-.45,1-1-.45-1-1-1-1,.45-1,1Zm5.07,1.63c0,.55.45,1,1,1s1-.45,1-1-.45-1-1-1-1,.45-1,1Zm4.31,3.13c0,.55.45,1,1,1s1-.45,1-1-.45-1-1-1-1,.45-1,1Zm3.13,4.31c0,.55.45,1,1,1s1-.45,1-1-.45-1-1-1-1,.45-1,1Zm1.64,5.06c0,.55.45,1,1,1s1-.45,1-1-.45-1-1-1-1,.45-1,1Zm-16.8-11.34c0,.55.45,1,1,1s1-.45,1-1-.45-1-1-1-1,.45-1,1Zm4.33.67c0,.55.45,1,1,1s1-.45,1-1-.45-1-1-1-1,.45-1,1Zm3.9,2c0,.55.45,1,1,1s1-.45,1-1-.45-1-1-1-1,.45-1,1Zm3.09,3.1c0,.55.45,1,1,1s1-.45,1-1c0-.55-.45-1-1-1s-1,.45-1,1Zm1.99,3.9c0,.55.45,1,1,1s1-.45,1-1-.45-1-1-1-1,.45-1,1Zm.69,4.32c0,.55.45,1,1,1s1-.45,1-1c0-.55-.45-1-1-1s-1,.45-1,1Zm-11.5,20c0-.83-.67-1.5-1.5-1.5s-1.5.67-1.5,1.5.67,1.5,1.5,1.5,1.5-.67,1.5-1.5Zm-6.19-.96c0-.83-.67-1.5-1.5-1.5s-1.5.67-1.5,1.5.67,1.5,1.5,1.5,1.5-.67,1.5-1.5Zm-5.57-2.86c0-.83-.67-1.5-1.5-1.5s-1.5.67-1.5,1.5.67,1.5,1.5,1.5,1.5-.67,1.5-1.5Zm-4.43-4.42c0-.83-.67-1.5-1.5-1.5s-1.5.67-1.5,1.5.67,1.5,1.5,1.5,1.5-.67,1.5-1.5Zm-2.83-5.58c0-.83-.67-1.5-1.5-1.5s-1.5.67-1.5,1.5.67,1.5,1.5,1.5,1.5-.67,1.5-1.5Zm15.87,10.61c0-.55-.45-1-1-1s-1,.45-1,1,.45,1,1,1,1-.45,1-1Zm-5.07-1.63c0-.55-.45-1-1-1s-1,.45-1,1,.45,1,1,1,1-.45,1-1Zm-4.31-3.13c0-.55-.45-1-1-1s-1,.45-1,1,.45,1,1,1,1-.45,1-1Zm-3.13-4.31c0-.55-.45-1-1-1s-1,.45-1,1,.45,1,1,1,1-.45,1-1Zm-1.64-5.06c0-.55-.45-1-1-1s-1,.45-1,1,.45,1,1,1,1-.45,1-1Zm16.8,11.34c0-.55-.45-1-1-1s-1,.45-1,1,.45,1,1,1,1-.45,1-1Zm-4.33-.67c0-.55-.45-1-1-1s-1,.45-1,1,.45,1,1,1,1-.45,1-1Zm-3.9-2c0-.55-.45-1-1-1s-1,.45-1,1,.45,1,1,1,1-.45,1-1Zm-3.09-3.1c0-.55-.45-1-1-1s-1,.45-1,1,.45,1,1,1,1-.45,1-1Zm-1.99-3.9c0-.55-.45-1-1-1s-1,.45-1,1,.45,1,1,1,1-.45,1-1Zm18.5,16.22c.83,0,1.5-.67,1.5-1.5s-.67-1.5-1.5-1.5-1.5.67-1.5,1.5.67,1.5,1.5,1.5Zm5.57-2.86c.83,0,1.5-.67,1.5-1.5s-.67-1.5-1.5-1.5-1.5.67-1.5,1.5.67,1.5,1.5,1.5Zm4.43-4.42c.83,0,1.5-.67,1.5-1.5,0-.83-.67-1.5-1.5-1.5s-1.5.67-1.5,1.5.67,1.5,1.5,1.5Zm2.83-5.58c.83,0,1.5-.67,1.5-1.5s-.67-1.5-1.5-1.5-1.5.67-1.5,1.5.67,1.5,1.5,1.5Zm-16.37,10.11c.55,0,1-.45,1-1s-.45-1-1-1-1,.45-1,1,.45,1,1,1Zm5.07-1.63c.55,0,1-.45,1-1s-.45-1-1-1-1,.45-1,1,.45,1,1,1Zm4.31-3.13c.55,0,1-.45,1-1s-.45-1-1-1-1,.45-1,1,.45,1,1,1Zm3.13-4.31c.55,0,1-.45,1-1s-.45-1-1-1-1,.45-1,1,.45,1,1,1Zm1.64-5.06c.55,0,1-.45,1-1s-.45-1-1-1-1,.45-1,1,.45,1,1,1Zm-16.8,11.34c.55,0,1-.45,1-1s-.45-1-1-1-1,.45-1,1,.45,1,1,1Zm4.33-.67c.55,0,1-.45,1-1s-.45-1-1-1-1,.45-1,1,.45,1,1,1Zm3.9-2c.55,0,1-.45,1-1s-.45-1-1-1-1,.45-1,1,.45,1,1,1Zm3.09-3.1c.55,0,1-.45,1-1,0-.55-.45-1-1-1s-1,.45-1,1c0,.55.45,1,1,1Zm1.99-3.9c.55,0,1-.45,1-1s-.45-1-1-1-1,.45-1,1,.45,1,1,1Z" fill="url(#uuid-383d4036-750b-4e03-be79-ae8c3da12d24)"/></g></g></svg>