<?xml version="1.0" encoding="UTF-8"?><svg id="uuid-af2162a8-8444-4ca5-bfcc-b49fad0fe2c9" xmlns="http://www.w3.org/2000/svg" xmlns:xlink="http://www.w3.org/1999/xlink" viewBox="0 0 64 64"><defs><linearGradient id="uuid-f2cd072b-c567-4bcd-a830-885c803b7aa3" x1="17.57" y1="32" x2="46.43" y2="32" gradientUnits="userSpaceOnUse"><stop offset="0" stop-color="#3485fe"/><stop offset="1" stop-color="#b3f"/></linearGradient></defs><g id="uuid-a458515a-9370-45f8-9948-0622b0cf7b8b"><path d="m32,64C14.35,64,0,49.64,0,32S14.35,0,32,0s32,14.35,32,32-14.36,32-32,32Zm0-62C15.46,2,2,15.46,2,32s13.46,30,30,30,30-13.46,30-30S48.54,2,32,2Z"/><path d="m17.87,44.72l26.86-26.86c.39-.39,1.03-.4,1.42,0h0c.39.39.39,1.03,0,1.42l-26.86,26.86c-.39.39-1.03.4-1.42,0h0c-.39-.39-.39-1.03,0-1.42Zm26.86,1.41l-26.86-26.86c-.39-.39-.4-1.03,0-1.42h0c.39-.39,1.03-.39,1.42,0l26.86,26.86c.39.39.4,1.03,0,1.42h0c-.39.39-1.03.39-1.42,0Z" fill="url(#uuid-f2cd072b-c567-4bcd-a830-885c803b7aa3)"/></g></svg>