<?xml version="1.0" encoding="UTF-8"?><svg id="uuid-8cc77fe3-48c6-494f-9957-7fb90ef6a4d3" xmlns="http://www.w3.org/2000/svg" xmlns:xlink="http://www.w3.org/1999/xlink" viewBox="0 0 64 64"><defs><linearGradient id="uuid-e6739279-30a0-414f-bc41-803383062152" x1="0" y1="45.69" x2="37.82" y2="45.69" gradientUnits="userSpaceOnUse"><stop offset="0" stop-color="#3485fe"/><stop offset="1" stop-color="#b3f"/></linearGradient></defs><g id="uuid-4e1ee776-a188-4760-b0b5-2667042e4300"><g id="uuid-b900c641-3d13-4d9e-a9a1-061d94e5cab2"><path d="m36.4,39.78h0s-.51-.51-.51-.51l-.63-.63c-.76-.76-1.78-1.18-2.86-1.18s-2.1.42-2.86,1.19l-4.64,4.65-1.43,1.43,1.43,1.43,3.58,3.6c-8.13,7.24-16.69,8.2-23.47,8.21l24.43-25.16-1.43-1.43L0,60h4.66c6.34,0,16.32-.85,25.16-8.72.87-.78.91-2.14.09-2.96l-3.58-3.59,4.64-4.65c.4-.4.91-.59,1.43-.59s1.04.2,1.43.59l1.14,1.14c.4.4.91.59,1.43.59s1.04-.2,1.43-.6l-1.43-1.43Z"/><path d="m32.83,58h-11.67c-.64,0-1.17.45-1.17,1h0c0,.55.52,1,1.17,1h11.67c.64,0,1.17-.45,1.17-1s-.52-1-1.17-1Z"/><path d="m45,58h-7c-.55,0-1,.45-1,1s.45,1,1,1h7c.55,0,1-.45,1-1s-.45-1-1-1Z"/><path d="m52,58h-2c-.55,0-1,.45-1,1s.45,1,1,1h2c.55,0,1-.45,1-1s-.45-1-1-1Z"/><path d="m63.71,62.31l-23.57-23.57,23.32-25.03c.75-.8.72-2.05-.05-2.82l-6.3-6.3c-.4-.4-.91-.59-1.43-.59s-1.05.2-1.44.61l-23.87,24.35L1.69.29C1.3-.1.68-.1.29.29H.29C-.1.68-.1,1.3.29,1.69l62.02,62.02c.39.39,1.01.39,1.4,0,.39-.39.39-1.01,0-1.4ZM55.67,6.03s0,0,0,0l6.3,6.3-7.35,7.89-6.49-6.49,7.54-7.69Zm-8.94,9.12l6.53,6.53-6.35,6.82-6.69-6.69,6.52-6.65Zm-7.92,8.08l6.73,6.73-6.84,7.34-6.91-6.91,7.02-7.16Z"/><path d="m36.4,39.78h0s-.51-.51-.51-.51l-.63-.63c-.76-.76-1.78-1.18-2.86-1.18s-2.1.42-2.86,1.19l-4.64,4.65-1.43,1.43,1.43,1.43,3.58,3.6c-8.13,7.24-16.69,8.2-23.47,8.21l24.43-25.16-1.43-1.43L0,60h4.66c6.34,0,16.32-.85,25.16-8.72.87-.78.91-2.14.09-2.96l-3.58-3.59,4.64-4.65c.4-.4.91-.59,1.43-.59s1.04.2,1.43.59l1.14,1.14c.4.4.91.59,1.43.59s1.04-.2,1.43-.6l-1.43-1.43Z" fill="url(#uuid-e6739279-30a0-414f-bc41-803383062152)"/></g></g></svg>