<?xml version="1.0" encoding="UTF-8"?><svg id="uuid-44d4ac2a-c9bb-41fe-9ad6-b35e9d1a28ec" xmlns="http://www.w3.org/2000/svg" viewBox="0 0 64 64"><g id="uuid-54db8af7-f0e5-4938-998c-1f5e60521fd0"><g id="uuid-878c2e98-3eb2-4736-97eb-12f1983e4573"><path d="m53,10h-7v-2c0-1.1-.9-2-2-2h-5.08c-.49-3.39-3.39-6-6.92-6s-6.43,2.61-6.92,6h-5.08c-1.1,0-2,.9-2,2v2h-7c-1.1,0-2,.9-2,2v50c0,1.1.9,2,2,2h42c1.1,0,2-.9,2-2V12c0-1.1-.9-2-2-2Zm-33-2h6.81l.25-1.72c.35-2.44,2.47-4.28,4.94-4.28s4.59,1.84,4.94,4.28l.25,1.72h6.81v8h-24v-8Zm33,54H11V12h7v4c0,1.1.9,2,2,2h24c1.1,0,2-.9,2-2v-4h7v50Z"/><path d="m32,4c-1.66,0-3,1.34-3,3s1.34,3,3,3,3-1.34,3-3-1.34-3-3-3Zm0,4c-.55,0-1-.45-1-1s.45-1,1-1,1,.45,1,1-.45,1-1,1Z"/><path d="m45,27h-26c-.55,0-1,.45-1,1s.45,1,1,1h26c.55,0,1-.45,1-1s-.45-1-1-1Z"/><path d="m45,34h-26c-.55,0-1,.45-1,1s.45,1,1,1h26c.55,0,1-.45,1-1s-.45-1-1-1Z"/><path d="m45,41h-26c-.55,0-1,.45-1,1s.45,1,1,1h26c.55,0,1-.45,1-1s-.45-1-1-1Z"/><path d="m45,48h-26c-.55,0-1,.45-1,1s.45,1,1,1h26c.55,0,1-.45,1-1s-.45-1-1-1Z"/></g></g></svg>