<?xml version="1.0" encoding="UTF-8"?><svg id="uuid-a658cb82-a166-4a9a-a4d6-0c9d7da0243b" xmlns="http://www.w3.org/2000/svg" viewBox="0 0 64 64"><g id="uuid-fb0dd2e1-aeec-4bf2-a60e-68192ad42301"><g id="uuid-bddbd400-89aa-4347-8b6a-4fa6bb5a4d66"><path d="m22.3,28h-12.6c-1.04,0-2.02-.55-2.56-1.44L.44,15.56c-.59-.96-.59-2.16,0-3.12L7.14,1.44c.54-.89,1.52-1.44,2.56-1.44h12.6c1.04,0,2.02.55,2.56,1.44l6.7,11c.59.96.59,2.16,0,3.12l-6.7,11c-.54.89-1.52,1.44-2.56,1.44ZM9.7,2c-.35,0-.67.18-.85.48L2.15,13.48c-.2.32-.2.72,0,1.04l6.7,11c.18.3.51.48.85.48h12.6c.35,0,.67-.18.85-.48l6.7-11c.2-.32.2-.72,0-1.04l-6.7-11c-.18-.3-.5-.48-.85-.48h-12.6Z" fill="#fff"/><path d="m22.3,64h-12.6c-1.04,0-2.02-.55-2.56-1.44L.44,51.56c-.59-.96-.59-2.16,0-3.12l6.7-11c.54-.89,1.52-1.44,2.56-1.44h12.6c1.04,0,2.02.55,2.56,1.44l6.7,11c.59.96.59,2.16,0,3.12l-6.7,11c-.54.89-1.52,1.44-2.56,1.44Zm-12.6-26c-.35,0-.67.18-.85.48l-6.7,11c-.2.32-.2.72,0,1.04l6.7,11c.18.3.51.48.85.48h12.6c.35,0,.67-.18.85-.48l6.7-11c.2-.32.2-.72,0-1.04l-6.7-11c-.18-.3-.5-.48-.85-.48h-12.6Z" fill="#fff"/><path d="m54.3,46h-12.6c-1.04,0-2.02-.55-2.56-1.44l-6.7-11c-.59-.96-.59-2.16,0-3.12l6.7-11c.54-.89,1.52-1.44,2.56-1.44h12.6c1.04,0,2.02.55,2.56,1.44l6.7,11c.59.96.59,2.16,0,3.12l-6.7,11c-.54.89-1.52,1.44-2.56,1.44Zm-12.6-26c-.35,0-.67.18-.85.48l-6.7,11c-.2.32-.2.72,0,1.04l6.7,11c.18.3.51.48.85.48h12.6c.35,0,.67-.18.85-.48l6.7-11c.2-.32.2-.72,0-1.04l-6.7-11c-.18-.3-.51-.48-.85-.48h-12.6Z" fill="#fff"/><path d="m28.47,32.51c-.19-.32-.19-.71,0-1.02l8.38-13.97c.28-.47.13-1.09-.34-1.37-.47-.28-1.09-.13-1.37.34l-8.42,14.03c-.18.3-.51.49-.86.49h-15.87c-.55,0-1,.45-1,1s.45,1,1,1h15.87c.35,0,.68.19.86.49l.03.06s0,0,0,0l8.38,13.97c.19.31.52.49.86.49.17,0,.35-.05.51-.14.47-.28.63-.9.34-1.37l-8.38-13.98Z" fill="#fff"/></g></g></svg>