<?xml version="1.0" encoding="UTF-8"?><svg id="uuid-8a1abf66-a5cd-401e-be8f-94c0789ec7e2" xmlns="http://www.w3.org/2000/svg" viewBox="0 0 64 64"><g id="uuid-9994bf96-8437-4b18-a252-b4cdc89281a2"><path d="m32,64C14.35,64,0,49.64,0,32S14.35,0,32,0s32,14.35,32,32-14.36,32-32,32Zm0-62C15.46,2,2,15.46,2,32s13.46,30,30,30,30-13.46,30-30S48.54,2,32,2Z" fill="#fff"/><path d="m17.87,44.72l26.86-26.86c.39-.39,1.03-.4,1.42,0h0c.39.39.39,1.03,0,1.42l-26.86,26.86c-.39.39-1.03.4-1.42,0h0c-.39-.39-.39-1.03,0-1.42Zm26.86,1.41l-26.86-26.86c-.39-.39-.4-1.03,0-1.42h0c.39-.39,1.03-.39,1.42,0l26.86,26.86c.39.39.4,1.03,0,1.42h0c-.39.39-1.03.39-1.42,0Z" fill="#fff"/></g></svg>