<?xml version="1.0" encoding="UTF-8"?><svg id="uuid-205bb26b-2290-4c9a-bb54-e572dd22c8e3" xmlns="http://www.w3.org/2000/svg" xmlns:xlink="http://www.w3.org/1999/xlink" viewBox="0 0 64 64"><defs><linearGradient id="uuid-227032ed-8ee6-469c-a262-a2e5917b9940" x1="18.4" y1="11.78" x2="45.6" y2="30.83" gradientUnits="userSpaceOnUse"><stop offset="0" stop-color="#3485fe"/><stop offset="1" stop-color="#b3f"/></linearGradient></defs><g id="uuid-83be4e50-76f9-46a8-8d26-0e67bf9bb901"><g id="uuid-f7b2a1ca-44dc-4352-b559-d5432ed2ba31"><path d="m32.09,42.62h-.19c-5.58,0-10.11-4.54-10.11-10.11V10.11C21.79,4.54,26.33,0,31.91,0h.19C37.67,0,42.21,4.54,42.21,10.11v22.39c0,5.58-4.54,10.11-10.11,10.11Zm-.19-40.62c-4.47,0-8.11,3.64-8.11,8.11v22.39c0,4.47,3.64,8.11,8.11,8.11h.19c4.47,0,8.11-3.64,8.11-8.11V10.11c0-4.47-3.64-8.11-8.11-8.11h-.19Z" fill="url(#uuid-227032ed-8ee6-469c-a262-a2e5917b9940)"/><path d="m42.08,54.4h-9.08v-5.44c8.52-.52,15.3-7.57,15.3-16.18v-14.6c0-.55-.45-1-1-1s-1,.45-1,1v14.6c0,7.85-6.42,14.23-14.3,14.23s-14.3-6.38-14.3-14.23v-14.6c0-.55-.45-1-1-1s-1,.45-1,1v14.6c0,8.61,6.78,15.66,15.3,16.18v5.44h-9.08c-4.09,0-7.42,3.33-7.42,7.42,0,1.24,1.29,2.18,3,2.18h29c1.71,0,3-.94,3-2.18,0-4.09-3.33-7.42-7.42-7.42Zm4.42,7.6h-29c-.54,0-.89-.18-1-.27.05-2.95,2.46-5.33,5.42-5.33h20.15c2.96,0,5.37,2.38,5.42,5.33-.11.1-.46.27-1,.27Z"/></g></g></svg>