<?xml version="1.0" encoding="UTF-8"?><svg id="uuid-cc401552-b21e-4d0b-b2d3-7df1b94f69b5" xmlns="http://www.w3.org/2000/svg" viewBox="0 0 64 64"><g id="uuid-9425cee3-aa7b-467c-a189-fbbcd9346ea5"><g id="uuid-6c045501-3363-436c-8b59-9025f2d9bfd2"><path d="m15.68,28.39c-.67,0-1.21.54-1.21,1.21v6.03c0,.67.54,1.21,1.21,1.21s1.21-.54,1.21-1.21v-6.03c0-.67-.54-1.21-1.21-1.21Z"/><path d="m24.85,12.7c-.67,0-1.21.54-1.21,1.21v21.72c0,.67.54,1.21,1.21,1.21s1.21-.54,1.21-1.21V13.9c0-.67-.54-1.21-1.21-1.21Z"/><path d="m34.01,21.14c-.67,0-1.21.54-1.21,1.21v13.28c0,.67.54,1.21,1.21,1.21s1.21-.54,1.21-1.21v-13.28c0-.67-.54-1.21-1.21-1.21Z"/><path d="m54.02,62.31c1.14,1.12,2.64,1.69,4.13,1.69s2.99-.56,4.13-1.69c1.11-1.1,1.72-2.55,1.72-4.1s-.61-3.01-1.72-4.1l-16.41-16.2c2.41-3.81,3.82-8.31,3.82-13.14C49.69,11.11,38.55,0,24.85,0S0,11.11,0,24.77s11.15,24.77,24.85,24.77c4.63,0,8.96-1.29,12.67-3.5l16.49,16.28ZM2.42,24.77C2.42,12.44,12.48,2.42,24.85,2.42s22.43,10.03,22.43,22.35-10.06,22.35-22.43,22.35S2.42,37.09,2.42,24.77Zm58.17,35.83c-1.34,1.33-3.53,1.33-4.87,0l-16.13-15.93c1.84-1.36,3.48-2.95,4.88-4.75l16.12,15.92c.65.64,1,1.48,1,2.38s-.36,1.75-1,2.38Z"/></g></g></svg>