<?xml version="1.0" encoding="UTF-8"?><svg id="uuid-d6d06617-00a8-4e49-ba5b-9aa02fa6dc52" xmlns="http://www.w3.org/2000/svg" viewBox="0 0 64 64"><g id="uuid-e0a2b5f2-bf26-4018-b5d7-0a9055b42513"><g id="uuid-1312ba35-3720-4d77-994e-767292fe04f8"><path d="m61.06,8.51h-11.2v-3.22c0-.55-.45-1-1-1s-1,.45-1,1v3.22h-30.88v-3.51c0-.55-.45-1-1-1s-1,.45-1,1v3.51H2.94c-1.62,0-2.94,1.51-2.94,3.36v44.78c0,1.85,1.32,3.36,2.94,3.36h58.12c1.62,0,2.94-1.51,2.94-3.36V11.87c0-1.85-1.32-3.36-2.94-3.36ZM2.94,10.51h12.05v3.51c0,.55.45,1,1,1s1-.45,1-1v-3.51h30.88v3.7c0,.55.45,1,1,1s1-.45,1-1v-3.7h11.2c.51,0,.94.62.94,1.36v8.5H2v-8.5c0-.74.43-1.36.94-1.36Zm58.12,47.49H2.94c-.51,0-.94-.62-.94-1.36V22.37h60v34.28c0,.72-.44,1.36-.94,1.36Z"/><path d="m32,27.25c-7.36,0-13.35,5.98-13.35,13.32s5.99,13.32,13.35,13.32,13.35-5.98,13.35-13.32-5.99-13.32-13.35-13.32Zm0,24.64c-6.26,0-11.35-5.08-11.35-11.32s5.09-11.32,11.35-11.32,11.35,5.08,11.35,11.32-5.09,11.32-11.35,11.32Z"/><path d="m38.13,36.25l-7.92,7.89-3.99-3.98c-.39-.39-1.02-.39-1.41,0-.39.39-.39,1.02,0,1.41l3.99,3.98c.39.39.91.59,1.42.59s1.03-.2,1.42-.59l7.91-7.89c.39-.39.39-1.02,0-1.41-.39-.39-1.02-.39-1.41,0Z"/></g></g></svg>