<?xml version="1.0" encoding="UTF-8"?><svg id="uuid-33332852-628b-4273-915e-e8e89ed23420" xmlns="http://www.w3.org/2000/svg" xmlns:xlink="http://www.w3.org/1999/xlink" viewBox="0 0 64 64"><defs><linearGradient id="uuid-d48293f7-0de0-4626-91bd-e13c609637ad" x1="25.5" y1="21.61" x2="35.84" y2="28.85" gradientUnits="userSpaceOnUse"><stop offset="0" stop-color="#3485fe"/><stop offset="1" stop-color="#b3f"/></linearGradient></defs><g id="uuid-e403dcc9-00d8-4c23-ad4b-f933456e6849"><g id="uuid-c9d0ef3c-f88e-4512-b11a-27b1968e49ce"><path d="m63.45,8.57c-.36-.37-.84-.57-1.35-.57H1.9c-.51,0-.99.2-1.35.58-.35.37-.55.85-.55,1.36v35.88c0,.51.2,1,.55,1.36.36.37.84.57,1.35.57h21.06v6.23h-4.87c-.55,0-1,.45-1,1.01s.45,1.01,1,1.01h27.83c.55,0,1-.45,1-1.01s-.45-1.01-1-1.01h-4.87v-6.23h21.06c.51,0,.99-.2,1.35-.57.36-.37.55-.85.55-1.36V9.94c0-.51-.2-1-.55-1.36Zm-1.45,1.45v27.82H2V10.02h60Zm-22.96,43.96h-14.08v-6.23h14.08v6.23ZM2,45.73v-5.87h60v5.87H2Z"/><path d="m28.87,31.02c.07,0,.14.01.2.01.35,0,.68-.11.96-.32l7.84-4.95s.06-.04.09-.06c.11-.08.2-.18.28-.29.55-.72.43-1.78-.28-2.35-.03-.02-.06-.05-.09-.07l-7.84-4.95c-.28-.21-.62-.32-.97-.32-.91,0-1.65.75-1.65,1.68v9.95c0,.37.12.74.35,1.03.27.36.66.58,1.1.64Zm.55-10.98l6.87,4.34-6.87,4.34v-8.68Z" fill="url(#uuid-d48293f7-0de0-4626-91bd-e13c609637ad)"/></g></g></svg>