<?xml version="1.0" encoding="UTF-8"?><svg id="uuid-2f3fe7cc-92d4-4ce0-9cc2-5448a717e1db" xmlns="http://www.w3.org/2000/svg" viewBox="0 0 64 64"><g id="uuid-e2c7bad5-9559-4b9b-b010-4112ce96f272"><g id="uuid-d7a919e3-c110-4727-8f36-0c254a443601"><path d="m62.91,27.8l-4.38-7.92c-.7-1.27-2.39-2.27-3.84-2.27h-6.99v-.11c0-1.65-1.35-3-3-3H10.7c-.55,0-1,.45-1,1s.45,1,1,1h34c.55,0,1,.45,1,1v10.53c0,1.65,1.35,3,3,3h12.3c.55,0,1,.45,1,1v8.81c0,.55-.45,1-1,1h-3.56c-.85-1.92-2.77-3.27-5-3.27s-4.15,1.35-5,3.27h-21.82c-.85-1.92-2.77-3.27-5-3.27s-4.15,1.35-5,3.27h-4.93c-.55,0-1,.45-1,1s.45,1,1,1h4.48c0,.06,0,.13,0,.19,0,3.01,2.45,5.46,5.46,5.46s5.46-2.45,5.46-5.46c0-.06,0-.13,0-.19h20.91c0,.06,0,.13,0,.19,0,3.01,2.45,5.46,5.46,5.46s5.46-2.45,5.46-5.46c0-.06,0-.13,0-.19h3.1c1.65,0,3-1.35,3-3v-8.84c0-1.25-.48-3.1-1.09-4.21Zm-42.27,19.7c-1.91,0-3.46-1.55-3.46-3.46s1.55-3.46,3.46-3.46,3.46,1.55,3.46,3.46-1.55,3.46-3.46,3.46Zm31.81,0c-1.91,0-3.46-1.55-3.46-3.46s1.55-3.46,3.46-3.46,3.46,1.55,3.46,3.46-1.55,3.46-3.46,3.46Zm-3.74-18.47c-.55,0-1-.45-1-1v-8.42h6.99c.74,0,1.73.59,2.09,1.23l4.37,7.92c.05.09.1.19.15.3-.1-.01-.2-.03-.3-.03h-12.3Z"/><path d="m20.41,22.08H7.54c-.55,0-1,.45-1,1s.45,1,1,1h12.87c.55,0,1-.45,1-1s-.45-1-1-1Z"/><path d="m17.14,28.54H4.27c-.55,0-1,.45-1,1s.45,1,1,1h12.87c.55,0,1-.45,1-1s-.45-1-1-1Z"/><path d="m13.87,35H1c-.55,0-1,.45-1,1s.45,1,1,1h12.87c.55,0,1-.45,1-1s-.45-1-1-1Z"/></g></g></svg>