<?xml version="1.0" encoding="UTF-8"?><svg id="uuid-b8a546a9-dcaa-45af-b605-cf68e46b2dfb" xmlns="http://www.w3.org/2000/svg" viewBox="0 0 64 64"><g id="uuid-d5b3c7d3-5443-4289-b0ce-8c4a3a7d5a9d"><g id="uuid-cbc1dd27-2299-4b8d-b7b7-ed73ceee9baa"><path d="m29,26H5c-.55,0-1-.45-1-1s.45-1,1-1h24c.55,0,1,.45,1,1s-.45,1-1,1Z"/><path d="m37,40H13c-.55,0-1-.45-1-1s.45-1,1-1h24c.55,0,1,.45,1,1s-.45,1-1,1Z"/><path d="m59.92,32.38c.1-.24.1-.52,0-.76-.05-.12-.12-.23-.22-.33l-8-8c-.39-.39-1.02-.39-1.41,0s-.39,1.02,0,1.41l6.29,6.29h-29.59c-.55,0-1,.45-1,1s.45,1,1,1h29.59l-6.29,6.29c-.39.39-.39,1.02,0,1.41.2.2.45.29.71.29s.51-.1.71-.29l8-8c.09-.09.17-.2.22-.33Z"/><path d="m63,48H1C.45,48,0,47.55,0,47s.45-1,1-1h62c.55,0,1,.45,1,1s-.45,1-1,1Z"/><path d="m63,18H1C.45,18,0,17.55,0,17s.45-1,1-1h62c.55,0,1,.45,1,1s-.45,1-1,1Z"/></g></g></svg>