<?xml version="1.0" encoding="UTF-8"?><svg id="uuid-2bbe21fc-91ff-492c-b629-c758bf54d3a5" xmlns="http://www.w3.org/2000/svg" viewBox="0 0 64 64"><g id="uuid-ebbbbeb4-6192-48ce-a158-83fa81710861"><g id="uuid-20701ef2-0f6d-407c-a1f9-71ed1ce54770"><path d="m28.38,37.21c-.08,0-.16,0-.24-.01-.52-.06-.99-.33-1.32-.75-.27-.35-.42-.78-.42-1.22v-14.56c0-1.09.88-1.98,1.97-1.98.44,0,.87.15,1.22.42l9.24,7.28c.85.67,1,1.92.34,2.77-.1.12-.21.24-.33.34,0,0,0,0,0,0l-9.24,7.28c-.35.28-.77.42-1.21.42Zm-.02-16.52l.05,14.54,9.19-7.29.62.78-.62-.78h0s-9.24-7.25-9.24-7.25Z"/><path d="m55.23,9.5H8.77C3.94,9.5,0,13.46,0,18.32v27.36C0,50.54,3.94,54.5,8.77,54.5h46.46c4.84,0,8.77-3.96,8.77-8.82v-27.36c0-4.86-3.93-8.82-8.77-8.82Zm6.77,36.18c0,3.76-3.04,6.82-6.77,6.82H8.77c-3.73,0-6.77-3.06-6.77-6.82v-27.36c0-3.76,3.04-6.82,6.77-6.82h46.46c3.73,0,6.77,3.06,6.77,6.82v27.36Z"/><path d="m53.86,43.22H16.97v-1.44c0-.55-.45-1-1-1s-1,.45-1,1v1.44h-3.86c-.55,0-1,.45-1,1s.45,1,1,1h3.86v1.44c0,.55.45,1,1,1s1-.45,1-1v-1.44h36.89c.55,0,1-.45,1-1s-.45-1-1-1Z"/></g></g></svg>