<?xml version="1.0" encoding="UTF-8"?><svg id="uuid-9d22e365-2207-422a-9db0-3203d5dcbd96" xmlns="http://www.w3.org/2000/svg" xmlns:xlink="http://www.w3.org/1999/xlink" viewBox="0 0 64 64"><defs><linearGradient id="uuid-9bfe8ab9-0ff7-4a01-9ae2-55435253c51e" x1="13.62" y1="42.07" x2="47.58" y2="65.85" gradientUnits="userSpaceOnUse"><stop offset="0" stop-color="#3485fe"/><stop offset="1" stop-color="#b3f"/></linearGradient><linearGradient id="uuid-c1d376f7-f717-4ecf-86e7-9e163f81e055" x1="14.14" y1="41.22" x2="48.26" y2="65.11" xlink:href="#uuid-9bfe8ab9-0ff7-4a01-9ae2-55435253c51e"/></defs><g id="uuid-3ea20312-ad4b-43f5-805c-5154d98254c9"><g id="uuid-3ca2df96-6887-4d5c-9c2e-02f025187edc"><path d="m51.59,62h-2.5s0,0,0,0v-17.05c0-.47-.18-.91-.51-1.24-.33-.33-.77-.51-1.24-.51h-30.5c-.47,0-.91.18-1.24.52-.33.33-.51.77-.51,1.24v17.05s0,0,0,0h-2.5c-.55,0-1,.45-1,1s.45,1,1,1h39c.55,0,1-.45,1-1s-.45-1-1-1Zm-34.5-16.8h30v16.55h-30v-16.55Z" fill="url(#uuid-9bfe8ab9-0ff7-4a01-9ae2-55435253c51e)"/><path d="m31.64,50.47c-1.65,0-3,1.35-3,3s1.35,3.01,3,3.01,3-1.35,3-3.01-1.35-3-3-3Zm0,4.01c-.55,0-1-.45-1-1.01s.45-1,1-1,1,.45,1,1-.45,1.01-1,1.01Z" fill="url(#uuid-c1d376f7-f717-4ecf-86e7-9e163f81e055)"/><path d="m63.38,52.33c-6.17-11.35-18.23-18.39-31.45-18.39S6.84,40.87.63,52.04c-.27.48-.09,1.09.39,1.36.48.27,1.09.09,1.36-.39,5.86-10.54,17.19-17.08,29.55-17.08s23.88,6.65,29.7,17.35c.18.33.52.52.88.52.16,0,.33-.04.48-.12.48-.26.66-.87.4-1.36Z"/><path d="m32.09,31.62c8.7,0,15.77-7.09,15.77-15.81S40.79,0,32.09,0s-15.77,7.09-15.77,15.81,7.08,15.81,15.77,15.81Zm0-29.62c7.59,0,13.77,6.2,13.77,13.81s-6.18,13.81-13.77,13.81-13.77-6.2-13.77-13.81,6.18-13.81,13.77-13.81Z"/></g></g></svg>