<?xml version="1.0" encoding="UTF-8"?><svg id="uuid-5e98b9a7-f482-4a6f-b966-53f98bf08bb7" xmlns="http://www.w3.org/2000/svg" viewBox="0 0 64 64"><g id="uuid-66c44a9a-801c-4801-970a-e4d4b51de842"><g id="uuid-e1f99aa3-02d3-4857-b492-a11eb23832a5"><path d="m11.48,26.28c.49-.26.67-.87.41-1.35-.26-.49-.87-.67-1.35-.41-2.14,1.16-3.53,4.09-3.53,7.48s1.38,6.32,3.52,7.48c.15.08.31.12.47.12.36,0,.7-.19.88-.52.26-.49.08-1.09-.4-1.35-1.46-.79-2.48-3.14-2.48-5.72s1.02-4.93,2.48-5.72Z"/><path d="m6.48,21.88c.49-.26.67-.87.41-1.35-.26-.49-.87-.67-1.35-.41-3.31,1.78-5.53,6.56-5.53,11.88s2.22,10.1,5.52,11.88c.15.08.31.12.47.12.36,0,.7-.19.88-.52.26-.49.08-1.09-.4-1.35-2.68-1.44-4.48-5.51-4.48-10.12s1.8-8.68,4.48-10.12Z"/><path d="m53.47,24.52c-.49-.26-1.09-.08-1.35.4-.26.49-.08,1.09.4,1.35,1.46.79,2.48,3.14,2.48,5.72s-1.02,4.93-2.48,5.72c-.49.26-.67.87-.41,1.35.18.34.52.53.88.53.16,0,.32-.04.47-.12,2.14-1.16,3.53-4.09,3.53-7.48s-1.38-6.32-3.52-7.48Z"/><path d="m58.48,20.12c-.49-.26-1.09-.08-1.35.4-.26.49-.08,1.09.4,1.35,2.68,1.44,4.48,5.51,4.48,10.12s-1.8,8.68-4.48,10.12c-.49.26-.67.87-.41,1.35.18.33.53.53.88.53.16,0,.32-.04.47-.12,3.31-1.78,5.53-6.56,5.53-11.88s-2.22-10.1-5.52-11.88Z"/><path d="m44.53,2.5h-25.06c-1.57,0-2.86,1.35-2.86,3v53c0,1.65,1.28,3,2.86,3h25.06c1.57,0,2.86-1.35,2.86-3V5.5c0-1.65-1.28-3-2.86-3Zm-25.06,2h25.06c.47,0,.86.45.86,1v4.5h-26.77v-4.5c0-.55.38-1,.86-1Zm25.91,7.5v36.5h-26.77V12h26.77Zm-.86,47.5h-25.06c-.47,0-.86-.45-.86-1v-8h26.77v8c0,.55-.38,1-.86,1Z" fill-rule="evenodd"/><circle cx="32" cy="54.97" r="2"/></g></g></svg>