<?xml version="1.0" encoding="UTF-8"?><svg id="uuid-da6e70e1-0a8b-421a-8938-c56e3ae0fa20" xmlns="http://www.w3.org/2000/svg" viewBox="0 0 64 64"><g id="uuid-421723d4-4c29-4c66-aaec-86db464b7ddb"><g id="uuid-f0c5ecf2-757e-4448-982e-e2969ecfb5d9"><path d="m48,53c-4.82,0-6.75-9.64-8.98-20.8-1.71-8.55-3.84-19.2-7.02-19.2s-5.56,11-7.4,19.84c-2.25,10.82-4.19,20.16-8.6,20.16-4.79,0-6.4-9.47-8.26-20.45-1.48-8.71-3.32-19.55-6.74-19.55C.45,13,0,12.55,0,12s.45-1,1-1c5.11,0,6.86,10.31,8.71,21.22,1.42,8.37,3.19,18.78,6.29,18.78,2.78,0,5.01-10.73,6.64-18.57,2.39-11.5,4.46-21.43,9.36-21.43s6.75,9.64,8.98,20.8c1.71,8.55,3.84,19.2,7.02,19.2s5.02-10.63,6.51-19.17c1.96-11.18,3.65-20.83,8.49-20.83.55,0,1,.45,1,1s-.45,1-1,1c-3.16,0-5.02,10.63-6.51,19.17-1.96,11.18-3.65,20.83-8.49,20.83Z" fill="#fff"/><rect x="0" y="0" width="2" height="64" rx="1" ry="1" fill="#fff"/><rect x="1.5" y="29.5" width="2" height="5" rx="1" ry="1" transform="translate(34.5 29.5) rotate(90)" fill="#fff"/><rect x="31" y="27" width="2" height="10" rx="1" ry="1" transform="translate(64 0) rotate(90)" fill="#fff"/><rect x="47" y="28" width="2" height="8" rx="1" ry="1" transform="translate(80 -16) rotate(90)" fill="#fff"/><rect x="15" y="28" width="2" height="8" rx="1" ry="1" transform="translate(48 16) rotate(90)" fill="#fff"/><rect x="60.5" y="29.5" width="2" height="5" rx="1" ry="1" transform="translate(93.5 -29.5) rotate(90)" fill="#fff"/></g></g></svg>