<?xml version="1.0" encoding="UTF-8"?><svg id="uuid-894bcda8-dd7a-4e6f-a4ed-a106814d47d1" xmlns="http://www.w3.org/2000/svg" viewBox="0 0 64 64"><g id="uuid-54a63b6a-bbe1-4776-96e6-4cdf6375b60b"><g id="uuid-260ce5c7-2809-4be4-8452-6a4b8aa28e66"><path d="m29,31.5h-12c-.55,0-1-.45-1-1s.45-1,1-1h12c.55,0,1,.45,1,1s-.45,1-1,1Z"/><path d="m27,37.5H11c-.55,0-1-.45-1-1s.45-1,1-1h16c.55,0,1,.45,1,1s-.45,1-1,1Z"/><path d="m25,43.5H1C.45,43.5,0,43.05,0,42.5s.45-1,1-1h24c.55,0,1,.45,1,1s-.45,1-1,1Z"/><path d="m34,36.5c0,2.76,2.24,5,5,5s5-2.24,5-5c0-2.42-1.73-4.45-4.02-4.9,0-.03.02-.06.02-.1v-8c0-.55-.45-1-1-1s-1,.45-1,1v8s.02.06.02.1c-2.29.46-4.02,2.48-4.02,4.9Zm5-3c1.65,0,3,1.35,3,3s-1.35,3-3,3-3-1.35-3-3,1.35-3,3-3Z"/><path d="m56.87,19.04l1.54-1.54,2.12,2.12c.2.2.45.29.71.29s.51-.1.71-.29c.39-.39.39-1.02,0-1.41l-5.66-5.66c-.39-.39-1.02-.39-1.41,0s-.39,1.02,0,1.41l2.12,2.12-1.58,1.58c-4.16-3.63-9.53-5.91-15.42-6.14,0,0,0-.02,0-.02v-3h5c1.65,0,3-1.35,3-3s-1.35-3-3-3h-12c-1.65,0-3,1.35-3,3s1.35,3,3,3h5v3s0,.02,0,.03c-7.21.28-13.89,3.62-18.46,9.27-.35.43-.28,1.06.15,1.41.43.35,1.06.28,1.41-.15,4.39-5.44,10.92-8.56,17.89-8.56,12.68,0,23,10.32,23,23s-10.32,23-23,23c-6.98,0-13.5-3.12-17.89-8.56-.35-.43-.98-.5-1.41-.15-.43.35-.5.98-.15,1.41,4.78,5.91,11.87,9.3,19.45,9.3,13.79,0,25-11.22,25-25,0-6.79-2.72-12.95-7.13-17.46Zm-23.87-12.54c-.55,0-1-.45-1-1s.45-1,1-1h12c.55,0,1,.45,1,1s-.45,1-1,1h-12Z"/></g></g></svg>