<?xml version="1.0" encoding="UTF-8"?><svg id="uuid-bb7d8b05-0cd9-404a-90c8-b32a1f64c60d" xmlns="http://www.w3.org/2000/svg" xmlns:xlink="http://www.w3.org/1999/xlink" viewBox="0 0 64 64"><defs><linearGradient id="uuid-6356ee5b-5c9f-40dd-bcf4-70ad861b86fd" x1="20.74" y1="19.63" x2="47.83" y2="38.59" gradientUnits="userSpaceOnUse"><stop offset="0" stop-color="#3485fe"/><stop offset="1" stop-color="#b3f"/></linearGradient></defs><g id="uuid-ec2d0420-f084-4a6b-a5c6-085a270e6f77"><g id="uuid-e24d37dd-4f47-4f4a-80d3-6175cc6f74c3"><path d="m47.76,40.43h-22.14c-.55,0-1-.45-1-1s.45-1,1-1h22.14c.55,0,1,.45,1,1s-.45,1-1,1Zm0-7.43h-22.14c-.55,0-1-.45-1-1s.45-1,1-1h22.14c.55,0,1,.45,1,1s-.45,1-1,1Zm0-7.43h-22.14c-.55,0-1-.45-1-1s.45-1,1-1h22.14c.55,0,1,.45,1,1s-.45,1-1,1Zm-7.53-7.69h-14.61c-.55,0-1-.45-1-1s.45-1,1-1h14.61c.55,0,1,.45,1,1s-.45,1-1,1Z" fill="url(#uuid-6356ee5b-5c9f-40dd-bcf4-70ad861b86fd)"/><path d="m57.7,10.35l-3.2-3.11-6.56-6.38s0,0,0,0l-.6-.58c-.19-.18-.44-.28-.7-.28h-28.66c-1.68,0-3.05,1.37-3.05,3.05v11.81h-6.11c-1.55,0-2.82,1.26-2.82,2.81v43.51c0,1.55,1.26,2.81,2.82,2.81h32.7c1.55,0,2.82-1.26,2.82-2.81v-5.9h10.61c1.68,0,3.05-1.37,3.05-3.05V11.07c0-.27-.11-.53-.3-.72Zm-2.98-.1h-6.37c-.34,0-.62-.28-.62-.62V3.45l4.86,4.72,2.13,2.07Zm-12.39,50.94c0,.45-.37.81-.82.81H8.82c-.45,0-.82-.36-.82-.81V17.67c0-.45.37-.81.82-.81h6.11v35.38c0,1.68,1.37,3.05,3.05,3.05h24.36v5.9Zm12.61-7.9H17.98c-.58,0-1.05-.47-1.05-1.05V3.05c0-.58.47-1.05,1.05-1.05h27.75v7.63c0,1.44,1.18,2.62,2.62,2.62h7.65v39.99c0,.58-.47,1.05-1.05,1.05Z" fill="#fff"/></g></g></svg>