<?xml version="1.0" encoding="UTF-8"?><svg id="uuid-b67d2eaf-d73b-4628-8752-28141bc73475" xmlns="http://www.w3.org/2000/svg" viewBox="0 0 64 64"><g id="uuid-9ed3c20f-1ce2-430c-85b5-24d3e2d5ce0f"><g id="uuid-9f557c9a-bb4b-455c-912c-83c0c568cbd8"><path d="m40.91,62.5c-.37,0-.74-.07-1.1-.2l-7.42-2.82c-.26-.1-.54-.1-.8,0l-7.42,2.82c-1.36.52-2.92,0-3.72-1.21l-4.34-6.63c-.15-.23-.38-.4-.65-.47l-7.66-2.07c-1.41-.38-2.38-1.71-2.3-3.16l.4-7.9c.01-.27-.07-.54-.24-.75l-4.98-6.16c-.92-1.13-.92-2.78,0-3.91l4.98-6.16c.17-.21.26-.48.25-.75l-.4-7.9c-.07-1.45.9-2.78,2.3-3.16l7.66-2.07c.27-.07.5-.24.65-.47l4.34-6.63c.8-1.22,2.36-1.72,3.72-1.21l7.42,2.82c.26.1.54.1.8,0l7.42-2.82c1.36-.52,2.92-.01,3.72,1.21l4.34,6.62c.15.23.38.4.65.47l7.66,2.07c1.41.38,2.37,1.71,2.3,3.16l-.4,7.9c-.01.27.07.54.25.75l4.98,6.16c.92,1.13.92,2.78,0,3.91l-4.98,6.16c-.17.21-.26.48-.25.75l.4,7.9c.07,1.45-.89,2.78-2.3,3.16l-7.66,2.07c-.27.07-.49.24-.65.47l-4.34,6.62c-.59.9-1.59,1.41-2.62,1.41Zm-8.91-5.09c.38,0,.75.07,1.11.2l7.42,2.82c.49.19,1.05,0,1.34-.43l4.34-6.63c.42-.64,1.06-1.1,1.8-1.3l7.66-2.07c.5-.14.85-.61.82-1.13l-.4-7.9c-.04-.76.21-1.51.69-2.11l4.98-6.16c.33-.41.33-.98,0-1.4l-4.98-6.16c-.48-.6-.73-1.35-.69-2.11l.4-7.9c.03-.52-.32-.99-.83-1.13l-7.66-2.07c-.74-.2-1.38-.66-1.8-1.3l-4.34-6.62c-.29-.44-.85-.62-1.34-.43l-7.42,2.82c-.71.27-1.5.27-2.22,0l-7.42-2.82c-.49-.18-1.05,0-1.34.43l-4.34,6.62c-.42.64-1.06,1.1-1.8,1.3l-7.66,2.07c-.51.14-.85.6-.83,1.13l.4,7.9c.04.76-.21,1.51-.69,2.11l-4.98,6.16c-.33.41-.33.98,0,1.4l4.98,6.16c.48.59.73,1.34.69,2.11l-.4,7.9c-.03.52.32.99.83,1.13l7.66,2.07c.74.2,1.38.66,1.8,1.3l4.34,6.63c.29.44.85.62,1.34.43l7.42-2.82c.36-.14.73-.2,1.11-.2Z"/><path d="m28.45,41.78c-.76,0-1.52-.29-2.1-.87l-7.81-7.79c-.39-.39-.39-1.02,0-1.41.39-.39,1.02-.39,1.41,0l7.81,7.79c.38.38,1,.38,1.38,0l15.48-15.44c.39-.39,1.02-.39,1.41,0,.39.39.39,1.02,0,1.41l-15.48,15.44c-.58.58-1.34.87-2.1.87Z"/></g></g></svg>