<?xml version="1.0" encoding="UTF-8"?><svg id="uuid-fa608b65-0b59-4063-8db0-27c3e395b328" xmlns="http://www.w3.org/2000/svg" xmlns:xlink="http://www.w3.org/1999/xlink" viewBox="0 0 64 64"><defs><linearGradient id="uuid-80d08de4-e26d-4d4a-a311-dd9568dfd292" x1="3" y1="1" x2="61" y2="1" gradientUnits="userSpaceOnUse"><stop offset="0" stop-color="#3485fe"/><stop offset="1" stop-color="#b3f"/></linearGradient></defs><g id="uuid-5ea90ea3-e2c5-42e9-801e-8d6dc952b5ab"><g id="uuid-f81e2367-1447-4348-86c6-fbd391de0677"><path d="m60,2H4c-.55,0-1-.45-1-1s.45-1,1-1h56c.55,0,1,.45,1,1s-.45,1-1,1Z" fill="url(#uuid-80d08de4-e26d-4d4a-a311-dd9568dfd292)"/><path d="m52.71,42.29c-.39-.39-1.02-.39-1.41,0l-18.29,18.29V11c0-.55-.45-1-1-1s-1,.45-1,1v49.59l-18.29-18.29c-.39-.39-1.02-.39-1.41,0s-.39,1.02,0,1.41l20,20c.09.09.2.17.33.22.12.05.25.08.38.08s.26-.03.38-.08c.12-.05.23-.12.33-.22l20-20c.39-.39.39-1.02,0-1.41Z" fill="#fff"/></g></g></svg>