<?xml version="1.0" encoding="UTF-8"?><svg id="uuid-8af4153e-f918-4bce-8d13-5f799a2a31a5" xmlns="http://www.w3.org/2000/svg" viewBox="0 0 64 64"><g id="uuid-c1a97fba-68b5-4b1d-ab56-054884c12a66"><path id="uuid-82c7c03d-1135-4814-acdc-6f36a4ba87df" d="m64,31l-12-23h-15.1c-.46-2.28-2.48-4-4.9-4s-4.44,1.72-4.9,4h-15.1L0,31h0s0,0,0,0v2c0,6.63,5.37,11,12,11s12-4.37,12-11v-2h0,0S13.04,10,13.04,10h14.06c.4,1.96,1.94,3.5,3.9,3.9v44.1h-15c-.55,0-1,.45-1,1s.45,1,1,1h32c.55,0,1-.45,1-1s-.45-1-1-1h-15V13.9c1.96-.4,3.5-1.94,3.9-3.9h14.06l-10.96,21h0s0,0,0,0v2c0,6.63,5.37,11,12,11s12-4.37,12-11v-2h0,0Zm-52,11h0c-5.52,0-9.99-3.47-9.99-8.99h19.99c0,5.52-4.47,8.99-9.99,8.99Zm9.73-11H2.24L12,12.48l9.73,18.52Zm10.27-19c-1.65,0-3-1.35-3-3s1.35-3,3-3,3,1.35,3,3-1.35,3-3,3Zm20,.48l9.73,18.52h-19.48l9.75-18.52Zm0,29.52h0c-5.52,0-9.99-3.47-9.99-8.99h19.99c0,5.52-4.47,8.99-9.99,8.99Z"/></g></svg>