<?xml version="1.0" encoding="UTF-8"?><svg id="uuid-465a2c3e-40b2-453e-a59d-19626dcaf15f" xmlns="http://www.w3.org/2000/svg" xmlns:xlink="http://www.w3.org/1999/xlink" viewBox="0 0 64 64"><defs><linearGradient id="uuid-8e5e2fbe-db98-42bb-ba00-eef46fcc6f1e" x1="16" y1="32" x2="48" y2="32" gradientUnits="userSpaceOnUse"><stop offset="0" stop-color="#3485fe"/><stop offset="1" stop-color="#b3f"/></linearGradient><linearGradient id="uuid-28c5a02c-8f40-4e5f-b2a3-169679c38204" x1="25" x2="39" xlink:href="#uuid-8e5e2fbe-db98-42bb-ba00-eef46fcc6f1e"/></defs><g id="uuid-fc881834-48d2-4d74-8ff8-26e565e1ab2b"><g id="uuid-89f2bb34-64ee-442d-892a-fe324ecefb92"><path d="m63.83,40.05l-5.31-7.69c-.31-.45-.93-.53-1.34-.19l-7.12,5.97c-.4.33-.45.93-.13,1.33h0c.32.41.91.47,1.3.13l5.56-4.67c-1.65,12.54-12.27,22.16-24.8,22.16-10.9,0-20.59-7.29-23.86-17.84-.15-.49-.64-.78-1.13-.64h0c-.5.14-.8.68-.64,1.19,3.51,11.34,13.91,19.18,25.63,19.18,13.28,0,24.58-10.08,26.57-23.3l3.76,5.44c.3.43.87.53,1.29.23h0c.42-.3.52-.89.22-1.32Z" fill="#fff"/><path d="m13.94,25.85c.4-.33.45-.93.13-1.33h0c-.32-.41-.91-.47-1.3-.13l-5.56,4.67c1.65-12.54,12.27-22.16,24.8-22.16,10.9,0,20.59,7.29,23.86,17.84.15.49.64.78,1.13.64h0c.5-.14.8-.68.64-1.19-3.51-11.34-13.91-19.18-25.63-19.18-13.28,0-24.58,10.08-26.57,23.3l-3.76-5.44c-.3-.43-.87-.53-1.29-.23h0c-.42.3-.52.89-.22,1.32l5.31,7.69c.31.45.93.53,1.34.19l7.12-5.97Z" fill="#fff"/><path id="uuid-b6d9f942-5a54-4758-9bad-733a0c0907cb" d="m44.69,38.81l-.04.05-2.94-.53c-.37-.08-.74.03-1,.29l-.05.07c-.57.74-1.23,1.4-1.97,1.98-.32.25-.47.66-.38,1.05l.62,2.94-.05.04c-.8.61-1.76,1.01-2.76,1.16h-.07s-1.62-2.52-1.62-2.52c-.22-.34-.62-.53-1.02-.48-.92.12-1.86.12-2.78,0-.4-.06-.81.14-1.03.48l-1.64,2.54h-.07c-.99-.16-1.95-.56-2.76-1.16l-.06-.04.02-.07.63-2.87c.09-.4-.06-.81-.39-1.05-.74-.57-1.4-1.23-1.98-1.97-.25-.34-.68-.48-1.09-.38l-2.93.65-.04-.06c-.61-.8-1.01-1.76-1.17-2.76v-.07s2.52-1.62,2.52-1.62c.34-.22.53-.62.48-1.02-.12-.92-.12-1.86,0-2.79.06-.4-.13-.8-.47-1.02l-2.54-1.61v-.07c.16-1,.56-1.95,1.16-2.76l.04-.05,2.94.64c.4.09.81-.06,1.06-.38.56-.74,1.23-1.41,1.97-1.98.32-.25.47-.66.39-1.06l-.65-2.93.06-.04c.8-.61,1.76-1.01,2.76-1.16h.07s1.61,2.52,1.61,2.52c.22.34.62.53,1.03.47.92-.12,1.86-.12,2.78,0,.4.05.81-.14,1.03-.48l1.62-2.53h.07c1,.16,1.95.56,2.76,1.16l.06.04-.02.07-.63,2.86c-.09.4.07.81.39,1.06.75.54,1.44,1.17,2.03,1.88.25.32.67.47,1.06.38l2.93-.65.04.06c.61.8,1.01,1.76,1.16,2.76v.07s-2.52,1.62-2.52,1.62c-.34.22-.53.62-.47,1.02.12.93.12,1.86,0,2.79-.05.4.14.8.48,1.02l2.54,1.61v.07c-.16,1-.56,1.95-1.17,2.76m3.31-3.24v-.05c.01-.37-.17-.73-.48-.93l-2.52-1.61v-.06c.05-.61.05-1.24,0-1.85v-.06s2.51-1.61,2.51-1.61c.31-.2.5-.55.48-.92-.07-1.96-.84-3.83-2.17-5.27-.25-.27-.63-.39-1-.31l-2.91.64-.04-.05c-.41-.48-.86-.93-1.34-1.34l-.05-.04v-.06s.64-2.86.64-2.86c.06-.36-.07-.73-.35-.97-1.43-1.34-3.29-2.12-5.24-2.21h-.04c-.37-.01-.73.18-.93.49l-1.6,2.52h-.06c-.62-.05-1.24-.05-1.85,0h-.06s-1.61-2.51-1.61-2.51c-.19-.3-.53-.49-.88-.49-.01,0-.03,0-.04,0-1.96.07-3.83.84-5.27,2.17-.31.26-.44.68-.34,1.07l.65,2.92-.05.04c-.48.4-.93.84-1.34,1.31l-.04.05-2.88-.67c-.36-.08-.74.04-.99.31-1.33,1.44-2.1,3.32-2.16,5.28-.01.37.18.72.49.92l2.52,1.61v.07c-.05.61-.05,1.24,0,1.85v.06s-.05.04-.05.04l-2.49,1.6c-.31.2-.49.56-.48.93v.05c.08,1.95.86,3.82,2.2,5.25.25.27.64.39.99.31l2.92-.64.04.05c.42.46.87.9,1.34,1.31l.05.04v.06s-.64,2.86-.64,2.86c-.07.35.04.72.28.97h.03l.03.03c1.44,1.32,3.31,2.09,5.27,2.16h.04c.36,0,.69-.18.88-.48l1.61-2.52h.07c.61.05,1.23.05,1.84,0h.07s1.61,2.51,1.61,2.51c.2.3.54.49.89.49.01,0,.03,0,.04,0h.05c1.95-.08,3.82-.86,5.25-2.2.27-.25.39-.63.31-.99l-.65-2.92.05-.04c.45-.4.89-.83,1.28-1.29l.04-.05,2.92.64c.36.08.74-.04.99-.31,1.34-1.43,2.11-3.3,2.19-5.26" fill="url(#uuid-8e5e2fbe-db98-42bb-ba00-eef46fcc6f1e)" fill-rule="evenodd"/><path d="m32,27c2.76,0,5,2.24,5,5s-2.24,5-5,5-5-2.24-5-5,2.24-5,5-5m0-2c-3.87,0-7,3.13-7,7s3.13,7,7,7,7-3.13,7-7-3.13-7-7-7h0Z" fill="url(#uuid-28c5a02c-8f40-4e5f-b2a3-169679c38204)"/></g></g></svg>