<?xml version="1.0" encoding="UTF-8"?><svg id="uuid-368a987e-37ab-436f-b5c9-53b2700b07ac" xmlns="http://www.w3.org/2000/svg" viewBox="0 0 64 64"><g id="uuid-48da30e9-e3f7-4970-8a5d-6981d1c9eb51"><g id="uuid-150c2d89-8565-4817-9092-cd8a345f49cc"><path d="m39.31,34.72c-2.27-.42-4.6-.63-6.93-.63-13.49,0-25.85,7.11-32.25,18.55-.27.48-.1,1.09.38,1.36.15.09.32.13.49.13.35,0,.69-.18.87-.51,6.05-10.81,17.75-17.53,30.51-17.53,2.21,0,4.42.2,6.57.6.54.1,1.06-.26,1.16-.8.1-.54-.26-1.06-.8-1.16Z" fill="#fff"/><path d="m31.85,0c-8.74,0-15.85,7.09-15.85,15.8s7.11,15.8,15.85,15.8,15.85-7.09,15.85-15.8S40.59,0,31.85,0Zm0,29.59c-7.64,0-13.85-6.19-13.85-13.8S24.22,2,31.85,2s13.85,6.19,13.85,13.8-6.21,13.8-13.85,13.8Z" fill="#fff"/><path d="m49.68,35.45c-7.9,0-14.32,6.4-14.32,14.27s6.42,14.27,14.32,14.27,14.32-6.4,14.32-14.27-6.42-14.27-14.32-14.27Zm0,26.55c-6.79,0-12.32-5.51-12.32-12.27s5.53-12.27,12.32-12.27,12.32,5.51,12.32,12.27-5.53,12.27-12.32,12.27Z" fill="#fff"/><path d="m55.21,46.03h-1.82v-1.81c0-1.38-1.12-2.5-2.51-2.5h-2.4c-1.38,0-2.51,1.12-2.51,2.5v1.81h-1.82c-1.38,0-2.51,1.12-2.51,2.5v2.39c0,1.38,1.12,2.5,2.51,2.5h1.82s0,1.81,0,1.81c0,1.38,1.12,2.5,2.51,2.5h2.4c1.38,0,2.51-1.12,2.51-2.5v-1.81h1.82c1.38,0,2.51-1.12,2.51-2.5v-2.39c0-1.38-1.12-2.5-2.51-2.5Zm.51,4.89c0,.28-.23.5-.51.5h-2.82c-.27,0-.52.1-.71.29s-.29.44-.29.71v2.81c0,.28-.23.5-.51.5h-2.4c-.28,0-.51-.23-.51-.5v-2.81c0-.55-.45-1-1-1h-2.82c-.28,0-.51-.22-.51-.5v-2.39c0-.28.23-.5.51-.5h2.82c.55,0,1-.45,1-1v-2.81c0-.28.23-.5.51-.5h2.4c.28,0,.51.23.51.5v2.81c0,.55.45,1,1,1h2.82c.28,0,.51.23.51.5v2.39Z" fill="#fff"/></g></g></svg>