<?xml version="1.0" encoding="UTF-8"?><svg id="uuid-c2808210-754b-410e-8f7a-05a91414625a" xmlns="http://www.w3.org/2000/svg" xmlns:xlink="http://www.w3.org/1999/xlink" viewBox="0 0 64 64"><defs><linearGradient id="uuid-0ce6e9bb-fc4d-4a18-b74c-e6dadfe84291" x1="38.61" y1="31.95" x2="52" y2="31.95" gradientUnits="userSpaceOnUse"><stop offset="0" stop-color="#3485fe"/><stop offset="1" stop-color="#b3f"/></linearGradient><linearGradient id="uuid-e32fa3c0-4db4-45e7-857f-b123725dd821" x1="12" y1="32.05" x2="25.4" y2="32.05" gradientUnits="userSpaceOnUse"><stop offset="0" stop-color="#b735ff"/><stop offset="1" stop-color="#3485fe"/></linearGradient></defs><g id="uuid-e42164ab-1ed7-4299-be92-04d3d832c41c"><g id="uuid-8e7ed2c3-fc8b-4a8f-be51-14e15835951f"><g id="uuid-5f1e0ab2-1cfa-40ba-a629-ebb39f134b55"><path d="m32,5c-14.89,0-27,12.11-27,27s12.11,27,27,27,27-12.11,27-27S46.89,5,32,5Zm0,52c-13.79,0-25-11.21-25-25S18.21,7,32,7s25,11.21,25,25-11.21,25-25,25Z" fill="#fff"/><circle cx="32" cy="23" r="1" fill="#fff"/><circle cx="35.4" cy="23.66" r="1" fill="#fff"/><circle cx="32" cy="13" r="1" fill="#fff"/><circle cx="32" cy="18" r="1" fill="#fff"/><circle cx="28.6" cy="23.66" r="1" fill="#fff"/><circle cx="25" cy="19.88" r="1" fill="#fff"/><circle cx="28.5" cy="18.44" r="1" fill="#fff"/><circle cx="35.5" cy="18.44" r="1" fill="#fff"/><circle cx="24.26" cy="14.63" r="1" fill="#fff"/><circle cx="39" cy="19.88" r="1" fill="#fff"/><circle cx="39.73" cy="14.63" r="1" fill="#fff"/><circle cx="35.95" cy="13.41" r="1" fill="#fff"/><circle cx="28.05" cy="13.41" r="1" fill="#fff"/><circle cx="32" cy="51" r="1" fill="#fff"/><circle cx="28.05" cy="50.59" r="1" fill="#fff"/><circle cx="20.82" cy="16.63" r="1" fill="#fff"/><circle cx="43.18" cy="16.62" r="1" fill="#fff"/><circle cx="32" cy="41" r="1" fill="#fff"/><circle cx="35.4" cy="40.34" r="1" fill="#fff"/><circle cx="32" cy="46" r="1" fill="#fff"/><circle cx="28.6" cy="40.34" r="1" fill="#fff"/><circle cx="25" cy="44.12" r="1" fill="#fff"/><circle cx="28.5" cy="45.56" r="1" fill="#fff"/><circle cx="35.5" cy="45.56" r="1" fill="#fff"/><circle cx="24.26" cy="49.37" r="1" fill="#fff"/><circle cx="39" cy="44.12" r="1" fill="#fff"/><circle cx="39.73" cy="49.37" r="1" fill="#fff"/><circle cx="35.95" cy="50.59" r="1" fill="#fff"/><circle cx="20.82" cy="47.37" r="1" fill="#fff"/><circle cx="43.18" cy="47.38" r="1" fill="#fff"/></g><g id="uuid-afabb758-ec7d-42ad-88b4-22471a2eec8a"><path d="m46.84,44.84c-.22,0-.44-.07-.62-.22-.43-.34-.5-.97-.16-1.41,2.58-3.22,3.94-7.1,3.94-11.22s-1.39-8.08-4.01-11.31c-.35-.43-.28-1.06.15-1.41.43-.35,1.06-.28,1.41.15,2.87,3.54,4.46,8.01,4.46,12.57s-1.51,8.89-4.38,12.47c-.2.25-.49.38-.78.38Zm-2.76-3.98c1.91-2.6,2.92-5.66,2.92-8.87s-1.04-6.35-3-8.97c-.33-.44-.96-.53-1.4-.2-.44.33-.53.96-.2,1.4,1.7,2.27,2.6,4.96,2.6,7.77s-.88,5.43-2.53,7.68c-.33.45-.23,1.07.21,1.4.18.13.39.19.59.19.31,0,.61-.14.81-.41Zm-3.55-3.67c.96-1.57,1.47-3.37,1.47-5.2s-.53-3.72-1.54-5.32c-.29-.47-.91-.61-1.38-.31-.47.29-.61.91-.31,1.38.81,1.28,1.23,2.75,1.23,4.25s-.41,2.9-1.18,4.16c-.29.47-.14,1.09.33,1.38.16.1.34.15.52.15.34,0,.67-.17.85-.48Z" fill="url(#uuid-0ce6e9bb-fc4d-4a18-b74c-e6dadfe84291)"/><path d="m17.23,44.94c-.29,0-.58-.13-.78-.37-2.87-3.55-4.45-8.01-4.45-12.57s1.51-8.88,4.38-12.47c.34-.43.97-.5,1.41-.16.43.34.5.97.16,1.41-2.58,3.23-3.94,7.1-3.94,11.22s1.39,8.07,4.01,11.31c.35.43.28,1.06-.15,1.41-.19.15-.41.22-.63.22Zm4.18-3.78c.44-.33.53-.96.2-1.4-1.71-2.27-2.61-4.96-2.61-7.76s.88-5.41,2.54-7.67c.33-.44.23-1.07-.21-1.4-.45-.33-1.07-.23-1.4.21-1.92,2.6-2.93,5.66-2.93,8.86s1.04,6.34,3.01,8.96c.2.26.5.4.8.4.21,0,.42-.07.6-.2Zm3.52-3.54c.47-.29.61-.91.31-1.38-.81-1.29-1.24-2.75-1.24-4.24s.41-2.89,1.18-4.15c.29-.47.14-1.09-.33-1.38-.47-.29-1.09-.14-1.38.33-.96,1.57-1.47,3.37-1.47,5.2s.54,3.7,1.55,5.31c.19.3.51.47.85.47.18,0,.37-.05.53-.15Z" fill="url(#uuid-e32fa3c0-4db4-45e7-857f-b123725dd821)"/></g></g></g></svg>