<?xml version="1.0" encoding="UTF-8"?><svg id="uuid-393771c1-2149-4d15-a50c-1b949344dec1" xmlns="http://www.w3.org/2000/svg" viewBox="0 0 64 64"><g id="uuid-d85ee4a7-0231-4222-af7c-78939335f696"><g id="uuid-fa589190-5e5f-4d86-a61a-faa5df8d47df"><path d="m29,26H5c-.55,0-1-.45-1-1s.45-1,1-1h24c.55,0,1,.45,1,1s-.45,1-1,1Z" fill="#fff"/><path d="m37,40H13c-.55,0-1-.45-1-1s.45-1,1-1h24c.55,0,1,.45,1,1s-.45,1-1,1Z" fill="#fff"/><path d="m59.92,32.38c.1-.24.1-.52,0-.76-.05-.12-.12-.23-.22-.33l-8-8c-.39-.39-1.02-.39-1.41,0s-.39,1.02,0,1.41l6.29,6.29h-29.59c-.55,0-1,.45-1,1s.45,1,1,1h29.59l-6.29,6.29c-.39.39-.39,1.02,0,1.41.2.2.45.29.71.29s.51-.1.71-.29l8-8c.09-.09.17-.2.22-.33Z" fill="#fff"/><path d="m63,48H1C.45,48,0,47.55,0,47s.45-1,1-1h62c.55,0,1,.45,1,1s-.45,1-1,1Z" fill="#fff"/><path d="m63,18H1C.45,18,0,17.55,0,17s.45-1,1-1h62c.55,0,1,.45,1,1s-.45,1-1,1Z" fill="#fff"/></g></g></svg>