<?xml version="1.0" encoding="UTF-8"?><svg id="uuid-6cd0a619-3e27-4a0e-8a08-fc5b3d3b23d9" xmlns="http://www.w3.org/2000/svg" xmlns:xlink="http://www.w3.org/1999/xlink" viewBox="0 0 64 64"><defs><linearGradient id="uuid-fa91410a-8439-4755-b63c-236eb200b45a" x1="34" y1="33" x2="51" y2="33" gradientUnits="userSpaceOnUse"><stop offset="0" stop-color="#3485fe"/><stop offset="1" stop-color="#b3f"/></linearGradient></defs><g id="uuid-4e237127-8110-4136-87c2-783dfaf0a238"><g id="uuid-2699eac8-92b8-438b-aea7-dd938778f9ab"><path d="m57,0h-30c-1.1,0-2,.9-2,2v35.37c-1.82-.87-3.85-1.37-6-1.37-7.73,0-14,6.27-14,14s6.27,14,14,14c5.58,0,10.39-3.27,12.63-8h25.37c1.1,0,2-.9,2-2V2c0-1.1-.9-2-2-2Zm-26.7,54c-.25.7-.56,1.37-.92,2-2.08,3.58-5.95,6-10.38,6-6.62,0-12-5.38-12-12s5.38-12,12-12c2.19,0,4.23.6,6,1.62.72.42,1.39.91,2,1.46,2.45,2.2,4,5.38,4,8.92,0,1.4-.26,2.75-.7,4Zm26.7,0h-24.59c.38-1.27.59-2.61.59-4,0-4.76-2.38-8.95-6-11.48V12h30v42Zm0-44h-30V2h30v8Z" fill="#fff"/><path d="m49.13,25.65c.53-.36.87-.97.87-1.65v-5c0-1.1-.9-2-2-2h-11c-1.1,0-2,.9-2,2v5c0,.69.35,1.29.87,1.65-1.15,1.09-1.87,2.64-1.87,4.35v17c0,1.1.9,2,2,2h13c1.1,0,2-.9,2-2v-17c0-1.71-.72-3.26-1.87-4.35Zm-12.13-1.65v-5h11v5h-11Zm12,23h-13v-17c0-2.21,1.79-4,4-4h5c2.21,0,4,1.79,4,4v17Z" fill="url(#uuid-fa91410a-8439-4755-b63c-236eb200b45a)"/></g></g></svg>