<?xml version="1.0" encoding="UTF-8"?><svg id="uuid-eab4e743-992b-4bfa-ae3f-df92f26dda8a" xmlns="http://www.w3.org/2000/svg" xmlns:xlink="http://www.w3.org/1999/xlink" viewBox="0 0 64 64"><defs><linearGradient id="uuid-b36bd152-6951-4c79-9674-42c44d5a476e" x1="19.51" y1="21.25" x2="41.59" y2="36.72" gradientUnits="userSpaceOnUse"><stop offset="0" stop-color="#3485fe"/><stop offset="1" stop-color="#b3f"/></linearGradient><linearGradient id="uuid-20de8ec8-f043-4e6e-b332-98e44a91a2f3" x1="19.01" y1="22.2" x2="41.18" y2="37.72" xlink:href="#uuid-b36bd152-6951-4c79-9674-42c44d5a476e"/></defs><g id="uuid-59cd47fd-196b-4f2e-8044-6bba33c87f23"><g id="uuid-015ce6e2-223d-430e-8b9d-afa3adf72209"><path d="m32,19.5c-5.83,0-10.58,4.71-10.58,10.5s4.75,10.5,10.58,10.5,10.58-4.71,10.58-10.5-4.75-10.5-10.58-10.5Zm0,19c-4.73,0-8.58-3.81-8.58-8.5s3.85-8.5,8.58-8.5,8.58,3.81,8.58,8.5-3.85,8.5-8.58,8.5Z" fill="url(#uuid-b36bd152-6951-4c79-9674-42c44d5a476e)"/><path d="m36.58,29.17l-6.05-4c-.31-.2-.7-.22-1.03-.05-.32.17-.53.51-.53.88v8c0,.37.2.71.53.88.15.08.31.12.47.12.19,0,.38-.06.55-.17l6.05-4c.28-.18.45-.5.45-.83s-.17-.65-.45-.83Zm-5.6,2.97v-4.28l3.24,2.14-3.24,2.14Z" fill="url(#uuid-20de8ec8-f043-4e6e-b332-98e44a91a2f3)"/><path d="m63.48,44.51c-.33-.33-.77-.51-1.24-.51h-3.28V15.25c0-.47-.18-.91-.52-1.24-.33-.33-.77-.51-1.24-.51H6.8c-.47,0-.91.18-1.24.51-.33.33-.52.77-.52,1.24v28.75H1.76c-.47,0-.91.18-1.24.51C.18,44.84,0,45.28,0,45.75v3C0,49.22.18,49.66.52,49.99c.33.33.77.51,1.24.51h60.49c.47,0,.91-.18,1.24-.51.33-.33.52-.77.52-1.24v-3c0-.47-.18-.91-.52-1.24ZM7.04,15.5h49.92v28.5H7.04V15.5Zm54.96,33H2v-2.5h60v2.5Z" fill="#fff"/></g></g></svg>