<?xml version="1.0" encoding="UTF-8"?><svg id="uuid-5bcfdb38-7c22-43bc-8eb5-0a8882468bc7" xmlns="http://www.w3.org/2000/svg" xmlns:xlink="http://www.w3.org/1999/xlink" viewBox="0 0 64 64"><defs><linearGradient id="uuid-2a147b3d-3876-4031-94c4-e277011de153" x1="14.44" y1="22.6" x2="47.63" y2="45.84" gradientUnits="userSpaceOnUse"><stop offset="0" stop-color="#3485fe"/><stop offset="1" stop-color="#b3f"/></linearGradient></defs><g id="uuid-eb975cce-f038-481a-b56f-79885876f10f"><g id="uuid-7a499fec-e14d-47b6-b3e9-87abaa4b7972"><path d="m56.09,11.41L45.17.85C44.61.3,43.87,0,43.08,0H10.01C8.35,0,7,1.35,7,3v58c0,1.65,1.35,3,3.01,3h43.99c1.66,0,3.01-1.35,3.01-3V13.56c0-.81-.33-1.59-.91-2.15Zm-10.88-7.74l8.58,8.3h-7.73c-.47,0-.85-.38-.85-.85V3.67Zm8.78,58.33H10.01c-.55,0-1.01-.45-1.01-1V3c0-.55.45-1,1.01-1h33.08s.09.02.13.02v9.09c0,1.57,1.28,2.85,2.85,2.85h8.94v47.04c0,.55-.45,1-1.01,1Z"/><path d="m45.79,47.73h-26.54c-.55,0-1-.45-1-1s.45-1,1-1h26.54c.55,0,1,.45,1,1s-.45,1-1,1Zm0-7.25h-26.54c-.55,0-1-.45-1-1s.45-1,1-1h26.54c.55,0,1,.45,1,1s-.45,1-1,1Zm0-7.25h-26.54c-.55,0-1-.45-1-1s.45-1,1-1h26.54c.55,0,1,.45,1,1s-.45,1-1,1Zm0-7.25h-26.54c-.55,0-1-.45-1-1s.45-1,1-1h26.54c.55,0,1,.45,1,1s-.45,1-1,1Zm-9.03-7.5h-17.51c-.55,0-1-.45-1-1s.45-1,1-1h17.51c.55,0,1,.45,1,1s-.45,1-1,1Z" fill="url(#uuid-2a147b3d-3876-4031-94c4-e277011de153)"/></g></g></svg>