<?xml version="1.0" encoding="UTF-8"?><svg id="uuid-d1948993-e580-4526-844d-0e2406f647a1" xmlns="http://www.w3.org/2000/svg" viewBox="0 0 64 64"><g id="uuid-9ed96dfa-76a3-49c0-a1e9-9cc17f864943"><g id="uuid-7572ff29-d19d-42a1-a41d-cc8f6a4b6636"><path d="m56.09,11.41L45.17.85C44.61.3,43.87,0,43.08,0H10.01C8.35,0,7,1.35,7,3v58c0,1.65,1.35,3,3.01,3h43.99c1.66,0,3.01-1.35,3.01-3V13.56c0-.81-.33-1.59-.91-2.15Zm-10.88-7.74l8.58,8.3h-7.73c-.47,0-.85-.38-.85-.85V3.67Zm8.78,58.33H10.01c-.55,0-1.01-.45-1.01-1V3c0-.55.45-1,1.01-1h33.08s.09.02.13.02v9.09c0,1.57,1.28,2.85,2.85,2.85h8.94v47.04c0,.55-.45,1-1.01,1Z"/><path d="m45.79,47.73h-26.54c-.55,0-1-.45-1-1s.45-1,1-1h26.54c.55,0,1,.45,1,1s-.45,1-1,1Zm0-7.25h-26.54c-.55,0-1-.45-1-1s.45-1,1-1h26.54c.55,0,1,.45,1,1s-.45,1-1,1Zm0-7.25h-26.54c-.55,0-1-.45-1-1s.45-1,1-1h26.54c.55,0,1,.45,1,1s-.45,1-1,1Zm0-7.25h-26.54c-.55,0-1-.45-1-1s.45-1,1-1h26.54c.55,0,1,.45,1,1s-.45,1-1,1Zm-9.03-7.5h-17.51c-.55,0-1-.45-1-1s.45-1,1-1h17.51c.55,0,1,.45,1,1s-.45,1-1,1Z"/></g></g></svg>