<?xml version="1.0" encoding="UTF-8"?><svg id="uuid-88d59785-2774-4c66-93f3-22224cea592c" xmlns="http://www.w3.org/2000/svg" xmlns:xlink="http://www.w3.org/1999/xlink" viewBox="0 0 64 64"><defs><linearGradient id="uuid-60be3066-2947-43e4-b4d0-ac74d9fb03bc" x1="0" y1="37.5" x2="24" y2="37.5" gradientUnits="userSpaceOnUse"><stop offset="0" stop-color="#3485fe"/><stop offset="1" stop-color="#b3f"/></linearGradient><linearGradient id="uuid-43e08355-7f76-4a50-b9b1-e57fd257abf2" x1="40" x2="64" xlink:href="#uuid-60be3066-2947-43e4-b4d0-ac74d9fb03bc"/></defs><g id="uuid-8204728a-a3b5-4bfe-96dd-1d65fbc8d1b8"><g id="uuid-f3a1197b-0353-437c-b0ab-00812189b605"><path d="m52,8h-15.1c-.46-2.28-2.48-4-4.9-4s-4.44,1.72-4.9,4h-15.1L0,31l1.84.76L12,12.48l10.09,19.19,1.91-.67L13.04,10h14.06c.4,1.96,1.94,3.5,3.9,3.9v44.1h-15c-.55,0-1,.45-1,1s.45,1,1,1h32c.55,0,1-.45,1-1s-.45-1-1-1h-15V13.9c1.96-.4,3.5-1.94,3.9-3.9h14.06l-10.96,21,1.87.73,10.13-19.25,10.17,19.34,1.83-.82-12-23Zm-20,4c-1.65,0-3-1.35-3-3s1.35-3,3-3,3,1.35,3,3-1.35,3-3,3Z"/><path d="m0,33C0,39.63,5.37,44,12,44s12-4.37,12-11v-2H0v2Zm22,0c0,5.52-4.47,8.99-9.99,8.99h0c-5.52,0-9.99-3.47-9.99-8.99h19.99Z" fill="url(#uuid-60be3066-2947-43e4-b4d0-ac74d9fb03bc)"/><path d="m40,31v2c0,6.63,5.37,11,12,11s12-4.37,12-11v-2h-24Zm12,11h0c-5.52,0-9.99-3.47-9.99-8.99h19.99c0,5.52-4.47,8.99-9.99,8.99Z" fill="url(#uuid-43e08355-7f76-4a50-b9b1-e57fd257abf2)"/></g></g></svg>