<?xml version="1.0" encoding="UTF-8"?><svg id="uuid-eed51c77-f9f9-410e-b1c5-004ac90e56d5" xmlns="http://www.w3.org/2000/svg" viewBox="0 0 64 64"><g id="uuid-00dd8243-9c70-447d-9ab8-35e5daf91470"><g id="uuid-3efc4d26-e373-4d46-8dc8-084cfbfc120d"><path d="m52.11,35.72h0c.55,0,1,.45,1,1v30.78c0,.56-.45,1.01-1.01,1.01h0c-.55,0-1-.45-1-1v-30.78c0-.56.45-1.01,1.01-1.01Z" transform="translate(-21.59 52.1) rotate(-44.99)" fill="#fff"/><path d="m30.39,30.4h6.03c1.11,0,2.01.9,2.01,2.01v2.01c0,1.11-.9,2.01-2.01,2.01h-6.03c-1.11,0-2.01-.9-2.01-2.01v-2.01c0-1.11.9-2.01,2.01-2.01Z" transform="translate(-13.85 33.4) rotate(-44.99)" fill="#fff"/><path d="m37.38,30.35h2.01c1.11,0,2.01.9,2.01,2.01v12.06c0,1.11-.9,2.01-2.01,2.01h-2.01c-1.11,0-2.01-.9-2.01-2.01v-12.06c0-1.11.9-2.01,2.01-2.01Z" transform="translate(-15.91 38.38) rotate(-44.99)" fill="#fff"/><path d="m21.34,33.33c-.54-.04-1-.19-1.35-.53L.29,12.93c-.39-.39-.38-1.02,0-1.41h0c.39-.39,1.02-.38,1.41,0l19.65,19.81c.13,0,.45-.1.79-.44l8.63-8.59c.34-.34.44-.67.44-.8L11.57,1.7c-.39-.39-.38-1.02,0-1.41h0c.39-.39,1.02-.38,1.41,0l19.71,19.86c.85.86.63,2.42-.51,3.55l-8.63,8.59c-.65.65-1.45,1.02-2.21,1.02Z" fill="#fff"/><path d="m27.22,31.73h0c-.81-.05-1.58-.4-2.16-.98l-1.37-1.37s0,0,0-.01l5.67-5.65s0,0,.01,0l1.49,1.5c1.12,1.13,1.11,2.95-.01,4.07l-1.73,1.72c-.5.5-1.2.76-1.91.72Zm-.72-2.35l.1.1c.16.17.38.26.61.26h0c.23,0,.45-.09.61-.25l1.62-1.62c.34-.34.34-.9,0-1.24l-.1-.1-2.86,2.85Z" fill="#fff"/><polygon points="29.35 18.02 17.98 29.36 17.97 29.36 16.58 27.96 16.58 27.95 27.95 16.61 27.96 16.61 29.35 18.01 29.35 18.02" fill="#fff"/><polygon points="25.8 14.47 14.42 25.8 14.41 25.8 13.02 24.41 13.02 24.39 24.4 13.06 24.41 13.06 25.8 14.45 25.8 14.47" fill="#fff"/></g></g></svg>