<?xml version="1.0" encoding="UTF-8"?><svg id="uuid-600fbf8b-2a67-4377-8480-3b02139cd970" xmlns="http://www.w3.org/2000/svg" xmlns:xlink="http://www.w3.org/1999/xlink" viewBox="0 0 64 64"><defs><linearGradient id="uuid-60a08140-5d58-42de-a483-b71e829ecfee" x1="14" y1="32" x2="44" y2="32" gradientUnits="userSpaceOnUse"><stop offset="0" stop-color="#3485fe"/><stop offset="1" stop-color="#b3f"/></linearGradient></defs><g id="uuid-415dffb7-42e3-4bbb-b665-d8e4a61da279"><g id="uuid-02f37990-c9a4-458e-a566-92b0df0d3daa"><path d="m23.38,57c-.12,0-.25-.02-.37-.07-.44-.18-.7-.64-.61-1.11l3.32-18.56-10.58,1.52c-.39.05-.78-.12-.99-.45-.21-.33-.21-.76,0-1.09L33.78,7.45c.26-.4.77-.55,1.21-.38.44.18.7.64.61,1.1l-3.32,18.56,10.57-1.52c.39-.06.78.12.99.45.21.33.21.76,0,1.09l-19.62,29.79c-.19.29-.51.45-.83.45Zm3.57-21.92c.27,0,.53.11.72.31.22.23.32.55.26.87l-2.71,15.13,15.72-23.87-9.74,1.4c-.33.04-.64-.06-.86-.29-.22-.23-.32-.55-.27-.87l2.7-15.14-15.72,23.87,9.75-1.4s.1,0,.14,0Z" fill="url(#uuid-60a08140-5d58-42de-a483-b71e829ecfee)"/><path d="m20,49H3c-1.65,0-3-1.35-3-3v-28c0-1.65,1.35-3,3-3h20c.55,0,1,.45,1,1s-.45,1-1,1H3c-.55,0-1,.45-1,1v28c0,.55.45,1,1,1h17c.55,0,1,.45,1,1s-.45,1-1,1Z"/><path d="m62,24h-4v-6c0-1.65-1.35-3-3-3h-17c-.55,0-1,.45-1,1s.45,1,1,1h17c.55,0,1,.45,1,1v28c0,.55-.45,1-1,1h-21c-.55,0-1,.45-1,1s.45,1,1,1h21c1.65,0,3-1.35,3-3v-6h4c1.1,0,2-.9,2-2v-12c0-1.1-.9-2-2-2Zm0,13c0,.55-.45,1-1,1h-3v-12h3c.55,0,1,.45,1,1v10Z"/></g></g></svg>