<?xml version="1.0" encoding="UTF-8"?><svg id="uuid-29790fbe-da13-41c6-8542-4bd452fbaec9" xmlns="http://www.w3.org/2000/svg" viewBox="0 0 64 64"><g id="uuid-22c4ba8f-487a-4066-b7e9-79764bc48770"><g id="uuid-3eb0c67d-dd0e-41a4-9550-5c5ecbc39a1e"><path d="m6.96,48.5h10.1c-.21-.65-.4-1.32-.59-2H5.75c-2.23-4.03-3.56-8.62-3.72-13.5h12.64c0-.33-.01-.66-.01-1s0-.67.01-1H2.03c.16-4.88,1.49-9.47,3.72-13.5h10.73c.18-.68.38-1.35.59-2H6.96c4.07-6.16,10.34-10.73,17.69-12.59C26.87,1.04,29.36,0,32,0,14.35,0,0,14.36,0,32s14.35,32,32,32c-2.64,0-5.13-1.04-7.35-2.91-7.35-1.86-13.62-6.43-17.69-12.59Z" fill="#fff"/><path d="m32,0C34.56,0,36.98,1.03,39.17,2.87c7.42,1.83,13.77,6.42,17.87,12.63h-10.18c.21.65.41,1.32.6,2h10.8c2.23,4.03,3.56,8.62,3.72,13.5h-12.64c0,.33.01.66.01,1s0,.67-.01,1h12.64c-.16,4.88-1.49,9.47-3.72,13.5h-10.8c-.19.68-.39,1.35-.6,2h10.18c-4.1,6.2-10.45,10.8-17.87,12.63-2.19,1.84-4.61,2.87-7.17,2.87,17.65,0,32-14.36,32-32S49.65,0,32,0Z" fill="#fff"/><path d="m33,61.97v.23h-2v-.23c-2.18-.07-4.3-.37-6.35-.89,2.22,1.87,4.7,2.91,7.35,2.91s4.98-1.03,7.17-2.87c-1.99.49-4.05.78-6.17.85Z" fill="#fff"/><path d="m31,61.93v.05c.33.01.66.03,1,.03-.34,0-.67-.03-1-.07Z" fill="#fff"/><path d="m32,62c.34,0,.67-.01,1-.03v-.05c-.33.04-.66.07-1,.07Z" fill="#fff"/><path d="m31,61.97v.23h2v-.23c-.33.01-.66.03-1,.03s-.67-.01-1-.03Z" fill="#fff"/><path d="m49.33,31c-.08-4.85-.75-9.42-1.88-13.5-.19-.68-.39-1.35-.6-2-1.81-5.51-4.49-9.94-7.69-12.63C36.98,1.03,34.56,0,32,0s-5.13,1.04-7.35,2.91c-3.19,2.68-5.82,7.08-7.59,12.59-.21.65-.4,1.32-.59,2-1.09,4.05-1.73,8.62-1.81,13.5,0,.33-.01.66-.01,1s0,.67.01,1c.08,4.88.72,9.45,1.81,13.5.18.68.38,1.35.59,2,1.77,5.51,4.4,9.9,7.59,12.59,2.04.52,4.16.82,6.35.89v-.05c-4.93-.62-9.23-5.81-11.81-13.43h11.81v13.43c.33.04.66.07,1,.07s.67-.03,1-.07v-13.43h11.81c-2.58,7.61-6.88,12.81-11.81,13.43v.05c2.12-.07,4.18-.36,6.17-.85,3.2-2.69,5.88-7.11,7.69-12.63.21-.65.41-1.32.6-2,1.13-4.08,1.8-8.65,1.88-13.5,0-.33.01-.66.01-1s0-.67-.01-1Zm-2,0h-14.33v-13.5h12.43c1.14,4.03,1.82,8.62,1.9,13.5Zm-2.53-15.5h-11.81V2.07c4.93.62,9.23,5.81,11.81,13.43ZM31,2.07v13.43h-11.81c2.58-7.61,6.88-12.81,11.81-13.43Zm-12.43,15.43h12.43v13.5h-14.33c.08-4.88.76-9.47,1.9-13.5Zm0,29c-1.14-4.03-1.82-8.62-1.9-13.5h14.33v13.5h-12.43Zm26.86,0h-12.43v-13.5h14.33c-.08,4.88-.76,9.47-1.9,13.5Z" fill="#fff"/></g></g></svg>