<?xml version="1.0" encoding="UTF-8"?><svg id="uuid-c0f7ffc4-fbcd-4c09-a203-8c92691e2779" xmlns="http://www.w3.org/2000/svg" viewBox="0 0 64 64"><g id="uuid-1dfdc2a9-e629-428a-9c67-da9d70577337"><g id="uuid-de71fad0-1160-40b2-af34-5ee98ba3a625"><path d="m32,0C14.33,0,0,14.33,0,32s14.33,32,32,32,32-14.33,32-32S49.67,0,32,0Zm0,62c-16.54,0-30-13.46-30-30S15.46,2,32,2s30,13.46,30,30-13.46,30-30,30Z" fill="#fff"/><path d="m38.43,18h-9.29l-10.31,16.04v6.55h12.74v5.41h6.86v-5.41h2.74v-5.45h-2.74v-17.14Zm-6.86,17.14h-6.55l6.47-10.82h.08v10.82Z" fill="#fff"/></g></g></svg>