<?xml version="1.0" encoding="UTF-8"?><svg id="uuid-2a7190af-e4f2-446f-a98e-7d8b87330f3d" xmlns="http://www.w3.org/2000/svg" xmlns:xlink="http://www.w3.org/1999/xlink" viewBox="0 0 64 64"><defs><linearGradient id="uuid-587f3fe7-69b1-45e2-b066-e1bb892ad0d6" x1="23.34" y1="24.43" x2="36.19" y2="33.43" gradientUnits="userSpaceOnUse"><stop offset="0" stop-color="#3485fe"/><stop offset="1" stop-color="#b3f"/></linearGradient></defs><g id="uuid-cfd4ead0-b569-471b-a2fa-76eeaa99fe54"><g id="uuid-614ffd03-9e31-4d38-ade7-5a769b0b9780"><path d="m28.38,37.21c-.08,0-.16,0-.24-.01-.52-.06-.99-.33-1.32-.75-.27-.35-.42-.78-.42-1.22v-14.56c0-1.09.88-1.98,1.97-1.98.44,0,.87.15,1.22.42l9.24,7.28c.85.67,1,1.92.34,2.77-.1.12-.21.24-.33.34,0,0,0,0,0,0l-9.24,7.28c-.35.28-.77.42-1.21.42Zm-.02-16.52l.05,14.54,9.19-7.29.62.78-.62-.78h0s-9.24-7.25-9.24-7.25Z" fill="url(#uuid-587f3fe7-69b1-45e2-b066-e1bb892ad0d6)"/><path d="m55.23,9.5H8.77C3.94,9.5,0,13.46,0,18.32v27.36C0,50.54,3.94,54.5,8.77,54.5h46.46c4.84,0,8.77-3.96,8.77-8.82v-27.36c0-4.86-3.93-8.82-8.77-8.82Zm6.77,36.18c0,3.76-3.04,6.82-6.77,6.82H8.77c-3.73,0-6.77-3.06-6.77-6.82v-27.36c0-3.76,3.04-6.82,6.77-6.82h46.46c3.73,0,6.77,3.06,6.77,6.82v27.36Z" fill="#fff"/><path d="m53.86,43.22H16.97v-1.44c0-.55-.45-1-1-1s-1,.45-1,1v1.44h-3.86c-.55,0-1,.45-1,1s.45,1,1,1h3.86v1.44c0,.55.45,1,1,1s1-.45,1-1v-1.44h36.89c.55,0,1-.45,1-1s-.45-1-1-1Z" fill="#fff"/></g></g></svg>