<?xml version="1.0" encoding="UTF-8"?><svg id="uuid-5203f22e-9a56-4e03-8da5-688d9d1a554d" xmlns="http://www.w3.org/2000/svg" xmlns:xlink="http://www.w3.org/1999/xlink" viewBox="0 0 64 64"><defs><linearGradient id="uuid-f2042de9-abe6-49f6-904f-c0e6e2e7cd17" x1="10" y1="19.06" x2="30" y2="19.06" gradientUnits="userSpaceOnUse"><stop offset="0" stop-color="#3485fe"/><stop offset="1" stop-color="#b3f"/></linearGradient><linearGradient id="uuid-7a08deed-9e1f-41c9-a088-c391ac129f47" y1="26.05" x2="26" y2="26.05" xlink:href="#uuid-f2042de9-abe6-49f6-904f-c0e6e2e7cd17"/><linearGradient id="uuid-f6c90652-1c94-40a1-91d9-48cbe8c294b0" y1="40.03" x2="21" y2="40.03" xlink:href="#uuid-f2042de9-abe6-49f6-904f-c0e6e2e7cd17"/><linearGradient id="uuid-1ed1204e-d25b-4a43-bdd2-bbfb4c75ad3a" y1="47.02" x2="21" y2="47.02" xlink:href="#uuid-f2042de9-abe6-49f6-904f-c0e6e2e7cd17"/><linearGradient id="uuid-3357afda-b41f-44bd-bafd-a645511ea406" y1="33.04" x2="21" y2="33.04" xlink:href="#uuid-f2042de9-abe6-49f6-904f-c0e6e2e7cd17"/></defs><g id="uuid-3f4198da-8267-4a81-b5a5-9e691e72dfae"><g id="uuid-187505e2-a4b0-4c2a-98ec-da5ec0b0eb1f"><path d="m11.03,20.06h17.95c.57,0,1.03-.45,1.03-1s-.46-1-1.03-1H11.03c-.57,0-1.03.45-1.03,1s.46,1,1.03,1Z" fill="url(#uuid-f2042de9-abe6-49f6-904f-c0e6e2e7cd17)"/><path d="m11,27.05h14c.24,0,.47-.09.65-.25,0,0,.02-.01.02-.02.67-.61.26-1.72-.65-1.72h-14.02c-.55,0-1,.45-1,1s.45,1,1,1Z" fill="url(#uuid-7a08deed-9e1f-41c9-a088-c391ac129f47)"/><path d="m19.87,39.03h-8.74c-.62,0-1.13.45-1.13,1s.5,1,1.13,1h8.74c.62,0,1.13-.45,1.13-1s-.51-1-1.13-1Z" fill="url(#uuid-f6c90652-1c94-40a1-91d9-48cbe8c294b0)"/><path d="m20.91,46.63c-.15-.37-.5-.61-.88-.61h-9.06c-.53,0-.97.45-.97,1s.43,1,.97,1h9.07c.68,0,1.15-.72.88-1.37,0,0,0-.01,0-.02Z" fill="url(#uuid-1ed1204e-d25b-4a43-bdd2-bbfb4c75ad3a)"/><path d="m10.99,34.04h9.02c.41,0,.76-.26.91-.64,0,0,0-.01,0-.02.25-.64-.22-1.34-.91-1.34h-9.02c-.55,0-.99.45-.99,1s.44,1,.99,1Z" fill="url(#uuid-3357afda-b41f-44bd-bafd-a645511ea406)"/><path d="m62.69,56.35l-9.65-9.64c1.25-2.28,1.97-4.89,1.97-7.68,0-4.56-1.93-8.67-5-11.58v-13.91c0-.81-.33-1.59-.91-2.15L38.17.84c-.56-.54-1.31-.84-2.09-.84H3.01C1.35,0,0,1.34,0,3v57.92c0,1.65,1.35,3,3.01,3h43.99c1.66,0,3.01-1.34,3.01-3v-4.57l6.34,6.33c.88.87,2.02,1.31,3.17,1.31s2.3-.44,3.17-1.31c1.75-1.75,1.75-4.59,0-6.33Zm-9.69-17.32c0,7.71-6.28,13.98-14,13.98s-14-6.27-14-13.98,6.28-13.98,14-13.98,14,6.27,14,13.98ZM38.21,3.66l8.58,8.29h-7.73c-.47,0-.85-.38-.85-.84V3.66Zm9.79,57.26c0,.55-.45,1-1.01,1H3.01c-.55,0-1.01-.45-1.01-1V3c0-.55.45-1,1.01-1h33.08s.09.02.13.02v9.08c0,1.57,1.28,2.84,2.85,2.84h8.94v11.88c-2.56-1.75-5.66-2.77-9-2.77-8.84,0-16,7.15-16,15.98s7.16,15.98,16,15.98c2.79,0,5.41-.71,7.69-1.97l1.31,1.31v6.56Zm13.27.36c-.47.47-1.09.73-1.76.73s-1.29-.26-1.76-.73l-9.35-9.34c1.35-.98,2.53-2.16,3.51-3.51l9.35,9.34c.47.47.73,1.09.73,1.76s-.26,1.29-.73,1.76Z" fill="#fff"/></g></g></svg>