<?xml version="1.0" encoding="UTF-8"?><svg id="uuid-e03943de-b26c-4c69-b3c7-d4586a6ce729" xmlns="http://www.w3.org/2000/svg" xmlns:xlink="http://www.w3.org/1999/xlink" viewBox="0 0 64 64"><defs><linearGradient id="uuid-4703f8dc-fd96-4e99-b357-b69e7c3ec44d" x1="0" y1="44.5" x2="43" y2="44.5" gradientUnits="userSpaceOnUse"><stop offset="0" stop-color="#3485fe"/><stop offset="1" stop-color="#b3f"/></linearGradient></defs><g id="uuid-e9910dec-c7df-4a77-9041-35746e2ee985"><g id="uuid-adac74ba-8d6d-444c-b713-f6454b5241a5"><rect y="57.5" width="42" height="2" rx="1" ry="1"/><path d="m50,52.83c-.36,0-.71-.2-.89-.54-.25-.49-.06-1.09.43-1.35,7.68-3.97,12.46-11.8,12.46-20.44,0-12.68-10.32-23-23-23s-23,10.32-23,23c0,.59.03,1.22.09,1.92.04.55-.36,1.03-.91,1.08-.56.04-1.03-.36-1.08-.91-.06-.76-.09-1.44-.09-2.08,0-13.79,11.21-25,25-25s25,11.21,25,25c0,9.39-5.19,17.9-13.54,22.22-.15.08-.3.11-.46.11Z"/><path d="m34,35.5c-4.96,0-9,4.04-9,9s4.04,9,9,9,9-4.04,9-9-4.04-9-9-9Zm0,16c-3.86,0-7-3.14-7-7s3.14-7,7-7,7,3.14,7,7-3.14,7-7,7Zm-11-6c0,4.41-3.59,8-8,8H1c-.55,0-1-.45-1-1s.45-1,1-1h14c3.31,0,6-2.69,6-6s-2.69-6-6-6H1c-.55,0-1-.45-1-1s.45-1,1-1h14c4.41,0,8,3.59,8,8Z" fill="url(#uuid-4703f8dc-fd96-4e99-b357-b69e7c3ec44d)"/><path d="m7.64,33.5c-.53,0-.97-.41-1-.95-.03-.54-.05-1.09-.05-1.64,0-11.06,5.56-21.25,14.87-27.25.46-.3,1.08-.17,1.38.3.3.46.17,1.08-.3,1.38-8.74,5.64-13.95,15.19-13.95,25.57,0,.52.02,1.03.05,1.53.03.55-.39,1.02-.95,1.05-.02,0-.04,0-.05,0Z"/></g></g></svg>