<?xml version="1.0" encoding="UTF-8"?><svg id="uuid-abbe9f43-258f-4bea-8d24-830d4c198856" xmlns="http://www.w3.org/2000/svg" xmlns:xlink="http://www.w3.org/1999/xlink" viewBox="0 0 64 64"><defs><linearGradient id="uuid-9fc590ec-04f1-4254-983e-11661585d250" x1="8.63" y1="23.28" x2="34.1" y2="41.11" gradientUnits="userSpaceOnUse"><stop offset="0" stop-color="#3485fe"/><stop offset="1" stop-color="#b3f"/></linearGradient><linearGradient id="uuid-19ccd597-7549-4024-9d82-2c767b8dce87" x1="22.56" y1="15.05" x2="42.63" y2="29.1" xlink:href="#uuid-9fc590ec-04f1-4254-983e-11661585d250"/></defs><g id="uuid-cf4fc725-80ac-4df1-95d3-c5f6a5a6d080"><g id="uuid-9174f398-181f-4729-8aef-596647694658"><path d="m1.79,60s-.09,0-.14,0c-.47-.04-.9-.25-1.21-.61C.15,59.06,0,58.65,0,58.22V5.78C0,5.3.19,4.85.53,4.51c.33-.33.78-.51,1.25-.51h60.43c.48,0,.92.18,1.26.52.34.33.52.78.52,1.26v40.38c0,.48-.19.92-.53,1.26-.33.33-.78.52-1.26.52H17.57c-.57,0-1.12.2-1.56.57l-13.07,11.08c-.33.28-.73.42-1.15.42Zm.21-54v51.75l12.72-10.78c.79-.67,1.81-1.04,2.85-1.04h44.43V6H2Z" fill="#fff"/><path d="m30.74,35.83c-1.62,0-2.95,1.31-2.95,2.93s1.32,2.93,2.95,2.93,2.94-1.31,2.94-2.93-1.32-2.93-2.94-2.93Zm0,3.86c-.52,0-.95-.42-.95-.93s.42-.93.95-.93.94.42.94.93-.42.93-.94.93Z" fill="url(#uuid-9fc590ec-04f1-4254-983e-11661585d250)"/><path d="m39.82,16.89c-.56-3.92-4.28-6.7-8.53-6.32-3.68.32-6.64,2.93-7.2,6.35-.09.55.28,1.06.83,1.15.54.09,1.06-.28,1.15-.83.41-2.51,2.63-4.43,5.4-4.68,3.16-.28,5.97,1.75,6.38,4.61.42,2.92-.89,5.9-3.41,7.78l-1.64,1.22c-2.11,1.57-3.23,4-3.01,6.5.05.52.48.91,1,.91.03,0,.06,0,.09,0,.55-.05.96-.54.91-1.08-.16-1.8.67-3.56,2.21-4.72l1.64-1.22c3.11-2.32,4.71-6.02,4.2-9.67Z" fill="url(#uuid-19ccd597-7549-4024-9d82-2c767b8dce87)"/></g></g></svg>