<?xml version="1.0" encoding="UTF-8"?><svg id="uuid-fb4c91c6-7084-4602-b138-9f92f2f4083e" xmlns="http://www.w3.org/2000/svg" xmlns:xlink="http://www.w3.org/1999/xlink" viewBox="0 0 64 64"><defs><linearGradient id="uuid-b952ce7c-7f0e-4ba5-94ef-e4c43e8235e7" x1="-.14" y1="24.22" x2="14.8" y2="34.67" gradientUnits="userSpaceOnUse"><stop offset="0" stop-color="#3485fe"/><stop offset="1" stop-color="#b3f"/></linearGradient><linearGradient id="uuid-990f03aa-defb-4c23-b90c-d756bcebbb35" x1="-3.06" y1="25.68" x2="11.61" y2="35.95" xlink:href="#uuid-b952ce7c-7f0e-4ba5-94ef-e4c43e8235e7"/><linearGradient id="uuid-933c1d1c-deb6-423c-93c2-5e7f84b3bca0" x1="44.43" y1="25.98" x2="62.54" y2="38.67" xlink:href="#uuid-b952ce7c-7f0e-4ba5-94ef-e4c43e8235e7"/><linearGradient id="uuid-1dada54e-3b8b-4fd0-8c49-96f9ed0d3d9b" x1="47.2" y1="24.41" x2="65.08" y2="36.94" xlink:href="#uuid-b952ce7c-7f0e-4ba5-94ef-e4c43e8235e7"/></defs><g id="uuid-0e9db83a-5bf9-4c18-bfdf-82e29148330d"><g id="uuid-7e9b6ea5-8054-4934-bb40-4872bcbd0a7e"><path d="m11.48,26.28c.49-.26.67-.87.41-1.35-.26-.49-.87-.67-1.35-.41-2.14,1.16-3.53,4.09-3.53,7.48s1.38,6.32,3.52,7.48c.15.08.31.12.47.12.36,0,.7-.19.88-.52.26-.49.08-1.09-.4-1.35-1.46-.79-2.48-3.14-2.48-5.72s1.02-4.93,2.48-5.72Z" fill="url(#uuid-b952ce7c-7f0e-4ba5-94ef-e4c43e8235e7)"/><path d="m6.48,21.88c.49-.26.67-.87.41-1.35-.26-.49-.87-.67-1.35-.41C2.22,21.9,0,26.68,0,32s2.22,10.1,5.52,11.88c.15.08.31.12.47.12.36,0,.7-.19.88-.52.26-.49.08-1.09-.4-1.35-2.68-1.44-4.48-5.51-4.48-10.12s1.8-8.68,4.48-10.12Z" fill="url(#uuid-990f03aa-defb-4c23-b90c-d756bcebbb35)"/><path d="m53.47,24.52c-.49-.26-1.09-.08-1.35.4-.26.49-.08,1.09.4,1.35,1.46.79,2.48,3.14,2.48,5.72s-1.02,4.93-2.48,5.72c-.49.26-.67.87-.41,1.35.18.34.52.53.88.53.16,0,.32-.04.47-.12,2.14-1.16,3.53-4.09,3.53-7.48s-1.38-6.32-3.52-7.48Z" fill="url(#uuid-933c1d1c-deb6-423c-93c2-5e7f84b3bca0)"/><path d="m58.48,20.12c-.49-.26-1.09-.08-1.35.4-.26.49-.08,1.09.4,1.35,2.68,1.44,4.48,5.51,4.48,10.12s-1.8,8.68-4.48,10.12c-.49.26-.67.87-.41,1.35.18.33.53.53.88.53.16,0,.32-.04.47-.12,3.31-1.78,5.53-6.56,5.53-11.88s-2.22-10.1-5.52-11.88Z" fill="url(#uuid-1dada54e-3b8b-4fd0-8c49-96f9ed0d3d9b)"/><path d="m44.53,2.5h-25.06c-1.57,0-2.86,1.35-2.86,3v53c0,1.65,1.28,3,2.86,3h25.06c1.57,0,2.86-1.35,2.86-3V5.5c0-1.65-1.28-3-2.86-3Zm-25.06,2h25.06c.47,0,.86.45.86,1v4.5h-26.77v-4.5c0-.55.38-1,.86-1Zm25.91,7.5v36.5h-26.77V12h26.77Zm-.86,47.5h-25.06c-.47,0-.86-.45-.86-1v-8h26.77v8c0,.55-.38,1-.86,1Z" fill-rule="evenodd"/><circle cx="32" cy="54.97" r="2"/></g></g></svg>