<?xml version="1.0" encoding="UTF-8"?><svg id="uuid-07229da5-cba4-4b10-a509-6daeb60e9322" xmlns="http://www.w3.org/2000/svg" xmlns:xlink="http://www.w3.org/1999/xlink" viewBox="0 0 64 64"><defs><linearGradient id="uuid-82f2afc2-9924-45e1-8d69-2234476ad86e" x1="32" y1="52" x2="32" y2="64" gradientUnits="userSpaceOnUse"><stop offset="0" stop-color="#b3f"/><stop offset="1" stop-color="#3485fe"/></linearGradient><linearGradient id="uuid-14ec9352-9305-4c0e-b46f-7bb1ac9a5e34" x1="-304" y1="-432" x2="-304" y2="-444" gradientTransform="translate(-272 -432) rotate(-180)" gradientUnits="userSpaceOnUse"><stop offset="0" stop-color="#3485fe"/><stop offset="1" stop-color="#b3f"/></linearGradient><linearGradient id="uuid-3934e431-d5a2-485f-aa1c-1b9ee9eb3abd" x1="0" y1="32" x2="12" y2="32" gradientTransform="matrix(1,0,0,1,0,0)" xlink:href="#uuid-14ec9352-9305-4c0e-b46f-7bb1ac9a5e34"/><linearGradient id="uuid-02a147c3-4fa7-4102-8014-178ed2a807d6" x1="52" y1="32" x2="64" y2="32" xlink:href="#uuid-82f2afc2-9924-45e1-8d69-2234476ad86e"/></defs><g id="uuid-000cec88-593f-41fc-aad4-06c11de4b4bb"><g id="uuid-c3555aba-790a-4bdd-982b-f9f5ec2bda74"><g id="uuid-69936fd2-4316-48a0-8ecc-cce5f38e44a2"><path d="m32,15c-9.37,0-17,7.63-17,17s7.63,17,17,17,17-7.63,17-17-7.63-17-17-17Zm0,32c-8.27,0-15-6.73-15-15s6.73-15,15-15,15,6.73,15,15-6.73,15-15,15Z" fill="#fff"/><path d="m32,5c-14.89,0-27,12.11-27,27s12.11,27,27,27,27-12.11,27-27S46.89,5,32,5Zm0,52c-13.79,0-25-11.21-25-25S18.21,7,32,7s25,11.21,25,25-11.21,25-25,25Z" fill="#fff"/></g><g id="uuid-0255f486-a3bc-4f5d-ba80-0df73077ad1f"><path d="m32,52c-.55,0-1,.45-1,1v10c0,.55.45,1,1,1s1-.45,1-1v-10c0-.55-.45-1-1-1Z" fill="url(#uuid-82f2afc2-9924-45e1-8d69-2234476ad86e)"/><path d="m32,12c.55,0,1-.45,1-1V1c0-.55-.45-1-1-1s-1,.45-1,1v10c0,.55.45,1,1,1Z" fill="url(#uuid-14ec9352-9305-4c0e-b46f-7bb1ac9a5e34)"/><path d="m11,31H1c-.55,0-1,.45-1,1s.45,1,1,1h10c.55,0,1-.45,1-1s-.45-1-1-1Z" fill="url(#uuid-3934e431-d5a2-485f-aa1c-1b9ee9eb3abd)"/><path d="m63,31h-10c-.55,0-1,.45-1,1s.45,1,1,1h10c.55,0,1-.45,1-1s-.45-1-1-1Z" fill="url(#uuid-02a147c3-4fa7-4102-8014-178ed2a807d6)"/></g></g></g></svg>