<?xml version="1.0" encoding="UTF-8"?><svg id="uuid-b887c5c4-0ade-47a5-805a-62a2b8ac4cca" xmlns="http://www.w3.org/2000/svg" xmlns:xlink="http://www.w3.org/1999/xlink" viewBox="0 0 64 64"><defs><linearGradient id="uuid-f2bb678c-68a1-4f85-80e3-fa69f912663c" x1="0" y1="32" x2="64" y2="32" gradientUnits="userSpaceOnUse"><stop offset="0" stop-color="#3485fe"/><stop offset="1" stop-color="#b3f"/></linearGradient></defs><g id="uuid-1b0404f6-12f0-4bcf-9b97-63b0c0053eb4"><g id="uuid-494bcc9d-fff9-4f14-a164-505ecad0ba91"><path d="m32,2c16.54,0,30,13.46,30,30s-13.46,30-30,30S2,48.54,2,32,15.46,2,32,2m0-2C14.33,0,0,14.33,0,32s14.33,32,32,32,32-14.33,32-32S49.67,0,32,0h0Z" fill="url(#uuid-f2bb678c-68a1-4f85-80e3-fa69f912663c)"/><path d="m38.43,35.14h2.74v5.45h-2.74v5.41h-6.86v-5.41h-12.74v-6.55l10.31-16.04h9.29v17.14Zm-6.86-10.82h-.08l-6.47,10.82h6.55v-10.82Z"/></g></g></svg>