<?xml version="1.0" encoding="UTF-8"?><svg id="uuid-05c9b478-2dc0-4c0a-95e1-0226775d7319" xmlns="http://www.w3.org/2000/svg" xmlns:xlink="http://www.w3.org/1999/xlink" viewBox="0 0 64 64"><defs><linearGradient id="uuid-101c92ae-6646-4d3a-b2d1-ebcca701557a" x1="13.62" y1="42.07" x2="47.58" y2="65.85" gradientUnits="userSpaceOnUse"><stop offset="0" stop-color="#3485fe"/><stop offset="1" stop-color="#b3f"/></linearGradient><linearGradient id="uuid-efe5d04c-3668-4cd6-945e-a4ec22394597" x1="14.14" y1="41.22" x2="48.26" y2="65.11" xlink:href="#uuid-101c92ae-6646-4d3a-b2d1-ebcca701557a"/></defs><g id="uuid-281a40b7-e67f-4424-8518-19c5431af057"><g id="uuid-36f00876-68dd-4f82-a34e-73bdb91c0b9a"><path d="m51.59,62h-2.5s0,0,0,0v-17.05c0-.47-.18-.91-.51-1.24-.33-.33-.77-.51-1.24-.51h-30.5c-.47,0-.91.18-1.24.52-.33.33-.51.77-.51,1.24v17.05s0,0,0,0h-2.5c-.55,0-1,.45-1,1s.45,1,1,1h39c.55,0,1-.45,1-1s-.45-1-1-1Zm-34.5-16.8h30v16.55h-30v-16.55Z" fill="url(#uuid-101c92ae-6646-4d3a-b2d1-ebcca701557a)"/><path d="m31.64,50.47c-1.65,0-3,1.35-3,3s1.35,3.01,3,3.01,3-1.35,3-3.01-1.35-3-3-3Zm0,4.01c-.55,0-1-.45-1-1.01s.45-1,1-1,1,.45,1,1-.45,1.01-1,1.01Z" fill="url(#uuid-efe5d04c-3668-4cd6-945e-a4ec22394597)"/><path d="m63.38,52.33c-6.17-11.35-18.23-18.39-31.45-18.39S6.84,40.87.63,52.04c-.27.48-.09,1.09.39,1.36.48.27,1.09.09,1.36-.39,5.86-10.54,17.19-17.08,29.55-17.08s23.88,6.65,29.7,17.35c.18.33.52.52.88.52.16,0,.33-.04.48-.12.48-.26.66-.87.4-1.36Z" fill="#fff"/><path d="m32.09,31.62c8.7,0,15.77-7.09,15.77-15.81S40.79,0,32.09,0s-15.77,7.09-15.77,15.81,7.08,15.81,15.77,15.81Zm0-29.62c7.59,0,13.77,6.2,13.77,13.81s-6.18,13.81-13.77,13.81-13.77-6.2-13.77-13.81,6.18-13.81,13.77-13.81Z" fill="#fff"/></g></g></svg>