<?xml version="1.0" encoding="UTF-8"?><svg id="uuid-ea035eb7-c354-48e3-9b52-0cb058d8cbc2" xmlns="http://www.w3.org/2000/svg" xmlns:xlink="http://www.w3.org/1999/xlink" viewBox="0 0 64 64"><defs><linearGradient id="uuid-4042df8b-1f1b-47ae-b919-2c516e91e52f" x1="10.73" y1="35.25" x2="40.74" y2="56.26" gradientUnits="userSpaceOnUse"><stop offset="0" stop-color="#3485fe"/><stop offset="1" stop-color="#b3f"/></linearGradient><linearGradient id="uuid-c9ad994d-0eba-4aac-af17-60ed61e34b3a" x1="13.38" y1="28.9" x2="44.32" y2="50.56" xlink:href="#uuid-4042df8b-1f1b-47ae-b919-2c516e91e52f"/><linearGradient id="uuid-79ad98c9-591e-4a96-a4c9-ac76c7c3c0b5" x1="16.77" y1="21.47" x2="47.63" y2="43.08" xlink:href="#uuid-4042df8b-1f1b-47ae-b919-2c516e91e52f"/></defs><g id="uuid-3c7f92a9-4484-4f49-b1e3-4a607092854a"><g id="uuid-4c599305-030e-4582-8071-5171d9a560f0"><path d="m61,28.75h-4.07v-15.19c0-.8-.33-1.59-.91-2.15L45.14.85c-.56-.55-1.3-.85-2.09-.85H10.07c-1.65,0-3,1.35-3,3v25.75H3C1.35,28.75,0,30.09,0,31.75v18.91C0,52.31,1.35,53.66,3,53.66h4.07v7.34c0,1.65,1.35,3,3,3h43.86c1.65,0,3-1.35,3-3v-7.34h4.07c1.65,0,3-1.35,3-3v-18.91c0-1.65-1.35-3-3-3ZM45.17,3.67l8.55,8.29h-7.7c-.47,0-.85-.38-.85-.85V3.67Zm-36.1-.67c0-.55.45-1,1-1h32.98s.08.02.13.02v9.09c0,1.57,1.28,2.85,2.85,2.85h8.91v14.78H9.07V3Zm45.86,58c0,.55-.45,1-1,1H10.07c-.55,0-1-.45-1-1v-7.34h45.86v7.34Zm7.07-10.34c0,.55-.45,1-1,1H3c-.55,0-1-.45-1-1v-18.91c0-.55.45-1,1-1h58c.55,0,1,.45,1,1v18.91Z" fill="#fff"/><path d="m23.78,35.69c-.4-.28-.87-.49-1.41-.62-.54-.13-1.11-.2-1.71-.2h-4.52v12.85h2.11v-5.04h2.43c.59,0,1.15-.07,1.68-.21.53-.14,1-.37,1.41-.68.41-.32.73-.73.97-1.24.24-.51.36-1.13.36-1.86s-.12-1.33-.36-1.83c-.24-.5-.56-.89-.96-1.17Zm-.98,4.12c-.13.28-.32.51-.56.68-.24.17-.51.29-.81.36-.3.07-.62.1-.97.1h-2.21v-4.37h2.07c.38,0,.74.03,1.06.09.32.06.61.17.86.34s.44.4.57.68.19.64.19,1.06-.07.77-.2,1.05Z" fill="url(#uuid-4042df8b-1f1b-47ae-b919-2c516e91e52f)"/><path d="m36.61,36.58c-.54-.55-1.21-.98-2.02-1.27-.8-.29-1.71-.44-2.72-.44h-4.01v12.85h4.01c1.02,0,1.93-.15,2.72-.45s1.46-.73,2.01-1.29c.55-.56.96-1.24,1.24-2.03.28-.8.42-1.69.42-2.69s-.14-1.87-.42-2.66c-.28-.79-.69-1.46-1.23-2.02Zm-.72,6.65c-.18.57-.45,1.06-.81,1.47-.36.41-.83.73-1.42.96-.59.23-1.28.35-2.09.35h-1.6v-9.43h1.6c.78,0,1.46.11,2.05.34s1.06.54,1.43.94c.37.4.64.89.83,1.47.19.58.28,1.22.28,1.94s-.09,1.38-.27,1.95Z" fill="url(#uuid-c9ad994d-0eba-4aac-af17-60ed61e34b3a)"/><polygon points="48.71 36.58 48.71 34.87 41.47 34.87 41.47 47.72 43.58 47.72 43.58 42 48.35 42 48.35 40.27 43.58 40.27 43.58 36.58 48.71 36.58" fill="url(#uuid-79ad98c9-591e-4a96-a4c9-ac76c7c3c0b5)"/></g></g></svg>