<?xml version="1.0" encoding="UTF-8"?><svg id="uuid-4b916057-169a-4131-8181-a48e29a8de86" xmlns="http://www.w3.org/2000/svg" xmlns:xlink="http://www.w3.org/1999/xlink" viewBox="0 0 64 64"><defs><linearGradient id="uuid-2fa4948a-59d8-40a2-977e-53154ad58adb" x1="9.31" y1="41.26" x2="23.36" y2="51.11" gradientUnits="userSpaceOnUse"><stop offset="0" stop-color="#3485fe"/><stop offset="1" stop-color="#b3f"/></linearGradient><linearGradient id="uuid-3fc66d50-c430-4f94-9003-4bbddb09a7bf" x1="6.43" y1="46.86" x2="20.53" y2="56.73" xlink:href="#uuid-2fa4948a-59d8-40a2-977e-53154ad58adb"/><linearGradient id="uuid-2745016b-00fd-4284-b9fa-ec010a25690a" x1="40.94" y1="41.72" x2="52.91" y2="50.1" xlink:href="#uuid-2fa4948a-59d8-40a2-977e-53154ad58adb"/><linearGradient id="uuid-1c5262ac-d3e9-4fe9-a084-445db3482a61" x1="37.91" y1="47.2" x2="49.9" y2="55.6" xlink:href="#uuid-2fa4948a-59d8-40a2-977e-53154ad58adb"/><linearGradient id="uuid-62c7d40e-40eb-42ef-8d3a-4ba680770c44" x1="24.14" y1="16.18" x2="37.65" y2="25.64" xlink:href="#uuid-2fa4948a-59d8-40a2-977e-53154ad58adb"/><linearGradient id="uuid-00b9a3a7-96ec-4286-a10d-150ee66d5f3f" x1="20.78" y1="21.43" x2="34.31" y2="30.9" xlink:href="#uuid-2fa4948a-59d8-40a2-977e-53154ad58adb"/></defs><g id="uuid-2e3bffbb-632c-4c87-a6eb-ead025d6e69d"><g id="uuid-4a2e44c9-4ba5-40ed-a600-160e6cf1324c"><path d="m25.33,45.57H8.41c-.55,0-1,.45-1,1s.45,1,1,1h16.92c.55,0,1-.45,1-1s-.45-1-1-1Z" fill="url(#uuid-2fa4948a-59d8-40a2-977e-53154ad58adb)"/><path d="m20.74,51.57h-12.33c-.55,0-1,.45-1,1s.45,1,1,1h12.33c.55,0,1-.45,1-1s-.45-1-1-1Z" fill="url(#uuid-3fc66d50-c430-4f94-9003-4bbddb09a7bf)"/><path d="m56.32,45.57h-16.92c-.55,0-1,.45-1,1s.45,1,1,1h16.92c.55,0,1-.45,1-1s-.45-1-1-1Z" fill="url(#uuid-2745016b-00fd-4284-b9fa-ec010a25690a)"/><path d="m51.72,51.57h-12.33c-.55,0-1,.45-1,1s.45,1,1,1h12.33c.55,0,1-.45,1-1s-.45-1-1-1Z" fill="url(#uuid-1c5262ac-d3e9-4fe9-a084-445db3482a61)"/><path d="m23.54,22.68h16.92c.55,0,1-.45,1-1s-.45-1-1-1h-16.92c-.55,0-1,.45-1,1s.45,1,1,1Z" fill="url(#uuid-62c7d40e-40eb-42ef-8d3a-4ba680770c44)"/><path d="m35.86,26.68h-12.33c-.55,0-1,.45-1,1s.45,1,1,1h12.33c.55,0,1-.45,1-1s-.45-1-1-1Z" fill="url(#uuid-00b9a3a7-96ec-4286-a10d-150ee66d5f3f)"/><path d="m64,36.63l-5.07-9.87c-.1-.27-.35-.6-.93-.76-.26-.07-.57-.11-.9-.11h-8.6v-13.03c0-.3-.09-.58-.23-.83,0-.01,0-.03,0-.04v-.24l-5.07-9.87c-.1-.27-.34-.6-.92-.76-.26-.07-.57-.11-.91-.11h-18.75c-.34,0-.65.04-.91.11-.58.16-.83.49-.93.76l-5.07,9.87v.24s0,.02,0,.04c-.14.25-.23.53-.23.83v13.03H6.9c-.33,0-.64.04-.91.11-.58.16-.83.49-.93.76L0,36.63v.24c0,.08.01.23.08.41-.05.15-.08.3-.08.46v23.66c0,.5.25.95.7,1.26.33.23.76.35,1.2.35h60.19c.44,0,.87-.13,1.2-.35.45-.3.7-.76.7-1.26v-23.66c0-.16-.03-.31-.08-.46.07-.17.08-.33.08-.41v-.24Zm-6.9-8.75c.06,0,.12,0,.16,0l4.23,8.24h-13v-8.25h8.6Zm-39.6,8.25V13.24h29v22.89h-29ZM41.54,3l4.23,8.25h-12.77V2.99h8.37c.06,0,.12,0,.16,0Zm-19.08,0s.1,0,.17,0h8.37v8.25h-12.77l4.23-8.25ZM6.74,27.88s.1,0,.16,0h8.6v8.25H2.5l4.23-8.24Zm-4.74,10.24h29v22.89H2v-22.89Zm60,22.89h-29v-22.89h29v22.89Z"/></g></g></svg>