<?xml version="1.0" encoding="UTF-8"?><svg id="uuid-67bc457b-1179-4f64-a11d-1a7089454921" xmlns="http://www.w3.org/2000/svg" xmlns:xlink="http://www.w3.org/1999/xlink" viewBox="0 0 64 64"><defs><linearGradient id="uuid-8aa001f5-b371-4a33-8872-f20c57533ea9" x1="0" y1="32" x2="64" y2="32" gradientUnits="userSpaceOnUse"><stop offset="0" stop-color="#3485fe"/><stop offset="1" stop-color="#b3f"/></linearGradient></defs><g id="uuid-228b4885-6f61-4d55-ac3b-2f0b2dc8e99c"><g id="uuid-bb42c7d2-e0c6-4d13-812d-a0556f462835"><path d="m32,2c16.54,0,30,13.46,30,30s-13.46,30-30,30S2,48.54,2,32,15.46,2,32,2m0-2C14.33,0,0,14.33,0,32s14.33,32,32,32,32-14.33,32-32S49.67,0,32,0h0Z" fill="url(#uuid-8aa001f5-b371-4a33-8872-f20c57533ea9)"/><polygon points="37.59 46 30.59 46 30.59 24.47 25.63 27.1 23.31 21.88 30.59 18 37.59 18 37.59 46" fill="#fff"/></g></g></svg>