<?xml version="1.0" encoding="UTF-8"?><svg id="uuid-8bf1b0e4-d64d-4f8a-994f-3be57c2cf1dd" xmlns="http://www.w3.org/2000/svg" xmlns:xlink="http://www.w3.org/1999/xlink" viewBox="0 0 64 64"><defs><linearGradient id="uuid-c37e994c-ca23-4b39-a184-21fdba2b08b7" x1="26.46" y1="25.99" x2="43.61" y2="38.01" gradientUnits="userSpaceOnUse"><stop offset="0" stop-color="#3485fe"/><stop offset="1" stop-color="#b3f"/></linearGradient></defs><g id="uuid-9566692e-f012-4c5a-95ef-b3c0206abdf8"><g id="uuid-4d8427a2-58b0-40f4-b9db-e079975c613e"><path d="m36.03,31.24v-9.35c2.6.39,4.57,2.27,4.57,4.52,0,.55.45,1,1,1s1-.45,1-1c0-3.34-2.87-6.11-6.57-6.53v-2.66c0-.55-.45-1-1-1s-1,.45-1,1v2.66c-3.7.43-6.57,3.19-6.57,6.53,0,3.79,3.07,5.34,6.57,6.35v9.35c-2.6-.39-4.57-2.27-4.57-4.52,0-.55-.45-1-1-1s-1,.45-1,1c0,3.34,2.87,6.11,6.57,6.53v2.66c0,.55.45,1,1,1s1-.45,1-1v-2.66c3.7-.43,6.57-3.19,6.57-6.53,0-3.79-3.07-5.34-6.57-6.35Zm-2-.56c-3.35-1.04-4.57-2.23-4.57-4.26,0-2.25,1.98-4.13,4.57-4.52v8.78Zm2,11.44v-8.78c3.35,1.04,4.57,2.23,4.57,4.26,0,2.25-1.98,4.13-4.57,4.52Z" fill="url(#uuid-c37e994c-ca23-4b39-a184-21fdba2b08b7)"/><path d="m35.65,3.5c-15.63,0-28.35,12.79-28.35,28.5v1.5l-5.59-5.62c-.39-.39-1.02-.39-1.41,0-.39.39-.39,1.02,0,1.41l7.3,7.34s0,0,0,0c.09.09.2.17.32.22.12.05.25.08.39.08s.27-.03.39-.08c.12-.05.23-.12.32-.22,0,0,0,0,0,0l7.3-7.34c.39-.39.39-1.02,0-1.41-.39-.39-1.02-.39-1.41,0l-5.59,5.62v-1.5c0-14.61,11.82-26.5,26.35-26.5s26.35,11.89,26.35,26.5-11.82,26.5-26.35,26.5c-.55,0-1,.45-1,1s.45,1,1,1c15.63,0,28.35-12.79,28.35-28.5S51.28,3.5,35.65,3.5Z"/></g></g></svg>