<?xml version="1.0" encoding="UTF-8"?><svg id="uuid-7ab4c895-7b9b-4d3e-9434-5da91b47bae9" xmlns="http://www.w3.org/2000/svg" xmlns:xlink="http://www.w3.org/1999/xlink" viewBox="0 0 64 64"><defs><linearGradient id="uuid-3db2d350-13cf-47ea-9dea-ce9be1d0a60c" x1="31" y1="32" x2="33" y2="32" gradientUnits="userSpaceOnUse"><stop offset="0" stop-color="#3485fe"/><stop offset="1" stop-color="#b3f"/></linearGradient></defs><g id="uuid-e9131fcf-bf86-47f9-ae43-d26d54ae9ea0"><g id="uuid-2114d50d-3904-44c9-a0b4-21e46de9232a"><path d="m63.71,31.29l-8-8c-.39-.39-1.02-.39-1.41,0s-.39,1.02,0,1.41l6.29,6.29h-21.59c-.55,0-1,.45-1,1s.45,1,1,1h21.59l-6.29,6.29c-.39.39-.39,1.02,0,1.41.2.2.45.29.71.29s.51-.1.71-.29l8-8c.39-.39.39-1.02,0-1.41Z" fill="#fff"/><path d="m25,31H3.41l6.29-6.29c.39-.39.39-1.02,0-1.41s-1.02-.39-1.41,0L.29,31.29c-.39.39-.39,1.02,0,1.41l8,8c.2.2.45.29.71.29s.51-.1.71-.29c.39-.39.39-1.02,0-1.41l-6.29-6.29h21.59c.55,0,1-.45,1-1s-.45-1-1-1Z" fill="#fff"/><path d="m32,64c-.55,0-1-.45-1-1V1c0-.55.45-1,1-1s1,.45,1,1v62c0,.55-.45,1-1,1Z" fill="url(#uuid-3db2d350-13cf-47ea-9dea-ce9be1d0a60c)"/></g></g></svg>