<?xml version="1.0" encoding="UTF-8"?><svg id="uuid-8063ed38-e63b-4296-92ab-144282cf296c" xmlns="http://www.w3.org/2000/svg" xmlns:xlink="http://www.w3.org/1999/xlink" viewBox="0 0 64 64"><defs><linearGradient id="uuid-69b284b5-9fc1-4293-a2db-535fe95426ce" x1="35.32" y1="39.67" x2="62.74" y2="58.87" gradientUnits="userSpaceOnUse"><stop offset="0" stop-color="#3485fe"/><stop offset="1" stop-color="#b3f"/></linearGradient><linearGradient id="uuid-7f87f10b-6de3-4de1-95b2-6498f044a8dc" x1="34.74" y1="39.27" x2="63.26" y2="59.24" xlink:href="#uuid-69b284b5-9fc1-4293-a2db-535fe95426ce"/></defs><g id="uuid-57d74371-419f-49ea-bb54-f459f91a9933"><g id="uuid-c5be9332-c23e-44d0-9625-e4dea2a3bdfd"><path d="m39.31,34.72c-2.27-.42-4.6-.63-6.93-.63-13.49,0-25.85,7.11-32.25,18.55-.27.48-.1,1.09.38,1.36.15.09.32.13.49.13.35,0,.69-.18.87-.51,6.05-10.81,17.75-17.53,30.51-17.53,2.21,0,4.42.2,6.57.6.54.1,1.06-.26,1.16-.8.1-.54-.26-1.06-.8-1.16Z" fill="#fff"/><path d="m31.85,0c-8.74,0-15.85,7.09-15.85,15.8s7.11,15.8,15.85,15.8,15.85-7.09,15.85-15.8S40.59,0,31.85,0Zm0,29.59c-7.64,0-13.85-6.19-13.85-13.8S24.22,2,31.85,2s13.85,6.19,13.85,13.8-6.21,13.8-13.85,13.8Z" fill="#fff"/><path d="m49.68,35.45c-7.9,0-14.32,6.4-14.32,14.27s6.42,14.27,14.32,14.27,14.32-6.4,14.32-14.27-6.42-14.27-14.32-14.27Zm0,26.55c-6.79,0-12.32-5.51-12.32-12.27s5.53-12.27,12.32-12.27,12.32,5.51,12.32,12.27-5.53,12.27-12.32,12.27Z" fill="url(#uuid-69b284b5-9fc1-4293-a2db-535fe95426ce)"/><path d="m55.21,46.03h-1.82v-1.81c0-1.38-1.12-2.5-2.51-2.5h-2.4c-1.38,0-2.51,1.12-2.51,2.5v1.81h-1.82c-1.38,0-2.51,1.12-2.51,2.5v2.39c0,1.38,1.12,2.5,2.51,2.5h1.82s0,1.81,0,1.81c0,1.38,1.12,2.5,2.51,2.5h2.4c1.38,0,2.51-1.12,2.51-2.5v-1.81h1.82c1.38,0,2.51-1.12,2.51-2.5v-2.39c0-1.38-1.12-2.5-2.51-2.5Zm.51,4.89c0,.28-.23.5-.51.5h-2.82c-.27,0-.52.1-.71.29s-.29.44-.29.71v2.81c0,.28-.23.5-.51.5h-2.4c-.28,0-.51-.23-.51-.5v-2.81c0-.55-.45-1-1-1h-2.82c-.28,0-.51-.22-.51-.5v-2.39c0-.28.23-.5.51-.5h2.82c.55,0,1-.45,1-1v-2.81c0-.28.23-.5.51-.5h2.4c.28,0,.51.23.51.5v2.81c0,.55.45,1,1,1h2.82c.28,0,.51.23.51.5v2.39Z" fill="url(#uuid-7f87f10b-6de3-4de1-95b2-6498f044a8dc)"/></g></g></svg>