<?xml version="1.0" encoding="UTF-8"?><svg id="uuid-3d660a6d-66ab-432a-a0cd-e4194b796af5" xmlns="http://www.w3.org/2000/svg" xmlns:xlink="http://www.w3.org/1999/xlink" viewBox="0 0 64 64"><defs><linearGradient id="uuid-088ab294-b4b9-49fa-a08d-8c74f0ced3b6" x1="16" y1="32" x2="48" y2="32" gradientUnits="userSpaceOnUse"><stop offset="0" stop-color="#3485fe"/><stop offset="1" stop-color="#b3f"/></linearGradient></defs><g id="uuid-9e59f877-465d-44b9-94ba-e59ca3733ffb"><g id="uuid-18ee20a4-d2cd-4efc-a7b1-9af1ea7723ab"><path d="m63.46,30.62c-8.75-9.46-19.79-14.62-31.46-14.62S9.29,21.16.54,30.62c-.72.78-.72,1.98,0,2.76,8.75,9.46,19.79,14.62,31.46,14.62s22.71-5.16,31.46-14.62c.72-.78.72-1.98,0-2.76Zm-3.5,2.79c-7.8,8.15-17.61,12.59-27.96,12.59s-20.16-4.44-27.96-12.59c-.76-.79-.76-2.02,0-2.82,7.8-8.15,17.61-12.59,27.96-12.59s20.16,4.44,27.96,12.59c.76.79.76,2.02,0,2.82Z" fill="#fff"/><path d="m32,25c-3.86,0-7,3.14-7,7s3.14,7,7,7,7-3.14,7-7-3.14-7-7-7Zm0,11.9c-2.7,0-4.9-2.2-4.9-4.9s2.2-4.9,4.9-4.9,4.9,2.2,4.9,4.9-2.2,4.9-4.9,4.9Z" fill="#fff"/><path d="m32,48c-8.82,0-16-7.18-16-16s7.18-16,16-16,16,7.18,16,16-7.18,16-16,16Zm0-30c-7.72,0-14,6.28-14,14s6.28,14,14,14,14-6.28,14-14-6.28-14-14-14Z" fill="url(#uuid-088ab294-b4b9-49fa-a08d-8c74f0ced3b6)"/></g></g></svg>