<?xml version="1.0" encoding="UTF-8"?><svg id="uuid-4e412209-67a2-4b5b-8a4d-1d3c6e254b1a" xmlns="http://www.w3.org/2000/svg" xmlns:xlink="http://www.w3.org/1999/xlink" viewBox="0 0 64 64"><defs><linearGradient id="uuid-6d7c098d-98dd-4408-bbe1-9d3de24a22af" x1="26" y1="32" x2="60" y2="32" gradientUnits="userSpaceOnUse"><stop offset="0" stop-color="#3485fe"/><stop offset="1" stop-color="#b3f"/></linearGradient></defs><g id="uuid-4ed601f9-f11d-4d91-9fcd-02dc77a28b9f"><g id="uuid-3a5b5d70-63e2-44d0-9997-05bda90bc555"><path d="m29,26H5c-.55,0-1-.45-1-1s.45-1,1-1h24c.55,0,1,.45,1,1s-.45,1-1,1Z"/><path d="m37,40H13c-.55,0-1-.45-1-1s.45-1,1-1h24c.55,0,1,.45,1,1s-.45,1-1,1Z"/><path d="m59.92,32.38c.1-.24.1-.52,0-.76-.05-.12-.12-.23-.22-.33l-8-8c-.39-.39-1.02-.39-1.41,0s-.39,1.02,0,1.41l6.29,6.29h-29.59c-.55,0-1,.45-1,1s.45,1,1,1h29.59l-6.29,6.29c-.39.39-.39,1.02,0,1.41.2.2.45.29.71.29s.51-.1.71-.29l8-8c.09-.09.17-.2.22-.33Z" fill="url(#uuid-6d7c098d-98dd-4408-bbe1-9d3de24a22af)"/><path d="m63,48H1c-.55,0-1-.45-1-1s.45-1,1-1h62c.55,0,1,.45,1,1s-.45,1-1,1Z"/><path d="m63,18H1c-.55,0-1-.45-1-1s.45-1,1-1h62c.55,0,1,.45,1,1s-.45,1-1,1Z"/></g></g></svg>