<?xml version="1.0" encoding="UTF-8"?><svg id="uuid-36138612-06b3-4b7d-8014-4f0d02c173d8" xmlns="http://www.w3.org/2000/svg" xmlns:xlink="http://www.w3.org/1999/xlink" viewBox="0 0 64 64"><defs><linearGradient id="uuid-9358546a-7353-462d-88d9-6023bd50a395" x1="5.55" y1="23.29" x2="45.3" y2="51.12" gradientUnits="userSpaceOnUse"><stop offset="0" stop-color="#3485fe"/><stop offset="1" stop-color="#b3f"/></linearGradient><linearGradient id="uuid-0d846c1e-6779-48ea-ae39-33d10ddc8a7f" x1="21.1" y1="8.93" x2="60.85" y2="36.76" xlink:href="#uuid-9358546a-7353-462d-88d9-6023bd50a395"/><linearGradient id="uuid-f7a98f27-0ffe-4563-abb8-6cefcf050ada" x1="13.25" y1="16.18" x2="53" y2="44.01" xlink:href="#uuid-9358546a-7353-462d-88d9-6023bd50a395"/><linearGradient id="uuid-3932a57a-1010-4b42-82dc-fdba1a34d89e" x1="16.18" y1="15.87" x2="56.98" y2="44.44" xlink:href="#uuid-9358546a-7353-462d-88d9-6023bd50a395"/><linearGradient id="uuid-fc9d70ff-effb-4e8b-a931-a9535f6d700d" x1="8.27" y1="22.83" x2="49.08" y2="51.4" xlink:href="#uuid-9358546a-7353-462d-88d9-6023bd50a395"/><linearGradient id="uuid-0b09543a-4536-4024-8d12-e98b9624f8ee" x1=".37" y1="29.8" x2="41.17" y2="58.37" xlink:href="#uuid-9358546a-7353-462d-88d9-6023bd50a395"/></defs><g id="uuid-a560754c-98e8-42b1-9f83-10ca3548f88e"><g id="uuid-78eb1165-073a-4430-b7a0-3610d13b1fa2"><path d="m56.09,11.41L45.17.84c-.56-.54-1.31-.84-2.09-.84H10.01c-1.66,0-3.01,1.35-3.01,3v58c0,1.65,1.35,3,3.01,3h43.99c1.66,0,3.01-1.35,3.01-3V13.56c0-.81-.33-1.59-.91-2.15Zm-10.88-7.74l8.58,8.3h-7.73c-.47,0-.85-.38-.85-.85V3.66Zm8.78,58.34H10.01c-.55,0-1.01-.45-1.01-1V3c0-.55.45-1,1.01-1h33.08s.09.02.13.02v9.09c0,1.57,1.28,2.85,2.85,2.85h8.94v47.04c0,.55-.45,1-1.01,1Z" fill="#fff"/><path d="m46.31,44.35h-18.51c-.55,0-1,.45-1,1s.45,1,1,1h18.51c.55,0,1-.45,1-1s-.45-1-1-1Z" fill="url(#uuid-9358546a-7353-462d-88d9-6023bd50a395)"/><path d="m27.79,21.1h18.51c.55,0,1-.45,1-1s-.45-1-1-1h-18.51c-.55,0-1,.45-1,1s.45,1,1,1Z" fill="url(#uuid-0d846c1e-6779-48ea-ae39-33d10ddc8a7f)"/><path d="m46.31,31.85h-18.51c-.55,0-1,.45-1,1s.45,1,1,1h18.51c.55,0,1-.45,1-1s-.45-1-1-1Z" fill="url(#uuid-f7a98f27-0ffe-4563-abb8-6cefcf050ada)"/><path d="m22.52,17.09l-2.87,2.86-1.25-1.24c-.39-.39-1.02-.39-1.41,0-.39.39-.39,1.02,0,1.41l1.66,1.65c.28.28.64.41,1,.41s.73-.14,1-.41l3.28-3.27c.39-.39.39-1.02,0-1.41-.39-.39-1.02-.39-1.41,0Z" fill="url(#uuid-3932a57a-1010-4b42-82dc-fdba1a34d89e)"/><path d="m22.52,29.59l-2.87,2.86-1.25-1.24c-.39-.39-1.02-.39-1.41,0-.39.39-.39,1.02,0,1.41l1.66,1.65c.28.28.64.41,1,.41s.73-.14,1-.41l3.28-3.27c.39-.39.39-1.02,0-1.41-.39-.39-1.02-.39-1.41,0Z" fill="url(#uuid-fc9d70ff-effb-4e8b-a931-a9535f6d700d)"/><path d="m22.52,42.09l-2.87,2.86-1.25-1.24c-.39-.39-1.02-.39-1.41,0-.39.39-.39,1.02,0,1.41l1.66,1.65c.28.28.64.41,1,.41s.73-.14,1-.41l3.28-3.27c.39-.39.39-1.02,0-1.41-.39-.39-1.02-.39-1.41,0Z" fill="url(#uuid-0b09543a-4536-4024-8d12-e98b9624f8ee)"/></g></g></svg>