<?xml version="1.0" encoding="UTF-8"?><svg id="uuid-daef1095-b089-48c2-8a1c-1b2126eb7c77" xmlns="http://www.w3.org/2000/svg" xmlns:xlink="http://www.w3.org/1999/xlink" viewBox="0 0 64 64"><defs><linearGradient id="uuid-547d9dc4-f4bd-4482-bc1b-1e246f3e375c" x1="18" y1="28" x2="46" y2="28" gradientUnits="userSpaceOnUse"><stop offset="0" stop-color="#3485fe"/><stop offset="1" stop-color="#b3f"/></linearGradient><linearGradient id="uuid-98795395-6606-4f70-ac2a-17cc51bf5f9b" y1="35" y2="35" xlink:href="#uuid-547d9dc4-f4bd-4482-bc1b-1e246f3e375c"/><linearGradient id="uuid-11589e1b-e5bc-4ab6-b6f5-da02fbcc4dac" y1="42" y2="42" xlink:href="#uuid-547d9dc4-f4bd-4482-bc1b-1e246f3e375c"/><linearGradient id="uuid-1f040e95-d2dd-4cad-96f3-c649fc2f9110" y1="49" y2="49" xlink:href="#uuid-547d9dc4-f4bd-4482-bc1b-1e246f3e375c"/></defs><g id="uuid-0474a815-4dda-4a38-8266-5da5d51ee67f"><g id="uuid-2507611c-ee6d-478c-aece-bbc0f6ffd445"><path d="m53,10h-7v-2c0-1.1-.9-2-2-2h-5.08c-.49-3.39-3.39-6-6.92-6s-6.43,2.61-6.92,6h-5.08c-1.1,0-2,.9-2,2v2h-7c-1.1,0-2,.9-2,2v50c0,1.1.9,2,2,2h42c1.1,0,2-.9,2-2V12c0-1.1-.9-2-2-2Zm-33-2h6.81l.25-1.72c.35-2.44,2.47-4.28,4.94-4.28s4.59,1.84,4.94,4.28l.25,1.72h6.81v8h-24v-8Zm33,54H11V12h7v4c0,1.1.9,2,2,2h24c1.1,0,2-.9,2-2v-4h7v50Z"/><path d="m32,4c-1.66,0-3,1.34-3,3s1.34,3,3,3,3-1.34,3-3-1.34-3-3-3Zm0,4c-.55,0-1-.45-1-1s.45-1,1-1,1,.45,1,1-.45,1-1,1Z"/><path d="m45,27h-26c-.55,0-1,.45-1,1s.45,1,1,1h26c.55,0,1-.45,1-1s-.45-1-1-1Z" fill="url(#uuid-547d9dc4-f4bd-4482-bc1b-1e246f3e375c)"/><path d="m45,34h-26c-.55,0-1,.45-1,1s.45,1,1,1h26c.55,0,1-.45,1-1s-.45-1-1-1Z" fill="url(#uuid-98795395-6606-4f70-ac2a-17cc51bf5f9b)"/><path d="m45,41h-26c-.55,0-1,.45-1,1s.45,1,1,1h26c.55,0,1-.45,1-1s-.45-1-1-1Z" fill="url(#uuid-11589e1b-e5bc-4ab6-b6f5-da02fbcc4dac)"/><path d="m45,48h-26c-.55,0-1,.45-1,1s.45,1,1,1h26c.55,0,1-.45,1-1s-.45-1-1-1Z" fill="url(#uuid-1f040e95-d2dd-4cad-96f3-c649fc2f9110)"/></g></g></svg>