<?xml version="1.0" encoding="UTF-8"?><svg id="uuid-47f351f9-e28e-4bfe-a13c-a70e0a863e3d" xmlns="http://www.w3.org/2000/svg" xmlns:xlink="http://www.w3.org/1999/xlink" viewBox="0 0 64 64"><defs><linearGradient id="uuid-fd90f89d-d718-459b-bad1-f659014d8b1d" x1="28.55" y1="46.28" x2="64" y2="46.28" gradientUnits="userSpaceOnUse"><stop offset="0" stop-color="#3485fe"/><stop offset="1" stop-color="#b3f"/></linearGradient></defs><g id="uuid-18275670-b6ac-4646-bf70-e636bc8d3989"><g id="uuid-74af520f-b005-4814-8431-224b7e7613ec"><path d="m63.71,62.28l-18.92-18.92h0c.79-.78.79-2.06,0-2.84l-7.11-7.11h0c.79-.78.79-2.06,0-2.84l-1.42-1.42c-.79-.78-2.06-.78-2.84,0l-4.27,4.26c-.79.78-.79,2.06,0,2.84l1.42,1.42c.79.78,2.06.78,2.84,0l7.11,7.11c.79.78,2.06.78,2.84,0l18.92,18.92c.39.39,1.03.39,1.42,0s.39-1.03,0-1.42Z" fill="url(#uuid-fd90f89d-d718-459b-bad1-f659014d8b1d)"/><path d="m21.34,33.33c-.54-.04-1-.19-1.35-.53L.29,12.93c-.39-.39-.38-1.02,0-1.41h0c.39-.39,1.02-.38,1.41,0l19.65,19.81c.13,0,.45-.1.79-.44l8.63-8.59c.34-.34.44-.67.44-.8L11.57,1.7c-.39-.39-.38-1.02,0-1.41h0c.39-.39,1.02-.38,1.41,0l19.71,19.86c.85.86.63,2.42-.51,3.55l-8.63,8.59c-.65.65-1.45,1.02-2.21,1.02Z"/><path d="m27.22,31.73h0c-.81-.05-1.58-.4-2.16-.98l-1.37-1.37s0,0,0-.01l5.67-5.65s0,0,.01,0l1.49,1.5c1.12,1.13,1.11,2.95-.01,4.07l-1.73,1.72c-.5.5-1.2.76-1.91.72Zm-.72-2.35l.1.1c.16.17.38.26.61.26h0c.23,0,.45-.09.61-.25l1.62-1.62c.34-.34.34-.9,0-1.24l-.1-.1-2.86,2.85Z"/><polygon points="29.35 18.02 17.98 29.36 17.97 29.36 16.58 27.96 16.58 27.95 27.95 16.61 27.96 16.61 29.35 18.01 29.35 18.02"/><polygon points="25.8 14.47 14.42 25.8 14.41 25.8 13.02 24.41 13.02 24.39 24.4 13.06 24.41 13.06 25.8 14.45 25.8 14.47"/></g></g></svg>