<?xml version="1.0" encoding="UTF-8"?><svg id="uuid-de11c04e-2649-4137-8f91-2b687f03e185" xmlns="http://www.w3.org/2000/svg" xmlns:xlink="http://www.w3.org/1999/xlink" viewBox="0 0 64 64"><defs><linearGradient id="uuid-9060b843-b9e1-4237-9e24-83b35bd79122" x1="14.44" y1="22.6" x2="47.63" y2="45.84" gradientUnits="userSpaceOnUse"><stop offset="0" stop-color="#3485fe"/><stop offset="1" stop-color="#b3f"/></linearGradient></defs><g id="uuid-f95a5b2a-41b2-49c8-83f6-d7388bb0cde6"><g id="uuid-30e327f4-ec8b-43ca-a6e4-01d6b1ea5d3e"><path d="m56.09,11.41L45.17.85c-.56-.54-1.31-.85-2.09-.85H10.01c-1.66,0-3.01,1.35-3.01,3v58c0,1.65,1.35,3,3.01,3h43.99c1.66,0,3.01-1.35,3.01-3V13.56c0-.81-.33-1.59-.91-2.15Zm-10.88-7.74l8.58,8.3h-7.73c-.47,0-.85-.38-.85-.85V3.67Zm8.78,58.33H10.01c-.55,0-1.01-.45-1.01-1V3c0-.55.45-1,1.01-1h33.08s.09.02.13.02v9.09c0,1.57,1.28,2.85,2.85,2.85h8.94v47.04c0,.55-.45,1-1.01,1Z" fill="#fff"/><path d="m45.79,47.73h-26.54c-.55,0-1-.45-1-1s.45-1,1-1h26.54c.55,0,1,.45,1,1s-.45,1-1,1Zm0-7.25h-26.54c-.55,0-1-.45-1-1s.45-1,1-1h26.54c.55,0,1,.45,1,1s-.45,1-1,1Zm0-7.25h-26.54c-.55,0-1-.45-1-1s.45-1,1-1h26.54c.55,0,1,.45,1,1s-.45,1-1,1Zm0-7.25h-26.54c-.55,0-1-.45-1-1s.45-1,1-1h26.54c.55,0,1,.45,1,1s-.45,1-1,1Zm-9.03-7.5h-17.51c-.55,0-1-.45-1-1s.45-1,1-1h17.51c.55,0,1,.45,1,1s-.45,1-1,1Z" fill="url(#uuid-9060b843-b9e1-4237-9e24-83b35bd79122)"/></g></g></svg>