<?xml version="1.0" encoding="UTF-8"?><svg id="uuid-2aab6941-7026-4117-bb4b-75ff8b3b76cd" xmlns="http://www.w3.org/2000/svg" xmlns:xlink="http://www.w3.org/1999/xlink" viewBox="0 0 64 64"><defs><linearGradient id="uuid-32f604fb-20c9-4ae0-9492-b8701c2ee082" x1="30" y1="40" x2="58" y2="40" gradientUnits="userSpaceOnUse"><stop offset="0" stop-color="#3485fe"/><stop offset="1" stop-color="#b3f"/></linearGradient></defs><g id="uuid-a7c187f6-5849-4063-81b3-77a0d925ddc6"><g id="uuid-49c263b5-d86c-4ccc-990c-9030e2758e47"><path d="m39.5,35.9l-7.5,5.19v-8.09c0-.55-.45-1-1-1s-1,.45-1,1v14c0,.55.45,1,1,1h26c.55,0,1-.45,1-1s-.45-1-1-1h-25v-2.48l7.84-5.43,9.79,3.01,8-6.33c.43-.34.51-.97.16-1.4-.34-.43-.97-.51-1.4-.16l-7.17,5.67-9.71-2.99Z" fill="url(#uuid-32f604fb-20c9-4ae0-9492-b8701c2ee082)"/><path d="m32,4c-1.66,0-3,1.34-3,3s1.34,3,3,3,3-1.34,3-3-1.34-3-3-3Zm0,4c-.55,0-1-.45-1-1s.45-1,1-1,1,.45,1,1-.45,1-1,1Z" fill="#fff"/><path d="m62,26h-7v-14c0-1.1-.9-2-2-2h-7v-2c0-1.1-.9-2-2-2h-5.08c-.49-3.39-3.39-6-6.92-6s-6.43,2.61-6.92,6h-5.08c-1.1,0-2,.9-2,2v2h-7c-1.1,0-2,.9-2,2v50c0,1.1.9,2,2,2h42c1.1,0,2-.9,2-2v-8h7c1.1,0,2-.9,2-2v-24c0-1.1-.9-2-2-2ZM20,8h6.81l.25-1.72c.35-2.44,2.47-4.28,4.94-4.28s4.59,1.84,4.94,4.28l.25,1.72h6.81v8h-24v-8Zm33,54H11V12h7v4c0,1.1.9,2,2,2h24c1.1,0,2-.9,2-2v-4h7v14h-27c-1.1,0-2,.9-2,2v24c0,1.1.9,2,2,2h27v8Zm9-10H26v-24h36v24Z" fill="#fff"/></g></g></svg>