<?xml version="1.0" encoding="UTF-8"?><svg id="uuid-384c64f7-6e48-460b-87f1-64cdd44abc4e" xmlns="http://www.w3.org/2000/svg" xmlns:xlink="http://www.w3.org/1999/xlink" viewBox="0 0 64 64"><defs><linearGradient id="uuid-18ed6fdf-9496-461c-9a8f-4b0510ca13a1" x1="0" y1="32" x2="64" y2="32" gradientUnits="userSpaceOnUse"><stop offset="0" stop-color="#3485fe"/><stop offset="1" stop-color="#b3f"/></linearGradient></defs><g id="uuid-6c515b5f-fed2-4c93-ae3b-cc3e603898ab"><g id="uuid-761d6191-015e-41d8-8a64-79b1296986c1"><path d="m32,2c16.54,0,30,13.46,30,30s-13.46,30-30,30S2,48.54,2,32,15.46,2,32,2m0-2C14.33,0,0,14.33,0,32s14.33,32,32,32,32-14.33,32-32S49.67,0,32,0h0Z" fill="url(#uuid-18ed6fdf-9496-461c-9a8f-4b0510ca13a1)"/><polygon points="37.59 46 30.59 46 30.59 24.47 25.63 27.1 23.31 21.88 30.59 18 37.59 18 37.59 46"/></g></g></svg>