<?xml version="1.0" encoding="UTF-8"?><svg id="uuid-cd6cb51b-6a6e-4c97-b099-083e9b40c797" xmlns="http://www.w3.org/2000/svg" xmlns:xlink="http://www.w3.org/1999/xlink" viewBox="0 0 64 64"><defs><linearGradient id="uuid-f1fe30ee-a23e-4b14-adb5-fa686782824a" x1="17.5" y1="32" x2="46.5" y2="32" gradientUnits="userSpaceOnUse"><stop offset="0" stop-color="#3485fe"/><stop offset="1" stop-color="#b3f"/></linearGradient></defs><g id="uuid-78fdabfd-c11d-4b6f-8010-df1909dc7b70"><g id="uuid-ddaeb613-6e4b-4391-adab-4eb5d65dc64f"><path d="m33.5,57c-.13,0-.26-.02-.38-.08-.37-.15-.62-.52-.62-.92v-21.59l-12.29,12.29c-.39.39-1.02.39-1.41,0s-.39-1.02,0-1.41l13.05-13.05-14.04-13.52c-.4-.38-.41-1.02-.03-1.41.38-.4,1.02-.41,1.41-.03l13.31,12.81V8c0-.4.24-.77.62-.92.37-.16.8-.07,1.09.22l12,12c.39.39.39,1.02,0,1.41l-11.51,11.51,11.49,11.07c.19.19.3.44.31.71s-.1.53-.29.72l-12,12c-.19.19-.45.29-.71.29Zm1-22.2v18.79l9.57-9.57-9.57-9.22Zm0-24.38v19.17l9.59-9.59-9.59-9.59Z" fill="url(#uuid-f1fe30ee-a23e-4b14-adb5-fa686782824a)"/><path d="m32,64C14.36,64,0,49.64,0,32S14.36,0,32,0s32,14.36,32,32-14.36,32-32,32Zm0-62C15.46,2,2,15.46,2,32s13.46,30,30,30,30-13.46,30-30S48.54,2,32,2Z" fill="#fff"/></g></g></svg>