<?xml version="1.0" encoding="UTF-8"?><svg id="uuid-f8c579d1-7bc1-40e4-850a-57a8824b4f0b" xmlns="http://www.w3.org/2000/svg" xmlns:xlink="http://www.w3.org/1999/xlink" viewBox="0 0 64 64"><defs><linearGradient id="uuid-a5452703-bf1c-4738-afae-81b72d6f0233" x1="5.55" y1="23.29" x2="45.3" y2="51.12" gradientUnits="userSpaceOnUse"><stop offset="0" stop-color="#3485fe"/><stop offset="1" stop-color="#b3f"/></linearGradient><linearGradient id="uuid-9f6ffcbc-f382-4221-96f8-e7cb042b86e1" x1="21.1" y1="8.93" x2="60.85" y2="36.76" xlink:href="#uuid-a5452703-bf1c-4738-afae-81b72d6f0233"/><linearGradient id="uuid-bad56bef-e133-4791-8e29-1200f5322845" x1="13.25" y1="16.18" x2="53" y2="44.01" xlink:href="#uuid-a5452703-bf1c-4738-afae-81b72d6f0233"/><linearGradient id="uuid-3c8e820b-7fec-481e-a7c1-e92066a0b9ba" x1="16.18" y1="15.87" x2="56.98" y2="44.44" xlink:href="#uuid-a5452703-bf1c-4738-afae-81b72d6f0233"/><linearGradient id="uuid-db2c5a47-5270-44d7-a00c-ed8cbe76aca1" x1="8.27" y1="22.83" x2="49.08" y2="51.4" xlink:href="#uuid-a5452703-bf1c-4738-afae-81b72d6f0233"/><linearGradient id="uuid-5372d024-5d57-443e-bef1-d52752b4384d" x1=".37" y1="29.8" x2="41.17" y2="58.37" xlink:href="#uuid-a5452703-bf1c-4738-afae-81b72d6f0233"/></defs><g id="uuid-d45a870f-da18-469b-9d55-1293824ee240"><g id="uuid-5822922a-07ed-4278-a8ea-918f08a39b2e"><path d="m56.09,11.41L45.17.84c-.56-.54-1.31-.84-2.09-.84H10.01c-1.66,0-3.01,1.35-3.01,3v58c0,1.65,1.35,3,3.01,3h43.99c1.66,0,3.01-1.35,3.01-3V13.56c0-.81-.33-1.59-.91-2.15Zm-10.88-7.74l8.58,8.3h-7.73c-.47,0-.85-.38-.85-.85V3.66Zm8.78,58.34H10.01c-.55,0-1.01-.45-1.01-1V3c0-.55.45-1,1.01-1h33.08s.09.02.13.02v9.09c0,1.57,1.28,2.85,2.85,2.85h8.94v47.04c0,.55-.45,1-1.01,1Z"/><path d="m46.31,44.35h-18.51c-.55,0-1,.45-1,1s.45,1,1,1h18.51c.55,0,1-.45,1-1s-.45-1-1-1Z" fill="url(#uuid-a5452703-bf1c-4738-afae-81b72d6f0233)"/><path d="m27.79,21.1h18.51c.55,0,1-.45,1-1s-.45-1-1-1h-18.51c-.55,0-1,.45-1,1s.45,1,1,1Z" fill="url(#uuid-9f6ffcbc-f382-4221-96f8-e7cb042b86e1)"/><path d="m46.31,31.85h-18.51c-.55,0-1,.45-1,1s.45,1,1,1h18.51c.55,0,1-.45,1-1s-.45-1-1-1Z" fill="url(#uuid-bad56bef-e133-4791-8e29-1200f5322845)"/><path d="m22.52,17.09l-2.87,2.86-1.25-1.24c-.39-.39-1.02-.39-1.41,0-.39.39-.39,1.02,0,1.41l1.66,1.65c.28.28.64.41,1,.41s.73-.14,1-.41l3.28-3.27c.39-.39.39-1.02,0-1.41-.39-.39-1.02-.39-1.41,0Z" fill="url(#uuid-3c8e820b-7fec-481e-a7c1-e92066a0b9ba)"/><path d="m22.52,29.59l-2.87,2.86-1.25-1.24c-.39-.39-1.02-.39-1.41,0-.39.39-.39,1.02,0,1.41l1.66,1.65c.28.28.64.41,1,.41s.73-.14,1-.41l3.28-3.27c.39-.39.39-1.02,0-1.41-.39-.39-1.02-.39-1.41,0Z" fill="url(#uuid-db2c5a47-5270-44d7-a00c-ed8cbe76aca1)"/><path d="m22.52,42.09l-2.87,2.86-1.25-1.24c-.39-.39-1.02-.39-1.41,0-.39.39-.39,1.02,0,1.41l1.66,1.65c.28.28.64.41,1,.41s.73-.14,1-.41l3.28-3.27c.39-.39.39-1.02,0-1.41-.39-.39-1.02-.39-1.41,0Z" fill="url(#uuid-5372d024-5d57-443e-bef1-d52752b4384d)"/></g></g></svg>