<?xml version="1.0" encoding="UTF-8"?><svg id="uuid-631d8eb3-744e-4733-83b8-28abe6d5adef" xmlns="http://www.w3.org/2000/svg" xmlns:xlink="http://www.w3.org/1999/xlink" viewBox="0 0 64 64"><defs><linearGradient id="uuid-01fe9b4a-6696-41bb-93e1-85329b10dd7d" x1="18" y1="28" x2="46" y2="28" gradientUnits="userSpaceOnUse"><stop offset="0" stop-color="#3485fe"/><stop offset="1" stop-color="#b3f"/></linearGradient><linearGradient id="uuid-2e8b01a6-2cb7-40d8-a10a-0dc58d69d314" y1="35" y2="35" xlink:href="#uuid-01fe9b4a-6696-41bb-93e1-85329b10dd7d"/><linearGradient id="uuid-18a38812-7e26-4d05-9d5b-e993f7054e37" y1="42" y2="42" xlink:href="#uuid-01fe9b4a-6696-41bb-93e1-85329b10dd7d"/><linearGradient id="uuid-70a22850-b7d4-42a5-a9be-204c0ba0377d" y1="49" y2="49" xlink:href="#uuid-01fe9b4a-6696-41bb-93e1-85329b10dd7d"/></defs><g id="uuid-b68200ca-4ba0-4e37-8a6a-37601de686d3"><g id="uuid-8961fe8d-9d0f-4fd1-bfe2-e0d08c4b44ff"><path d="m53,10h-7v-2c0-1.1-.9-2-2-2h-5.08c-.49-3.39-3.39-6-6.92-6s-6.43,2.61-6.92,6h-5.08c-1.1,0-2,.9-2,2v2h-7c-1.1,0-2,.9-2,2v50c0,1.1.9,2,2,2h42c1.1,0,2-.9,2-2V12c0-1.1-.9-2-2-2Zm-33-2h6.81l.25-1.72c.35-2.44,2.47-4.28,4.94-4.28s4.59,1.84,4.94,4.28l.25,1.72h6.81v8h-24v-8Zm33,54H11V12h7v4c0,1.1.9,2,2,2h24c1.1,0,2-.9,2-2v-4h7v50Z" fill="#fff"/><path d="m32,4c-1.66,0-3,1.34-3,3s1.34,3,3,3,3-1.34,3-3-1.34-3-3-3Zm0,4c-.55,0-1-.45-1-1s.45-1,1-1,1,.45,1,1-.45,1-1,1Z" fill="#fff"/><path d="m45,27h-26c-.55,0-1,.45-1,1s.45,1,1,1h26c.55,0,1-.45,1-1s-.45-1-1-1Z" fill="url(#uuid-01fe9b4a-6696-41bb-93e1-85329b10dd7d)"/><path d="m45,34h-26c-.55,0-1,.45-1,1s.45,1,1,1h26c.55,0,1-.45,1-1s-.45-1-1-1Z" fill="url(#uuid-2e8b01a6-2cb7-40d8-a10a-0dc58d69d314)"/><path d="m45,41h-26c-.55,0-1,.45-1,1s.45,1,1,1h26c.55,0,1-.45,1-1s-.45-1-1-1Z" fill="url(#uuid-18a38812-7e26-4d05-9d5b-e993f7054e37)"/><path d="m45,48h-26c-.55,0-1,.45-1,1s.45,1,1,1h26c.55,0,1-.45,1-1s-.45-1-1-1Z" fill="url(#uuid-70a22850-b7d4-42a5-a9be-204c0ba0377d)"/></g></g></svg>