<?xml version="1.0" encoding="UTF-8"?><svg id="uuid-a68374f9-eab2-4587-8e6a-4eb61952b3ac" xmlns="http://www.w3.org/2000/svg" xmlns:xlink="http://www.w3.org/1999/xlink" viewBox="0 0 64 64"><defs><linearGradient id="uuid-c84cc133-f26a-4799-af8f-e0ba35aba63a" x1="20" y1="25" x2="44" y2="25" gradientUnits="userSpaceOnUse"><stop offset="0" stop-color="#3485fe"/><stop offset="1" stop-color="#b3f"/></linearGradient></defs><g id="uuid-93b68efe-4b21-4983-8cc4-4cde3b1727e6"><g id="uuid-94b77f09-6b87-44d5-a6ed-0597a9f55314"><path d="m32,15c5.51,0,10,4.49,10,10s-4.49,10-10,10-10-4.49-10-10,4.49-10,10-10m0-2c-6.63,0-12,5.37-12,12s5.37,12,12,12,12-5.37,12-12-5.37-12-12-12h0Z" fill="url(#uuid-c84cc133-f26a-4799-af8f-e0ba35aba63a)"/><path d="m32,2c12.13,0,22,10.27,22,22.88,0,.93-.06,1.87-.18,2.87-.43,3.54-1.66,6.97-3.58,9.92-.41.63-1.81,2.47-2.84,3.81-.38.5-.73.95-1.01,1.32l-14.39,19.2-14.42-19.2c-.27-.36-.62-.82-1-1.32-1.02-1.34-2.43-3.18-2.84-3.81-1.91-2.95-3.15-6.38-3.58-9.92-.12-1-.18-1.94-.18-2.87,0-12.62,9.87-22.88,22-22.88m0-2C18.75,0,8,11.14,8,24.88c0,1.05.07,2.09.19,3.11.48,3.95,1.84,7.62,3.88,10.77.61.93,2.85,3.83,3.92,5.24l14.41,19.2c.4.53.99.8,1.59.8s1.19-.27,1.59-.8l14.41-19.2c1.07-1.41,3.32-4.31,3.92-5.24,2.05-3.15,3.41-6.82,3.88-10.77.12-1.02.19-2.06.19-3.11C56,11.14,45.25,0,32,0h0Z"/></g></g></svg>