<?xml version="1.0" encoding="UTF-8"?><svg id="a" xmlns="http://www.w3.org/2000/svg" viewBox="0 0 18 18"><g id="b"><path d="M2.62,6.38c-1.45,0-2.62,1.18-2.62,2.62s1.18,2.62,2.62,2.62,2.62-1.18,2.62-2.62-1.18-2.62-2.62-2.62Zm0,3.23c-.33,0-.6-.27-.6-.6s.27-.6,.6-.6,.6,.27,.6,.6-.27,.6-.6,.6Z"/><path d="M9,6.38c-1.45,0-2.62,1.18-2.62,2.62s1.18,2.62,2.62,2.62,2.62-1.18,2.62-2.62-1.18-2.62-2.62-2.62Zm0,3.23c-.33,0-.61-.27-.61-.6s.27-.6,.61-.6,.6,.27,.6,.6-.27,.6-.6,.6Z"/><path d="M15.38,6.38c-1.45,0-2.62,1.18-2.62,2.62s1.18,2.62,2.62,2.62,2.62-1.18,2.62-2.62-1.18-2.62-2.62-2.62Zm0,3.23c-.33,0-.6-.27-.6-.6s.27-.6,.6-.6,.61,.27,.61,.6-.27,.6-.61,.6Z"/></g></svg>