<?xml version="1.0" encoding="UTF-8"?><svg id="uuid-73ff3e17-eccf-44e9-a60e-3bf2273e434e" xmlns="http://www.w3.org/2000/svg" width="18" height="18" viewBox="0 0 18 18"><path d="m17.97,4.67c-.17-1.5-1.43-2.67-2.97-2.67H3C1.46,2,.2,3.17.03,4.67h-.03v8.33c0,1.65,1.35,3,3,3h12c1.65,0,3-1.35,3-3V4.67h-.03Zm-14.97-.67h12c.55,0,1,.45,1,1v.44c0,.21-.12.41-.32.54l-6.15,3.84c-.33.2-.74.2-1.06,0l-6.15-3.84c-.2-.13-.32-.33-.32-.54v-.44c0-.55.45-1,1-1Zm12,10H3c-.55,0-1-.45-1-1v-4.86l5.41,3.38c.49.31,1.04.46,1.59.46s1.1-.15,1.59-.46l5.41-3.38v4.86c0,.55-.45,1-1,1Z"/></svg>