<?xml version="1.0" encoding="UTF-8"?><svg id="a" xmlns="http://www.w3.org/2000/svg" viewBox="0 0 18 18"><g id="b"><path d="M4.2,3.08h-.6V1c0-.55-.45-1-1-1S1.6,.45,1.6,1V3.08h-.6c-.55,0-1,.45-1,1s.45,1,1,1h.6v11.91c0,.55,.45,1,1,1s1-.45,1-1V5.09h.6c.55,0,1-.45,1-1s-.45-1-1-1Z"/><path d="M10.6,12.35h-.6V1c0-.55-.45-1-1-1s-1,.45-1,1V12.35h-.6c-.55,0-1,.45-1,1s.45,1,1,1h.6v2.64c0,.55,.45,1,1,1s1-.45,1-1v-2.64h.6c.55,0,1-.45,1-1s-.45-1-1-1Z"/><path d="M17,7.45h-.6V1c0-.55-.45-1-1-1s-1,.45-1,1V7.45h-.6c-.55,0-1,.45-1,1s.45,1,1,1h.6v7.55c0,.55,.45,1,1,1s1-.45,1-1v-7.55h.6c.55,0,1-.45,1-1s-.45-1-1-1Z"/></g></svg>