<?xml version="1.0" encoding="UTF-8"?><svg id="a" xmlns="http://www.w3.org/2000/svg" viewBox="0 0 18 18"><path id="b" d="M14.79,3.61c-3.28-3.29-8.63-3.29-11.92,0l-.11,.11V1.01c0-.56-.45-1.01-1.01-1.01S.74,.45,.74,1.01V6.31c0,.56,.45,1.01,1.01,1.01H7.05c.56,0,1.01-.45,1.01-1.01s-.45-1.01-1.01-1.01h-3.03l.27-.27c2.5-2.5,6.57-2.5,9.07,0,1.21,1.21,1.88,2.82,1.88,4.54s-.67,3.33-1.88,4.54c-2.5,2.5-6.57,2.5-9.07,0-.39-.39-1.03-.39-1.42,0s-.39,1.03,0,1.42c1.64,1.64,3.8,2.46,5.96,2.46s4.32-.82,5.96-2.46c1.59-1.59,2.47-3.71,2.47-5.96s-.88-4.37-2.47-5.96Z"/></svg>