<?xml version="1.0" encoding="UTF-8"?><svg id="a" xmlns="http://www.w3.org/2000/svg" viewBox="0 0 18 18"><g id="b"><path d="M13.11,4.51c-.29-2.09-2.27-3.57-4.48-3.38-1.93,.17-3.48,1.56-3.78,3.37-.09,.54,.28,1.06,.83,1.15,.55,.09,1.06-.28,1.15-.83,.15-.91,.96-1.61,1.98-1.7,1.18-.1,2.18,.63,2.33,1.66,.16,1.15-.35,2.33-1.35,3.08l-.75,.56c-1.11,.84-1.71,2.14-1.59,3.47,.05,.52,.48,.91,1,.91,.03,0,.06,0,.09,0,.55-.05,.96-.53,.91-1.08-.06-.64,.24-1.28,.8-1.69l.75-.56c1.57-1.18,2.39-3.08,2.13-4.96Z"/><circle cx="8.47" cy="16.06" r="1.25"/></g></svg>