<?xml version="1.0" encoding="UTF-8"?>
<svg id="uuid-d8a4ee77-3a6e-4a96-84e1-24039940e610" xmlns="http://www.w3.org/2000/svg" width="64" height="64" xmlns:xlink="http://www.w3.org/1999/xlink" viewBox="0 0 64 64">
  <defs>
    <linearGradient id="uuid-3100cac6-2f00-4b4f-98fd-3fd7914b8f8d" x1="3" y1="65" x2="61" y2="65" gradientTransform="translate(0 66) scale(1 -1)" gradientUnits="userSpaceOnUse">
      <stop offset="0" stop-color="#e57200"/>
      <stop offset="1" stop-color="#b3f"/>
    </linearGradient>
  </defs>
  <g id="uuid-fc69a85c-039a-40b1-ad39-de1a035ad125">
    <g id="uuid-2cd857a4-1015-4acc-886e-3bbba42bd7e9">
      <path d="m60,2H4c-.55,0-1-.45-1-1s.45-1,1-1h56c.55,0,1,.45,1,1s-.45,1-1,1Z" fill="url(#uuid-3100cac6-2f00-4b4f-98fd-3fd7914b8f8d)" stroke-width="0"/>
      <path d="m52.71,42.29c-.39-.39-1.02-.39-1.41,0l-18.29,18.29V11c0-.55-.45-1-1-1s-1,.45-1,1v49.59l-18.29-18.29c-.39-.39-1.02-.39-1.41,0s-.39,1.02,0,1.41l20,20c.09.09.2.17.33.22.12.05.25.08.38.08s.26-.03.38-.08c.12-.05.23-.12.33-.22l20-20c.39-.39.39-1.02,0-1.41h-.02Z" fill="#fff" stroke-width="0"/>
    </g>
  </g>
</svg>