<?xml version="1.0" encoding="UTF-8"?><svg id="uuid-afe85453-c832-4b1a-b8de-8b5786018c53" xmlns="http://www.w3.org/2000/svg" width="64" height="64" xmlns:xlink="http://www.w3.org/1999/xlink" viewBox="0 0 64 64"><defs><linearGradient id="uuid-7ef9a2a1-4287-4148-bc0d-c243cc6bc0bf" x1="3" y1="65" x2="61" y2="65" gradientTransform="translate(0 66) scale(1 -1)" gradientUnits="userSpaceOnUse"><stop offset="0" stop-color="#e57200"/><stop offset="1" stop-color="#b3f"/></linearGradient></defs><g id="uuid-ed0f2c0b-1344-4d0c-b464-a929cca708f3"><g id="uuid-955e5a81-8735-4829-86bb-ebf9697930c1"><path d="m60,2H4c-.55,0-1-.45-1-1s.45-1,1-1h56c.55,0,1,.45,1,1s-.45,1-1,1Z" fill="url(#uuid-7ef9a2a1-4287-4148-bc0d-c243cc6bc0bf)" stroke-width="0"/><path d="m52.71,42.29c-.39-.39-1.02-.39-1.41,0l-18.29,18.29V11c0-.55-.45-1-1-1s-1,.45-1,1v49.59l-18.29-18.29c-.39-.39-1.02-.39-1.41,0s-.39,1.02,0,1.41l20,20c.09.09.2.17.33.22.12.05.25.08.38.08s.26-.03.38-.08c.12-.05.23-.12.33-.22l20-20c.39-.39.39-1.02,0-1.41h-.02Z" stroke-width="0"/></g></g></svg>